<?xml version="1.0" encoding="UTF-8" standalone="no"?><!DOCTYPE svg PUBLIC "-//W3C//DTD SVG 1.1//EN" "http://www.w3.org/Graphics/SVG/1.1/DTD/svg11.dtd"><svg width="100%" height="100%" viewBox="0 0 8000 4500" version="1.1" xmlns="http://www.w3.org/2000/svg" xmlns:xlink="http://www.w3.org/1999/xlink" xml:space="preserve" xmlns:serif="http://www.serif.com/" style="fill-rule:evenodd;clip-rule:evenodd;stroke-linejoin:round;stroke-miterlimit:2;"><path d="M4190.647,1204.892c12.132,11.573 45.983,39.01 65.702,97.132c11.758,23.399 14.16,57.558 14.521,62.694c4.424,62.922 -15.288,130.155 -20.483,140.702c-28.92,58.707 -22.38,61.659 -52.824,108.877c-4.953,7.682 -56.267,87.267 -63.165,95.205c-42.81,49.265 -42.581,49.418 -46.469,53.547c-8.23,8.738 -88.083,93.524 -104.106,108.046c-129.786,117.63 -130.833,135.216 -142.38,121.034c-22.397,-27.508 -169.582,-159.92 -224.498,-230.257c-40.513,-51.89 -139.496,-162.837 -148.885,-334.715c-0.238,-5.567 -0.475,-11.135 -0.713,-16.702c4.086,-4.348 4.939,-3.159 7.866,-8.371c4.77,-8.492 14.486,9.255 26.114,-8.333c1.952,-2.952 22.141,-13.508 8.693,-15.278c-26.948,-3.546 -27.165,1.252 -29.171,0.059c-2.212,-1.316 6.261,-7.394 5.008,-13.952c-1.666,-8.719 2.947,-8.713 0.036,-17c-3.706,-10.547 7.139,-9.74 4.151,-20.584c-0.549,-1.994 -0.13,-1.754 3.542,-16.759c0.811,-3.312 1.895,-1.347 3.783,1.152c3.963,5.247 8.272,3.547 8.983,3.267c2.387,-0.942 7.977,-6.601 -20.248,-24.871c10.037,-24.476 8.887,-32.953 51.291,-81.841c3.556,-4.1 30.13,-34.738 52.192,-43.35c20.459,-7.987 100.842,-59.322 203.09,17.975c58.711,44.383 28.299,120.023 26.367,127.935c-6.939,28.426 -50.977,60.968 -79.44,58.971c-74.133,-5.202 -87.715,-55.078 -91.49,-63.328c-11.11,-31.062 12.463,-72.691 41.421,-70.132c40.768,3.603 17.105,26.196 18.441,32.623c9.442,45.398 40.34,18.72 44.266,8.516c25.586,-66.49 -84.439,-83.1 -128.961,-53.615c-60.105,39.806 -79.892,48.251 -94.129,166.312c-2.142,17.765 6.604,54.4 7.16,62.139c3.111,43.328 21.654,78.349 35.026,113.243c39.892,104.097 262.406,336.463 276.42,338.084c8.431,0.975 180.999,-153.545 273.689,-302.084c0.26,-0.331 118.645,-162.896 62.995,-282.059c-69.633,-149.105 -233.716,-127.956 -214.414,-42.306c8.353,37.064 62.835,9.03 46.73,-15.159c-6.8,-10.213 -4.842,-12.852 6.316,-17.634c37.78,-16.189 80.464,26.019 48.946,82.506c-43.724,78.363 -127.471,38.771 -144.316,24.822c-20.873,-17.285 -18.274,-19.361 -26.133,-45.008c-16.059,-52.405 9.751,-120.22 67.624,-149.247c12.666,-6.352 71.411,-16.735 83.093,-14.663c71.928,12.755 99.073,22.655 138.357,62.406Z" style="fill:#8c8986;"/><path d="M3075.395,1776.03c-4.231,5.871 -4.29,5.781 -4.569,6.341c-32.864,65.859 -14.434,103.379 -10.486,111.414c1.697,3.986 14.764,34.674 41.774,34.458c34.348,-0.274 36.44,-65.735 -4.589,-43.606c-7.56,4.078 -24.931,-14.532 -15.364,-40.379c8.005,-12.962 5.885,-15.436 19.794,-21.631c87.072,-38.778 132.856,102.046 73.464,152.58c-31.828,27.081 -56.398,27.802 -98.285,18.411c-52.594,-21.314 -49.065,-28.362 -73.248,-59.168c-28.994,-58.766 -12.498,-96.768 -10.111,-115.697c0.695,-5.509 4.351,-34.501 22.203,-65.761c18.077,-33.616 54.277,-72.278 82.73,-87.046c62.35,-32.362 64.342,-26.618 78.675,-28.909c47.566,-7.602 47.582,-2.17 95.642,0.515c48.914,2.732 47.377,8.69 70.219,15.953c34.709,11.037 33.33,13.941 67.67,26.103c87.353,30.937 253.411,190.009 305.368,254.228c35.883,44.352 67.851,68.664 93.786,93.597c10.793,10.375 -5.271,23.831 -78.577,95.739c-56.095,55.026 -103.849,128.344 -284.842,247.892c-22.068,14.323 -22.075,13.602 -44.926,26.026c-53.828,28.657 -118.46,40.826 -124.674,41.091c-42.962,1.837 -62.726,-6.527 -87.835,-9.061c-112.717,-38.74 -151.605,-78.111 -193.486,-177.527c-7.549,-34.118 -7.518,-41.656 -7.503,-45.332c0.272,-65.948 39.595,-102.738 46.531,-109.227c17.864,7.051 17.403,7.372 33.145,18.751c8.777,6.345 10.002,-11.163 16.558,-4.289c0.973,1.02 11.792,12.364 13.427,11.404c4.875,-2.861 4.821,-4.388 7.179,-2.242c0.653,0.595 14.886,6.51 5.011,-9.838c-0.722,-1.195 0.43,-19.621 17.45,0.3c-6.004,6.139 -0.493,8.431 -5.045,15.381c-3.14,4.794 5.473,4.789 8.741,5.046c9.619,0.755 -1.083,-12.135 -0.741,-12.8c1.095,-2.124 4.434,-2.44 5.528,-4.564c0.674,0.66 7.865,7.704 8.469,8.198c8.888,7.272 1.845,9.698 4.518,21.136c-0.305,0.675 -5.779,1.018 -3.661,8.091c0.588,1.964 5.169,17.259 0.914,25.608c-2.142,4.201 -8.083,7.171 -7.695,11.87c0.229,2.769 12.375,8.258 13.553,8.79c0,0 7.532,0.879 8.187,0.956c-2.108,14.621 -13.269,9.61 -14.051,24.041c-0.058,1.062 -0.714,13.17 5.839,11.94c2.228,-0.418 2.723,-3.669 4.432,-5.16c5.181,-4.52 4.524,0.795 12.267,9.989c-48.56,22.909 -76.329,-10.895 -80.496,-15.969c7.663,-8.627 10.746,-7.105 11.648,-18.454c0.048,-0.602 -2.2,0.139 -2.264,-7.207c-0.08,-9.186 -2.992,-7.648 -9.754,-13.461c6.576,-11.883 9.614,-5.582 17.87,-2.257c31.431,12.66 36.203,-50.126 -3.752,-47.344c-70.276,4.892 -71.174,145.633 54.873,215.949c8.496,4.739 53.843,20.054 57.807,20.321c106.558,7.178 144.257,-17.669 250.378,-89.288c3.46,-2.455 86.044,-62.233 122.018,-99.119c10.676,-10.947 87.553,-89.775 129.557,-140.54c5.449,-6.586 -5.86,-15.427 -24.986,-38.306c-68.238,-81.625 -102.843,-102.655 -165.824,-163.085c-67.957,-65.204 -203.826,-140.14 -290.574,-141.716c-110.616,-2.009 -150.615,64.325 -159.888,76.861Z" style="fill:#787675;"/><path d="M3633.349,2387.674c-22.185,31.26 -159.533,216.534 -90.281,368.88c55.473,122.035 205.499,113.742 205.839,41.361c0.24,-51.068 -61.463,-31.702 -44.96,3.468c12.834,27.349 -37.212,23.276 -48.015,9.328c-29.591,-38.205 -5.617,-85.778 13.938,-98.484c55.315,-35.941 75.125,-22.658 90.257,-17.591c55.665,18.642 49.978,29.6 64.481,86.342c4.281,16.747 -12.952,83.436 -44.57,106.951c-58.771,43.709 -122.705,26.598 -136.218,25.121c-84.151,-9.2 -167.08,-119.887 -173.77,-152.897c-11.395,-56.224 -41.521,-120.376 34.909,-287.949c17.325,-36.798 41.77,-73.287 45.852,-79.38c118.894,-177.474 136.185,-162.531 292.797,-307.551c15.404,-14.264 18.572,-6.215 32.343,9.417c58.265,66.138 103.286,94.895 132.855,129.627c103.927,122.071 114.257,124.634 149.099,176.829c-41.772,16.31 -64.456,2.335 -52.617,14.836c8.809,9.301 7.757,14.543 -4.822,16.636c-18.235,-21.071 -38.257,-50.096 -41.369,-54.608c-22.103,-32.042 -188.943,-209.265 -207.228,-206.574c-4.452,0.655 -161.677,123.998 -218.522,216.238Z" style="fill:#7d7b7a;"/><path d="M4163.884,1771.997c9.84,12.067 5.309,13.396 5.27,17.339c-0.093,9.402 10.185,17.321 0.345,41.596c-0.922,2.275 1.847,5.701 8.123,13.651c-72.735,64.78 -73.939,62.905 -143.046,131.694c-44.313,44.109 -60.242,52.795 -44.251,70.9c83.623,94.674 126.469,131.234 134.918,140.267c7.909,6.645 12.133,10.678 13.15,11.648c58.621,55.963 174.727,131.19 226.214,148.748c120.591,41.125 123.08,27.911 179.002,24.043c61.725,-4.269 110.733,-59.192 124.506,-82.611c41.903,-71.248 -8.704,-129.785 -19.822,-133.861c-41.271,-15.129 -56.315,23.715 -41.201,41.801c18.701,22.379 32.776,-11.995 43.433,5.661c27.133,44.955 -41.983,79.487 -85.746,48.938c-38.026,-26.544 -37.514,-83.489 -37.443,-91.389c0.592,-65.872 68.329,-80.146 70.45,-80.336c76.653,-6.856 101.511,21.406 125.584,50.757c34.918,42.574 30.292,110.226 27.788,121.093c-15.988,69.392 -22.781,91.624 -62.465,124.156c-37.859,31.036 -38.563,29.559 -82.014,51.968c-166.099,50.064 -256.523,-20.219 -304.642,-38.371c-51.165,-19.301 -51.803,-19.085 -144.733,-85.279c-12.135,-10.65 -11.793,-10.666 -24.645,-20.723c-21.24,-17.544 -118.9,-98.21 -238.245,-248.638c-4.54,-5.723 8.307,-15.828 14.893,-21.69c14.8,-15.19 144.688,-150.09 195.097,-192.34c4.703,-4.118 19.054,-19.016 59.481,-49.02Z" style="fill:#8c8985;"/><path d="M4431.226,1314.253c-1.035,10.243 -4.516,44.706 -29.04,125.367c-2.749,9.043 -5.607,7.656 -6.775,16.953c-0.463,3.683 -32.918,66.351 -0.488,42.857c2.553,-1.849 59.437,-22.334 64.632,-24.205c28.503,-10.264 50.339,-12.035 54.821,-12.398c3.084,-0.25 46.795,-9.775 47.018,-9.844c4.439,-1.384 3.571,-2.233 7.719,-4.826c1.055,2.82 -0.739,3.6 1.989,5.315c9.403,5.913 69.622,-9.506 151.204,53.538c7.306,5.646 54.426,42.059 29.415,111.607c-8.939,24.857 -40.214,67.186 -47.822,53.152c-18.176,-33.523 -21.796,-49.646 -94.383,-80.255c-3.397,-1.432 -3.84,0.831 -44.822,-10.694c-17.624,-4.956 -128.318,-13.928 -216.383,23.06c-115.586,39.209 -107.593,73.552 -121.009,64.524c-6.651,-4.476 53.84,-110.684 58.441,-141.255c12.017,-79.838 25.587,-77.857 25.746,-158.406c0.051,-26.092 6.525,-86.64 -54.698,-158.812c-27.362,-32.255 -53.059,-34.536 -29.466,-49.148c65.188,-40.375 124.218,-50.695 176.838,23.233c50.04,70.303 16.763,114.658 27.063,130.238Z" style="fill:#2c2f3b;"/><path d="M4396.98,2565.044c5.731,5.788 18.184,32.885 19.548,35.854c37.621,81.864 40.658,143.06 48.002,151.267c-1.266,0.138 -7.017,-2.523 -7.366,4.294c-0.222,4.325 -2.195,42.835 -5.544,53.845c-38.268,125.803 -111.923,115.702 -153.499,110.817c-11.886,-1.396 -64.848,-33.313 -66.058,-40.148c-1.664,-9.401 87.108,-72.634 95.436,-124.648c1.711,-10.686 35.131,-82.223 -21.804,-199.798c-0.967,-1.997 -6.114,-12.626 -10.589,-25.635c-6.177,-17.955 -51.939,-97.519 -52.959,-98.652c-26.684,-29.635 46.733,9.712 51.354,12.029c43.821,21.972 147.516,51.202 154.622,51.969c35.633,3.845 88.066,12.546 112.431,6.447c38.352,-9.6 38.743,-6.667 41.907,-7.944c41.782,-16.864 41.67,-16.502 80.01,-40.644c37.276,-23.472 47.093,-65.47 60.802,-47.527c23.626,30.922 21.123,32.432 30.407,70.348c6.63,27.075 -7.744,82.83 -56.005,110.763c-84.261,48.769 -107.394,12.013 -130.433,30.002l-4.599,-3.978c-24.124,0.417 -23.065,-4.577 -47.054,-8.992c-77.646,-14.292 -76.837,-17.748 -83.593,-18.917c-7.635,-1.321 -5.782,-5.069 -13.357,-6.72c-22.68,-4.943 -18.142,-15.998 -40.835,-18.978l-0.825,4.947Z" style="fill:#303440;"/><path d="M3158.724,2621.71c-1.659,-1.524 -1.454,-4.474 -3.113,-5.999c-3.707,-3.407 -34.83,7.033 -95.582,-21.155c-104.357,-48.42 -79.768,-137.821 -28.759,-188.278c18.868,-18.664 20.857,47.657 108.359,83.193c142.501,57.872 329.071,-86.83 342.048,-85.105c9.483,1.26 2.625,5.343 -1.346,13.954c-42.416,92.003 -76.54,159.537 -77.234,229.602c-1.708,172.602 84.442,207.362 98.662,225.145c6.59,8.241 -54.731,39.687 -74.685,39.807c-117.782,0.708 -132.136,-106.467 -140.098,-136.012c0.016,-14.071 2.353,-14.005 -2.139,-27.407c2.871,-40.406 16.576,-73.337 17.171,-76.548c10.255,-55.361 16.79,-53.36 17.326,-58.187c4.107,-37.003 20.041,-41.002 15.998,-49.75c-1.017,-2.2 -30.38,12.116 -32.936,13.362c-56.006,27.305 -88.671,24.287 -116.802,37.211c-12.71,5.839 -14.089,0.23 -26.87,6.166Z" style="fill:#1e2232;"/><path d="M3289.289,1336.242c9.566,-7.337 5.007,-9.443 5.516,-34.16c1.258,-61.081 47.333,-146.134 115.615,-147.975c18.305,-0.494 36.495,-1.941 81.406,29.192c17.09,11.847 -55.092,37.536 -71.978,102.385c-57.782,221.904 113.307,420.281 57.056,379.278c-21.384,-15.588 -80.712,-45.585 -87.904,-49.222c-111.663,-56.46 -301.494,-53.492 -351.389,47.936c-13.204,26.842 -20.706,-0.607 -29.448,-16.85c-21.668,-40.264 -12.019,-75.157 1.587,-107.513c27.203,-64.693 92.79,-68.468 113.201,-70.192c2.263,-0.191 2.098,0.129 28.329,1.737c3.391,0.749 1.613,3.315 4.97,4.057c0.367,0.081 2.853,0.631 4.241,-2.021c0.57,-1.089 -1.967,-2.322 -1.397,-3.411c69.575,4.877 164.943,34.978 177.145,48.299c4.45,4.858 5.74,4.403 10.158,-0.296c-7.125,-29.773 -15.702,-26.885 -19.679,-57.017c-1.745,-13.221 -5.149,-12.104 -7.28,-25.168c-2.786,-17.083 -6.793,-15.751 -8.784,-33.267c-0.162,-1.426 -12.414,-29.026 -16.281,-45.947c-0.61,-2.667 -2.014,-5.297 -1.748,-8.02c0.17,-1.735 3.37,-2.624 2.953,-4.317c-0.187,-0.761 -0.466,-0.556 -6.288,-7.508Z" style="fill:#2c3040;"/><path d="M4163.884,1771.997c33.172,-29.319 99.247,-70.217 108.235,-75.78c18.284,-11.317 19.72,-8.038 38.244,-19.22c27.372,-16.522 88.255,-29.898 99.185,-34.979c32.783,-15.242 109.408,-13.942 117.721,-11.536c90.226,26.12 169.362,51.392 215.506,180.214c3.093,8.636 8.276,77.42 5.031,91.366c-33.881,145.633 -150.888,114.391 -162.472,108.54c-48.213,-24.35 -52.352,-35.686 -60.527,-71.464c-14.628,-64.024 35.825,-115.648 81.648,-109.182c2.385,0.337 17.037,2.404 28.066,10.892c49.053,37.752 5.898,64.865 0.525,62.106c-2.103,-1.08 -21.532,-11.058 -29.422,2.801c-22.761,39.983 51.482,70.949 75.636,-7.836c0.111,-0.361 20.079,-161.507 -171.118,-194.615c-142.373,-24.653 -314.176,129.419 -332.521,141.276c-6.276,-7.95 -9.045,-11.377 -8.123,-13.651c9.841,-24.275 -0.438,-32.193 -0.345,-41.596c0.039,-3.943 4.57,-5.272 -5.27,-17.339Z" style="fill:#928f8b;"/><path d="M4157.906,2401.148c79.999,102.197 145.141,247.395 102.032,359.065c-29.966,77.624 -96.614,118.259 -107.901,125.14c-60.042,36.607 -132.237,31.874 -179.564,17.86c-78.887,-23.359 -103.331,-164.543 -23.527,-211.84c22.625,-13.409 81.718,-1.047 93.595,8.042c80.218,61.393 23.936,133.649 -12.121,117.24c-16.57,-7.541 -19.525,-9.207 -15.171,-26.917c9.269,-37.708 -59.015,-35.471 -42.882,12.559c15.325,45.626 36.4,42.646 54.787,45.016c82.033,10.575 134.981,-45.316 156.703,-95.912c3.71,-8.64 30.472,-70.976 18.621,-116.055c-29.117,-110.752 -39.468,-106.569 -102.01,-202.726c12.579,-2.093 13.631,-7.334 4.822,-16.636c-11.839,-12.501 10.844,1.474 52.617,-14.836Z" style="fill:#7e7d7d;"/><path d="M3031.496,1224.272c-9.82,-6.204 -10.297,-5.105 -10.891,-5.898c-0.029,-0.039 -4.418,-10.901 2.096,-12.713c20.434,-5.684 -4.037,-9.329 -7.244,-13.641c-2.378,-3.198 -2.979,-1.871 -5.783,1.216c-5.286,5.819 0.773,5.746 0.742,6.948c-0.081,3.141 -0.895,2.699 -14.058,18.851c-4.755,-38.504 -4.74,-49.499 14.201,-46.906c130.078,17.803 183.138,65.916 278.73,164.113c5.823,6.952 6.101,6.748 6.288,7.508c0.417,1.693 -2.784,2.581 -2.953,4.317c-0.266,2.723 1.139,5.353 1.748,8.02c3.867,16.921 16.119,44.521 16.281,45.947c1.991,17.516 5.998,16.184 8.784,33.267c2.131,13.065 5.535,11.947 7.28,25.168c3.977,30.132 12.554,27.244 19.679,57.017c-4.418,4.698 -5.708,5.154 -10.158,0.296c-12.203,-13.32 -107.571,-43.422 -177.145,-48.299c-1.293,-1.388 -2.586,-2.776 -3.879,-4.164c-89.189,-56.262 -138.347,-169.499 -154.678,-233.542c2.242,-0.194 3.472,-3.402 5.713,-3.596c5.018,-0.434 4.081,1.468 11.806,8.752c8.968,8.456 7.366,-1.721 13.439,-12.661Z" style="fill:#060608;"/><path d="M4397.805,2560.097c22.693,2.98 18.154,14.034 40.835,18.978c7.575,1.651 5.722,5.399 13.357,6.72c6.756,1.169 5.947,4.625 83.593,18.917c23.988,4.416 22.93,9.409 47.054,8.992l4.599,3.978c1.484,1.409 74.219,52.235 149.822,200.412c-15.251,17.436 -11.135,19.865 -11.335,20.337c-2.651,6.241 -0.635,6.566 5.647,9.239c3.087,1.313 3.847,2.701 4.041,3.057c2.032,3.712 -0.147,4.057 1.726,7.479c-0.836,0.405 -10.125,4.902 -10.502,4.967c-11.464,1.967 -2.573,7.477 -3.775,9.643c-3.25,5.854 -51.024,-24.856 -59.891,-17.804c-5.89,4.684 -4.257,5.836 -4.753,6.218c-5.072,3.906 -4.354,-3.172 -10.706,-3.837c-11.25,-1.178 1.066,10.802 0.997,24.196c-0.023,4.543 -0.243,4.1 -0.493,8.314c-0.746,0.019 -39.673,7.455 -4.403,8.229c10.185,0.224 3.564,11.928 -4.866,18.041c-37.737,-21.748 -37.917,-21.194 -86.154,-64.629c-42.117,-37.924 -59.691,-69.139 -88.067,-99.379c-7.345,-8.207 -10.381,-69.404 -48.002,-151.267c-1.364,-2.968 -13.817,-30.066 -19.548,-35.854l0.825,-4.947Z" style="fill:#030303;"/><path d="M4656.225,1156.181c0.287,0.701 8.989,4.579 6.889,16.842c-1.75,10.217 -25.992,17.966 -11.297,21.165c5.455,1.187 5.281,0.158 12.758,-1.059c7.614,9.225 7.195,9.073 7.859,9.831c10.317,11.78 2.095,12.859 -8.352,24.346c-9.596,-1.425 -9.426,0.275 -15.755,7.377l-4.146,-3.844l-4.713,0.914c-1.683,-1.005 0.353,-7.324 -16.568,-4.793c-8.29,1.24 -7.849,-5.262 -16.857,-7.433c-9.568,-2.306 -8.345,2.581 -11.299,3.494c0.955,7.582 1.832,6.957 5.397,13.821c-4.744,17.5 22.31,6.138 19.744,23.846c-0.956,6.6 -3.933,5.255 -4.639,11.869c0.067,1.036 0.839,12.951 0.839,12.951c0.067,0.884 0.543,0.596 7.46,8.187c2.218,1.824 1.115,3.225 3.893,3.201c8.524,-0.073 6.061,12.787 12.48,7.057c3.725,-3.325 8.451,-10.37 9.099,-11.336c6.971,15.202 8.565,13.931 19.75,26.128c1.304,1.422 0.404,5.339 2.333,5.298c1.788,-0.038 13.586,-16.999 14.143,-17.026c1.058,-0.05 0.723,0.631 9.972,8.711c-12.448,16.284 -124.955,131.449 -126.104,132.428c-4.148,2.593 -3.28,3.443 -7.719,4.826c-0.223,0.07 -43.933,9.594 -47.018,9.844c-4.482,0.363 -26.318,2.134 -54.821,12.398c-5.195,1.871 -62.079,22.355 -64.632,24.205c-32.431,23.494 0.025,-39.174 0.488,-42.857c1.168,-9.298 4.026,-7.911 6.775,-16.953c24.524,-80.662 28.006,-115.124 29.04,-125.367c4.859,-3.402 4.909,-3.034 8.749,-7.519c36.878,-43.076 39.164,-40.273 82.104,-76.688c59.066,-50.091 63.556,-42.73 134.146,-73.865Z" style="fill:#050608;"/><path d="M3158.724,2621.71c12.781,-5.936 14.16,-0.327 26.87,-6.166c28.132,-12.924 60.796,-9.906 116.802,-37.211c2.556,-1.246 31.92,-15.562 32.936,-13.362c4.043,8.747 -11.891,12.747 -15.998,49.75c-0.536,4.827 -7.071,2.826 -17.326,58.187c-0.595,3.212 -14.3,36.142 -17.171,76.548c-8.849,1.279 -6.905,3.913 -12.662,10.304c-32.693,36.286 -34.679,34.003 -68.669,68.872c-34.779,35.678 -38.937,29.897 -79.83,58.404c-15.544,-6.359 -15.145,-13.16 -20.741,-8.675c-7.79,6.244 -8.807,3.238 -17.051,-2.099c-9.674,-4.887 -10.271,-1.997 -20.88,-4.978c-1.583,-0.445 -27.79,-25.547 11.716,-16.891c14.255,3.123 1.245,-5.833 -5.391,-18.509c-5.39,-10.295 -16.04,-4.481 -16.322,-11.683c-0.334,-8.538 4.795,-4.364 6.174,-4.361c1.06,0.002 7.839,-5.597 0.987,-7.044c-11.778,-2.488 -11.885,-2.34 -19.997,-11.289c6.544,-7.242 7.373,-8.012 3.251,-16.515c-1.836,-3.787 4.439,-15.388 10.921,-15.868c3.26,-0.242 12.194,2.838 5.636,-9.299c-4.518,-8.361 -6.361,-7.122 -8.182,-16.074c4.523,-4.615 3.866,-5.883 10.412,-5.817c10.909,0.109 7.669,-12.77 4.698,-15.016c-2.601,-1.966 -6.146,-2.413 -8.747,-4.38c7.645,-7.983 53.011,-55.352 98.561,-96.826Z" style="fill:#030406;"/><path d="M3535.088,2082.856c-44.736,-6.456 -224.775,-43.465 -228.67,-47.588c-9.323,-9.871 3.12,-6.159 16.426,-8.506c8.509,-1.501 7.704,-2.953 16.536,-4.691c6.748,-1.328 62.934,-12.389 83.782,-19.278c26.533,-8.769 26.737,-7.984 28.977,-8.913c13.608,-5.644 90.532,-22.696 133.313,-22.613c46.905,0.091 118.501,57.552 103.676,72.032c-43.05,42.051 -61.8,61.622 -154.039,39.558Z" style="fill:#23252c;"/><path d="M4322.804,2079.405c15.366,-3.14 15.266,-3.127 16.595,-3.392c42.958,-8.549 87.421,5.547 87.292,9.412c-0.695,20.768 -42.798,-13.212 -134.774,106.829c-34.351,44.832 -74.723,37.638 -81.16,34.185c-51.803,-27.788 -30.304,-60.853 -15.384,-86.023c18.731,-31.601 90.541,-58.432 127.431,-61.011Z" style="fill:#33353e;"/><path d="M4360.385,2013.031c-206.346,-14.604 -183.317,-188.424 -96.187,-151.762c70.744,29.767 54.703,74.543 142.477,131.828c0.273,0.178 12.596,5.268 19.013,10.451c11.396,9.204 -9.753,8.961 -10.88,8.948c-4.354,-0.05 -4.292,0.467 -54.423,0.535Z" style="fill:#2b2c33;"/><path d="M3768.443,2527.458c-59.696,-44.873 -60.502,-42.936 -71.011,-49.623c-93.066,-59.216 -10.407,-109.555 21.595,-101.92c88.55,21.127 124.178,181.091 106.45,221.13c-10.782,24.35 -7.944,-24.716 -57.034,-69.587Z" style="fill:#2d313c;"/><path d="M4010.587,1585.171c23.738,18.016 54.274,35.648 41.659,79.462c-4.817,16.728 -68.364,73.179 -126.035,-28.8c-42.02,-74.304 -31.773,-87.478 -31.41,-150.375c0.073,-12.728 10.087,-15.309 16.256,-0.341c20.891,50.685 39.374,62.958 99.53,100.054Z" style="fill:#343642;"/><path d="M4024.095,2392.036c3.76,2.885 30.795,23.624 17.459,56.614c-1.628,4.026 -11.505,28.461 -32.487,43.494c-7.51,5.381 -77.384,55.445 -86.719,76.269c-1.487,3.317 -29.766,66.401 -30.195,33.955c-0.463,-34.942 -2.549,-34.765 -2.408,-37.791c7.801,-167.675 94.874,-196.236 134.35,-172.541Z" style="fill:#282931;"/><path d="M3364.737,2067.345c49.966,8.76 49.806,9.247 95.799,30.351c34.708,15.926 98.482,101.015 24.705,128.974c-8.724,3.306 -40.029,-1.516 -57.851,-20.692c-37.067,-39.883 -37.125,-90.372 -112.033,-126.545c-57.292,-27.666 45.449,-12.514 49.381,-12.088Z" style="fill:#292930;"/><path d="M3911.169,2293.703c0.028,3.648 0.28,36.489 -1.891,45.559c-5.99,25.027 -2.708,25.183 -8.136,50.098c-10.792,49.539 -6.8,50.004 -8.055,54.204c-13.058,43.678 -25.073,145.742 -29.918,153.415c-11.212,17.759 -10.993,-17.254 -11.664,-19.732c-5.63,-20.786 -2.839,-20.932 -7.857,-41.808c-1.283,-5.336 -11.69,-48.634 -15.047,-66.924c-19.165,-104.422 -24.23,-103.213 -25.69,-112.313c20.517,4.906 22.284,-2.547 28.332,0.077c4.768,2.069 -2.453,20.266 17.966,13.611c11.982,-3.906 -14.67,-6.365 -8.085,-16.906c3.721,-5.957 -0.042,-5.59 -4.063,-11.08c1.053,-1.966 2.105,-3.933 3.158,-5.899c4.083,-9.963 7.152,-10.308 3.497,-14.961c-0.937,-1.193 -3.614,1.237 -4.551,0.044c6.347,-6.359 6.166,-6.576 14.527,-9.11c16.144,-5.259 13.3,-21.359 26.455,-12.425c13.856,9.411 13.341,-0.284 22.972,-14.138c2.683,2.762 5.367,5.524 8.05,8.287Z" style="fill:#0c0c0e;"/><path d="M3714.221,1563.737c31.929,-15.931 44.355,-16.877 70.262,-49.858c24.687,-31.427 40.405,-61.159 39.186,-36.843c-6.79,135.478 -50.975,155.13 -86.677,189.247c-38.053,36.364 -78.356,-4.134 -83.28,-14.954c-21.664,-47.606 34.776,-74.073 60.508,-87.592Z" style="fill:#2c2f3a;"/><path d="M3468.717,1837.768c66.714,2.369 73.755,77.737 -12.806,126.162c-82.314,46.049 -86.447,36.36 -149.495,32.395c-19.224,-1.209 -6.047,-12.54 7.872,-16.066c88.035,-22.302 87.132,-133.277 154.429,-142.491Z" style="fill:#2e313b;"/><path d="M4432.959,1885.292c3.159,23.91 5.17,55.857 15.874,70.197c0.924,1.238 16.808,22.517 3.421,18.998c-75.787,-19.926 -102.316,-56.369 -119.514,-122.839c-15.876,-61.358 34.277,-84.903 40.401,-85.164c61.114,-2.605 57.418,98.028 59.818,118.808Z" style="fill:#5e5d59;"/><path d="M4319.874,2223.051c21.686,-77.814 107.164,-109.412 132.63,-105.94c2.452,0.334 11.42,4.141 -10.575,29.074c-23.281,26.392 -24.225,86.725 -32.514,109.734c-1.627,4.515 -13.062,49.461 -45.124,57.041c-67.295,15.91 -46.111,-82.068 -44.416,-89.909Z" style="fill:#646461;"/><path d="M3942.859,1481.601c-1.048,-2.981 -22.242,-63.3 9.574,-38.322c44.293,34.772 62.994,27.411 120.214,43.055c28.729,7.855 29.856,6.347 51.491,27.368c35.816,62.171 -94.143,129.297 -181.279,-32.101Z" style="fill:#5d5d59;"/><path d="M3627.502,2580.203c-4.907,-2.536 -47.619,-24.608 -38.356,-57.409c1.077,-3.815 7.094,-25.12 38.412,-31.307c116.789,-23.074 196.267,171.374 145.249,131.593c-40.593,-31.652 -101.824,-24.483 -145.305,-42.877Z" style="fill:#51514e;"/><path d="M3993.883,2527.261c11.504,-7.528 29.602,-23.347 66.57,-23.149c4.942,0.026 50.119,0.268 58.937,18.492c35.035,72.402 -101.603,82.141 -104.898,83.344c-74.65,27.23 -68.633,40.344 -75.397,39.541c-0.734,-0.087 -21.378,-63.586 54.788,-118.228Z" style="fill:#595854;"/><path d="M3391.646,1775.326c2.338,3.54 14.494,21.948 11.177,51.84c-11.262,101.487 -115.928,136.634 -130.318,135.123c-15.95,-1.675 4.393,-20.751 5.271,-22.379c28.094,-52.065 20.141,-54.532 29.93,-112.598c15.209,-90.215 67.758,-66.961 83.939,-51.986Z" style="fill:#5d5c59;"/><path d="M3293.901,2113.133c71.991,8.881 154.711,129.686 90.038,178.662c-17.09,12.942 -53.194,8.315 -64.24,-19.168c-21.147,-52.615 -6.754,-56.325 -23.229,-99.166c-11.208,-29.144 -7.839,-30.637 -25.865,-55.888c-15.328,-21.471 15.708,-6.346 23.296,-4.441Z" style="fill:#545453;"/><path d="M3812.872,1639.07c2.767,-0.222 4.12,4.903 6.887,4.68c2.104,-0.169 1.354,-4.391 3.157,-5.487c1.284,-0.781 3.524,-0.327 4.421,0.878c1.489,2 0.173,5.293 1.662,7.293c-7.102,11.012 -11.5,12.176 -6.098,15.254c0,0 9.817,2.415 10.671,2.625l-2.994,7.074c-11.714,16.036 -2.546,20.543 -15.317,36.058c-1.201,1.459 -1.544,16.448 -1.577,17.884c-5.204,7.801 -11.044,9.289 -3.269,14.491c4.818,3.224 3.84,4.108 1.43,9.404c-0.376,0.826 0.371,0.786 -1.252,11.268c-0.168,1.083 -1.856,2.138 -1.24,3.045c1.584,2.334 5.176,2.756 6.76,5.09c0.01,8.038 -0.266,12.427 6.87,8.704c6.825,-3.561 4.529,-6.825 12.319,-8.531c11.216,17.719 17.617,3.894 16.258,0.018c-4.556,-13.001 15.232,-5.41 17.782,-20.806c1.986,-11.99 7.413,-9.757 9.678,-21.691c-1.165,-0.376 -0.03,-5.065 -6.064,-1.957c-0.877,0.452 -6.771,6.86 -7.996,7.415c-6.075,2.75 -10.213,2.435 -6.119,12.437c3.83,9.358 -8.021,9.533 -13.605,-1.013c-0.408,-0.771 -0.371,-0.718 -5.004,-9.691c6.454,-2.526 7.55,-0.875 11.114,-6.642c7.985,-12.919 15.25,-13.534 6.132,-25.502l-2,-2.728c0.424,-9.386 -0.215,-10.874 8.925,-13.758c15.045,-4.747 7.558,-19.151 6.755,-20.697l6.001,-1.443c13.668,0.218 18.247,4.31 26.007,6.077c2.347,54.515 10.502,54.026 5.62,108.082c-4.685,51.878 -52.785,107.123 -68.617,91.19c-69.172,-69.611 -37.001,-152.019 -27.299,-229.021Z" style="fill:#30323b;"/><path d="M4516.156,2226.034c6.891,13.356 8.066,12.524 13.139,26.771c30.111,84.58 -43.54,97.468 -55.772,89.918c-82.432,-50.879 -22.424,-154.406 -17.701,-161.832c31.132,-48.939 56.535,-45.322 54.36,-37.161c-8.669,32.524 -15.304,34.502 5.974,82.304Z" style="fill:#8d8b87;"/><path d="M3718.695,1535.353c-11.111,8.388 -11.023,8.358 -12,9.059c-66.586,47.759 -140.78,9.019 -110.969,-45.497c22.975,-42.016 122.38,-28.86 155.935,-47.494c1.97,-1.094 13.219,-7.341 25.235,-12.508c15.214,-6.542 6.713,6.334 1.474,21.95c-13.362,39.829 -28.47,48 -59.675,74.49Z" style="fill:#595854;"/><path d="M3972.98,1396.084c50.607,-0.276 49.432,-6.719 112.474,-31.381c40.231,-15.738 115.067,41.481 32.781,94.944c-7.352,4.776 -62.575,11.144 -95.386,-3.23c-53.082,-23.254 -82.917,-71.769 -58.404,-62.228c0.652,0.254 0.632,0.14 8.535,1.895Z" style="fill:#8d8c8a;"/><path d="M3228.008,1906.223c-0.373,-4.21 -1.742,-19.683 -18.4,-49.53c-44.209,-79.21 14.646,-115.713 21.455,-117.701c68.936,-20.126 82.995,147.909 15.855,194.983c-23.975,16.81 -19.258,-5.551 -18.911,-27.753Z" style="fill:#868382;"/><path d="M3739.073,2635.978c1.744,1.922 24.271,24.789 25.343,28.667c6.798,24.576 -25.177,-21.076 -91.477,16.643c-6.962,3.961 -73.824,42 -100.13,0.047c-41.678,-66.47 73.618,-118.857 166.263,-45.357Z" style="fill:#7b797a;"/><path d="M4514.96,1746.287c36.252,14.041 25.868,54.93 24.592,59.955c-14.974,58.962 -42.579,53.038 -36.57,129.114c3.593,45.492 -71.596,-45.844 -58.835,-120.692c0.537,-3.152 -0.342,-60.794 45.148,-72.037c5.699,-1.408 7.705,-1.122 8.373,-1.027c9.133,1.302 8.338,3.41 17.292,4.687Z" style="fill:#94928e;"/><path d="M3618.71,1354.515c4.977,0.588 28.46,3.361 58.523,22.346c63.112,39.856 74.109,7.463 82.686,17.356c5.672,6.543 -81.176,97.149 -169.283,43.599c-24.781,-15.061 -53.835,-80.558 28.074,-83.301Z" style="fill:#8b8885;"/><path d="M3203.571,2252.423c24.786,-58.766 34.042,-57.305 31.875,-121.169c-1.051,-30.991 95.952,83.495 41.162,170.502c-27.935,44.361 -91.219,20.785 -73.038,-49.333Z" style="fill:#787674;"/><path d="M3034.756,2097.036c7.142,-5.875 54.525,-44.851 113.096,-23.936c59.294,21.173 88.839,126.329 20.931,166.545c-7.743,-9.194 -7.087,-14.509 -12.267,-9.989c-1.708,1.491 -2.203,4.741 -4.432,5.16c-6.554,1.23 -5.897,-10.879 -5.839,-11.94c0.783,-14.431 11.943,-9.42 14.051,-24.041c-0.655,-0.076 -8.187,-0.956 -8.187,-0.956c-1.178,-0.532 -13.325,-6.021 -13.553,-8.79c-0.388,-4.7 5.554,-7.669 7.695,-11.87c4.256,-8.348 -0.326,-23.644 -0.914,-25.608c-2.118,-7.073 3.356,-7.416 3.661,-8.091c-2.673,-11.438 4.37,-13.864 -4.518,-21.136c-0.604,-0.495 -7.796,-7.538 -8.469,-8.198c-3.747,-3.262 -3.765,-2.685 -8.483,-3.063c-17.02,-19.921 -18.172,-1.495 -17.45,-0.3c9.875,16.347 -4.358,10.432 -5.011,9.838c-2.358,-2.146 -2.303,-0.619 -7.179,2.242c-1.635,0.959 -12.454,-10.384 -13.427,-11.404c-6.556,-6.874 -7.781,10.634 -16.558,4.289c-15.742,-11.38 -15.281,-11.701 -33.145,-18.751Z" style="fill:#707070;"/><path d="M4089.95,2696.399c-50.674,-20.011 -80.782,-41.233 -104.582,-36.534c-67.817,13.39 26.588,-39.356 42.328,-43.512c109.375,-28.877 146.241,37.774 131.292,59.861c-25.427,37.569 -57.956,23.373 -69.038,20.185Z" style="fill:#7a7877;"/><path d="M4068.22,1984.165c17.301,22.886 20.431,19.615 22.002,17.973c0.004,-0.005 -2.881,-3.245 0.61,-6.323c5.886,-5.19 11.747,2.165 15.885,0.685c2.506,-0.897 4.229,-3.898 6.887,-4.042c2.278,-0.123 3.692,3.471 5.97,3.348c-3.134,3.365 -2.801,3.209 -3.134,3.365c-10.772,5.014 -12.179,6.722 -8.414,18.091c6.236,18.83 22.859,-4.714 24.004,-6.336c3.876,-0.732 3.983,0.945 7,-1.321c6.99,-5.251 7.219,-9.899 14.299,-4.479c6.926,5.302 -5.155,5.153 -6.005,8.701c-1.154,4.822 -1.391,4.487 -2.794,9.011c-5.639,14.184 -21.229,32.576 7.486,29.704c-0.176,9.522 -0.013,9.098 -1.597,18.629c1.749,8.009 2.902,7.413 10.057,11.772c8.02,4.885 9.451,-3.725 9.576,-3.872c5.902,-6.941 4.514,3.086 15.014,13.427c-7.878,1.415 -42.668,7.663 -100.01,2.657c-10.755,-3.889 -35.62,-4.985 -77.684,-56.408c-6.306,-7.71 0.351,-7.442 13.996,-21.527c20.371,-21.028 42.676,-31.158 46.852,-33.054Z" style="fill:#2f313a;"/><path d="M3881.178,1446.258c-15.217,1.145 -52.716,13.832 -91.421,-44.293c-10.533,-15.817 45.686,-31.46 64.256,-74.067c5.014,-11.505 8.224,-2.975 16.273,6.335c28.178,32.593 47.454,44.648 52.25,47.648c5.775,3.612 26.55,6.353 0.979,37.378c-16.372,19.864 -19.44,21.257 -42.337,26.999Z" style="fill:#060607;"/><path d="M3043.003,2739.029c3.599,1.574 7.198,3.147 10.797,4.721c1.821,8.953 3.664,7.713 8.182,16.074c6.558,12.137 -2.376,9.057 -5.636,9.299c-6.482,0.481 -12.757,12.082 -10.921,15.868c4.122,8.503 3.292,9.272 -3.251,16.515c8.113,8.949 8.219,8.801 19.997,11.289c6.852,1.447 0.073,7.047 -0.987,7.044c-1.379,-0.003 -6.508,-4.177 -6.174,4.361c0.282,7.202 10.932,1.389 16.322,11.683c6.637,12.676 19.646,21.633 5.391,18.509c-39.506,-8.656 -13.3,16.446 -11.716,16.891c10.609,2.981 11.206,0.091 20.88,4.978c8.244,5.337 9.261,8.343 17.051,2.099c5.596,-4.485 5.198,2.316 20.741,8.675c-1.353,0.641 -16.479,7.809 -16.946,7.954c-50.779,15.805 -50.405,17.122 -54.995,17.656c-46.649,5.436 -71.292,14.439 -62.812,-31.483c7.826,-42.383 6.606,-42.615 7.883,-46.134c17.513,-48.256 15.431,-56.191 46.196,-96Z" style="fill:#1b202d;"/><path d="M4453.081,2027.094c0.457,-3.571 -2.138,-15.554 12.084,-32.858c25.986,-31.615 34.955,-30.482 43.508,-16.114c33.893,56.941 82.34,55.721 58.574,72.018c-68.757,47.15 -56.571,82.462 -76.46,66.933c-43.572,-34.019 -37.73,-56.721 -37.706,-89.98Z" style="fill:#09090a;"/><path d="M4656.225,1156.181c35.053,-6.26 34.258,-9.397 37.334,-9.619c66.881,-4.817 68.199,3.893 67.153,9.723c-9.613,53.577 -8.387,53.44 -10.102,57.81c-30.585,77.934 -51.162,96.785 -55.394,101.634c-9.249,-8.08 -8.914,-8.761 -9.972,-8.711c-0.557,0.026 -12.355,16.988 -14.143,17.026c-1.929,0.041 -1.029,-3.876 -2.333,-5.298c-11.185,-12.198 -12.778,-10.927 -19.75,-26.128c-0.503,-1.045 -6.673,-13.849 -0.842,-14.471c1.764,-0.188 21.762,-2.323 21.593,-5.064c-0.095,-1.549 -3.831,3.765 -16.986,-9.381c-3.145,-3.143 -2.108,-3.428 -4.477,-7.28c2.023,-3.455 4.047,-6.91 6.07,-10.366c2.288,0.753 3.951,-4.401 6.239,-3.648c5.684,1.87 0.848,3.706 -0.187,9.677c-1.716,9.906 3.685,9.31 12.3,4.257c1.756,2.404 2.685,1.653 3.252,4.451c0,0 9.253,11.276 10.058,12.257c-0.267,2.769 -0.535,5.537 -0.802,8.306c7.948,-3.642 7.844,-4.084 8.584,-3.933c2.75,0.561 1.069,2.689 3.494,2.853c15.964,1.076 6.65,-25.829 5.901,-27.992c2.58,-10.776 5.886,-14.958 -5.28,-16.938c-9.843,-3.409 -9.535,-3.486 -12.524,-4.082c-3.212,-6.495 -4.01,-6.659 -1.231,-13.271c3.418,-8.131 -0.387,-9.904 6.103,-15.761c6.513,-5.878 7.485,-2.41 11.505,-2.931c0.812,-0.105 0.628,-0.425 8.471,-5.733c6.048,-8.371 10.749,-8.808 4.533,-16.818c-10.395,-13.394 -8.462,-17.182 -18.8,-17.579c-18.695,-0.717 8.144,7.931 8.23,26.439c-1.382,0.578 0.09,3.726 -1.292,4.305c-10.791,4.516 -8.181,-2.683 -12.786,-13.333c-6.913,14.451 -10.754,10.15 -25.569,16.548c-7.477,1.217 -7.303,2.247 -12.758,1.059c-14.695,-3.199 9.547,-10.947 11.297,-21.165c2.1,-12.263 -6.602,-16.142 -6.889,-16.842Z" style="fill:#2e3442;"/><path d="M3839.376,2621.596c67.754,-9.96 98.371,47.703 83.415,55.29c-31.658,16.06 -51.565,52.168 -55.281,57.439c-12.911,18.313 -33.413,-39.446 -82.83,-55.783c-12.755,-4.217 16.735,-46.497 54.696,-56.946Z" style="fill:#080709;"/><path d="M3193.109,1997.283c20.891,-24.418 20.977,-23.815 26.641,-32.074c10.891,-15.882 39.517,14.493 43.054,24.926c23.318,68.779 -8.964,92.518 -17.219,101.031c-18.826,19.414 -25.262,14.144 -41.645,-7.073c-38.315,-49.621 -44.236,-44.311 -46.649,-49.166c-1.85,-3.722 -0.389,-4.346 35.818,-37.644Z" style="fill:#08080a;"/><path d="M4210.367,1998.061c85.765,30.327 240.374,36.667 199.373,47.977c-4.837,1.334 -5.593,-4.655 -61.971,9.656c-49.798,12.641 -50.192,9.52 -99.533,23.185c-0.029,-1.054 -7.636,-4.102 -0.319,-11.772c9.266,-9.714 -3.657,-4.554 -16.724,-2.139c-14.119,2.609 -9.353,7.72 -7.536,18.322c-14.994,3.889 -14.831,3.144 -29.87,6.417c0.095,-7.831 -0.234,-7.871 0.102,-8.457c0.856,-1.491 6.719,-2.755 -2.974,-13.308c-1.385,-5.867 -1.177,-5.581 -0.259,-11.519c1.991,-6.498 4.402,-5.349 4.732,-12.255c0.237,-4.955 0.547,-4.885 -0.178,-5.553c-6.434,-5.925 2.445,-25.149 3.879,-27.394c3.34,-5.23 -0.846,-4.642 -0.617,-4.972c0,0 10.944,-7.533 11.896,-8.189Z" style="fill:#0d0d0f;"/><path d="M3812.872,1639.07c15.082,-51.36 41.21,-191.471 49.953,-156.992c12.587,49.64 15.074,71.845 15.784,78.187c0.737,6.579 6.998,23.351 7.274,25.08c5.551,34.678 14.988,42.603 17.285,83.474c-7.76,-1.768 -12.34,-5.859 -26.007,-6.077c2.523,-7.753 1.508,-8.33 4.753,-9.921c12.129,-5.947 -4.98,-11.676 -13.171,-9.108c-12.046,3.777 -12.161,5.488 -16.193,3.226c-11.763,-6.598 -16.826,11.17 -23.549,-0.504c-1.489,-2 -0.173,-5.293 -1.662,-7.293c-0.897,-1.205 -3.137,-1.659 -4.421,-0.878c-1.803,1.097 -1.054,5.318 -3.157,5.487c-2.767,0.222 -4.12,-4.903 -6.887,-4.68Z" style="fill:#0f0f12;"/><path d="M3884.958,2284.478c-2.484,0.139 -4.968,0.278 -7.452,0.417c-0.934,-1.705 -1.869,-3.41 -2.803,-5.114c-4.845,-22.053 -16.835,-15.623 -21.187,-14.428c-18.101,-2.068 -17.64,1.875 -17.127,3.17c0.571,1.441 2.293,-0.098 13.489,13.909c-4.772,3.552 -4.58,3.17 -10.027,4.256c-1.28,-0.85 -31.829,-21.125 -19.19,-0.762c0.587,0.946 0.831,0.609 11.224,8.227c-1.231,0.854 -12.75,8.841 -17.489,6.696c-5.304,-2.4 -5.151,-3.912 -8.146,-1.783c-5.226,3.714 -5.701,1.487 -11.647,3.039c0.174,-5.943 1.265,-43.195 25.257,-69.899c32.985,-36.713 37.985,-29.299 39.142,-28.329c52.283,43.883 52.189,81.516 52.168,89.826c-2.683,-2.762 -5.367,-5.524 -8.05,-8.287c-1.029,-0.634 -0.007,-2.841 -1.036,-3.474c-1.243,-0.765 -3.029,-0.419 -4.376,0.143c-1.591,0.663 -2.263,3.013 -3.957,3.331c-2.897,0.544 -5.895,-1.481 -8.792,-0.938Z" style="fill:#2e3036;"/><path d="M4748.773,2847.482c10.138,25.473 12.339,46.331 12.776,50.473c-9.197,-1.406 -8.943,-1.228 -17.46,-4.796c-1.33,-2.512 -2.66,-5.024 -3.991,-7.536c-2.634,-8.843 -1.808,-13.972 -9.883,-9.648c-4.315,2.31 1.058,7.217 1.518,7.637c-14.348,4.807 -18.112,-3.249 -27.224,8.868c-0.308,0.409 -0.456,0.116 -5.541,3.196c-6.412,3.885 -3.722,5.34 -4.389,6.601c-11.984,2.353 -12.544,0.83 -16.776,4.971c-8.486,8.304 -12.031,13.955 -17.215,3.041c-0.581,-1.223 -5.454,-11.482 -5.375,-16.044c0.02,-1.138 1.703,-2.749 0.728,-3.337c-2.279,-1.376 -5.644,0.37 -7.923,-1.005c0.25,-4.214 0.47,-3.77 0.493,-8.314c0.069,-13.394 -12.247,-25.375 -0.997,-24.196c6.351,0.665 5.634,7.743 10.706,3.837c0.496,-0.382 -1.137,-1.534 4.753,-6.218c8.868,-7.053 56.641,23.658 59.891,17.804c1.203,-2.166 -7.688,-7.676 3.775,-9.643c0.377,-0.065 9.665,-4.562 10.502,-4.967c5.531,0.727 7.714,3.701 8.686,-1.955c0.81,-4.714 1.365,-4.065 2.944,-8.768Z" style="fill:#121317;"/><path d="M3830.579,1671.386c3.032,3.246 6.065,6.491 9.097,9.737l0.113,2.222c-6.132,10.199 -8.946,12.827 -9.938,13.753c-2.471,2.307 -0.928,2.528 1.986,11.53c-13.401,5.716 -9.967,13.498 4.174,17.63c7.321,2.139 3.753,6.445 4.223,7.254c4.634,8.973 4.596,8.92 5.004,9.691c5.584,10.547 17.435,10.371 13.605,1.013c-4.094,-10.002 0.044,-9.687 6.119,-12.437c1.225,-0.554 7.119,-6.963 7.996,-7.415c6.034,-3.108 4.899,1.581 6.064,1.957c-2.265,11.934 -7.692,9.702 -9.678,21.691c-2.55,15.396 -22.338,7.806 -17.782,20.806c1.359,3.876 -5.043,17.701 -16.258,-0.018c-0.778,-0.599 -0.81,-9.373 -12.544,-4.476c-0.584,0.244 -2.392,0.998 -6.645,4.303c-1.584,-2.334 -5.176,-2.756 -6.76,-5.09c-0.615,-0.907 1.072,-1.962 1.24,-3.045c1.623,-10.482 0.876,-10.443 1.252,-11.268c2.41,-5.296 3.388,-6.18 -1.43,-9.404c-7.775,-5.203 -1.935,-6.691 3.269,-14.491c0.033,-1.436 0.376,-16.426 1.577,-17.884c12.771,-15.514 3.603,-20.022 15.317,-36.058Z" style="fill:#30303a;"/><path d="M3486.105,1289.785c28.225,18.27 22.635,23.93 20.248,24.871c-0.711,0.281 -5.02,1.981 -8.983,-3.267c-1.887,-2.499 -2.972,-4.464 -3.783,-1.152c-3.673,15.004 -4.092,14.764 -3.542,16.759c2.988,10.844 -7.857,10.037 -4.151,20.584c2.911,8.287 -1.702,8.28 -0.036,17c1.253,6.558 -7.22,12.636 -5.008,13.952c2.006,1.193 2.223,-3.605 29.171,-0.059c13.447,1.769 -6.742,12.325 -8.693,15.278c-11.627,17.588 -21.344,-0.158 -26.114,8.333c-2.928,5.212 -3.78,4.023 -7.866,8.371c0.141,-2.861 -4.023,-70.331 18.758,-120.67Z" style="fill:#85817f;"/><path d="M4648.019,2889.903c2.279,1.376 5.644,-0.37 7.923,1.005c0.975,0.588 -0.709,2.199 -0.728,3.337c-0.079,4.562 4.794,14.821 5.375,16.044c5.184,10.914 8.729,5.262 17.215,-3.041c4.231,-4.14 4.792,-2.617 16.776,-4.971c4.362,6.771 3.699,7.758 11.615,9.137c13.418,2.336 17.956,7.703 21.928,-5.645c3.769,2.835 7.537,5.67 11.306,8.506c-1.715,1.353 -2.101,-0.882 -3.929,0.56c-0.788,0.622 -0.352,0.849 -4.808,11.587c-5.818,8.838 -5.93,8.952 -3.838,19.049c-45.249,-11.836 -45.044,-11.353 -88.104,-29.298c8.429,-6.112 15.051,-17.817 4.866,-18.041c-35.27,-0.774 3.656,-8.21 4.403,-8.229Z" style="fill:#1b1d24;"/><path d="M4068.22,1984.165c5.127,-1.689 22.83,-7.52 67.342,-4.342c3.404,0.243 2.775,3.061 41.684,9.053c1.36,0.209 1.217,0.377 16.429,5.089c-0.743,1.225 -0.96,0.515 -10.86,14.242c-0.493,-0.319 -16.123,-21.415 -18.572,6.386c-0.635,1.793 -3.291,2.347 -3.927,4.139c-0.443,1.251 1.681,2.63 1.104,3.825c-4.562,9.451 -7.368,4.131 -16.891,0.282c1.403,-4.524 1.64,-4.19 2.794,-9.011c0.85,-3.548 12.931,-3.399 6.005,-8.701c-7.079,-5.42 -7.309,-0.773 -14.299,4.479c-3.017,2.266 -3.123,0.59 -7,1.321c0.496,-1.636 5.419,-17.896 1.165,-21.342c-4.064,-3.291 -4.039,0.001 -13.621,6.222c-2.278,0.123 -3.692,-3.471 -5.97,-3.348c-2.658,0.144 -4.381,3.145 -6.887,4.042c-4.137,1.481 -9.999,-5.874 -15.885,-0.685c-3.491,3.078 -0.606,6.318 -0.61,6.323c-1.571,1.642 -4.701,4.913 -22.002,-17.973Z" style="fill:#27282f;"/><path d="M4594.744,1223.02c2.954,-0.913 1.731,-5.801 11.299,-3.494c9.007,2.171 8.566,8.673 16.857,7.433c16.921,-2.531 14.885,3.788 16.568,4.793c-3.317,6.132 3.304,8.422 -2.427,12.938c-25.208,19.863 9.996,12.014 11.266,11.731c2.369,3.853 1.332,4.138 4.477,7.28c13.155,13.145 16.891,7.831 16.986,9.381c0.169,2.741 -19.829,4.875 -21.593,5.064c-5.831,0.622 0.339,13.426 0.842,14.471c-0.648,0.966 -5.374,8.011 -9.099,11.336c-6.419,5.729 -3.956,-7.131 -12.48,-7.057c-2.778,0.024 -1.675,-1.377 -3.893,-3.201c10.382,-11.925 12.943,-9.636 12.664,-10.945c-0.175,-0.825 -0.474,-0.598 -5.23,-9.148c-4.475,-8.044 -6.774,-1.728 -15.734,-1.045c0.705,-6.614 3.682,-5.268 4.639,-11.869c2.566,-17.708 -24.488,-6.346 -19.744,-23.846c-3.566,-6.864 -4.442,-6.239 -5.397,-13.821Z" style="fill:#161a20;"/><path d="M3547.76,1999.149c1.482,1.758 1.206,1.658 2.928,3.472c8.084,8.516 15.685,-0.529 15.517,6.81c-0.042,1.835 -2.736,3.484 -1.958,5.146c0.115,0.245 8.161,0.245 8.585,-0.034c5.108,-3.357 5.002,-5.425 11.585,-2.574c0.805,0.349 1.415,1.066 2.22,1.415c-0.513,1.225 -8.755,4.438 -0.136,13.257c10.941,11.195 -3.661,10.674 -8.636,25.478c-4.719,14.044 -12.42,5.377 -23.235,15.464c-14.975,13.966 -10.051,-9.816 -9.813,-10.968c4.095,-19.78 1.729,-19.889 2.375,-21.494c0.83,-2.062 21.295,-18.78 -3.522,-20.105c-6.019,-0.321 -3.285,-3.167 -4.461,-4.301c0.945,-2.351 -2.206,-1.871 -1.256,-4.232c0.365,-0.909 0.718,-0.537 9.808,-7.333Z" style="fill:#2f3442;"/><path d="M3794.585,2306.276c9.048,6.259 9.712,4.241 20.079,7.695c7.335,2.443 0.986,6.381 0.994,6.435c-0.843,0.453 -9.791,5.26 -5.213,10.759c1.558,1.871 2.516,3.022 28.72,-10.076c0.937,1.193 3.614,-1.237 4.551,-0.044c3.655,4.654 0.586,4.999 -3.497,14.961c-1.053,1.966 -2.105,3.933 -3.158,5.899c4.021,5.489 7.785,5.123 4.063,11.08c-6.585,10.541 20.067,13 8.085,16.906c-20.419,6.655 -13.198,-11.542 -17.966,-13.611c-6.049,-2.624 -7.816,4.828 -28.332,-0.077c-4.095,-25.111 -7.025,-24.469 -8.326,-49.927Z" style="fill:#1b1c1f;"/><path d="M4690.144,1176.58c4.605,10.651 1.995,17.849 12.786,13.333c1.382,-0.578 -0.09,-3.726 1.292,-4.305c2.012,2.653 4.024,5.305 6.037,7.958c-7.844,5.308 -7.66,5.628 -8.471,5.733c-4.02,0.521 -4.992,-2.947 -11.505,2.931c-6.49,5.857 -2.685,7.629 -6.103,15.761c-2.779,6.612 -1.981,6.776 1.231,13.271c-0.62,0.026 -15.787,0.673 -3.177,7.082c1.833,0.931 4.909,-0.128 5.942,1.65c0.99,1.703 -2.68,3.961 -1.689,5.664c-0.075,0.553 -3.963,1.877 -0.867,6.411c0.536,0.784 0.622,0.621 8.4,8.389c-3.481,6.847 -3.493,6.428 -7.982,12.591c-0.805,-0.981 -10.058,-12.257 -10.058,-12.257c-0.567,-2.798 -1.496,-2.047 -3.252,-4.451c-5.972,-14.535 -9.639,-13.617 -8.647,-29.036c10.447,-11.487 18.668,-12.566 8.352,-24.346c-0.663,-0.757 -0.245,-0.605 -7.859,-9.831c14.815,-6.399 18.656,-2.097 25.569,-16.548Z" style="fill:#293442;"/><path d="M4730.518,2895.029c14.196,9.442 14.577,8.445 31.621,10.883c5.832,23.51 5.809,23.356 6.299,25.391c5.88,24.422 -14.502,15.63 -41.583,14.169c-2.092,-10.097 -1.98,-10.211 3.838,-19.049c11.245,3.258 16.347,8.054 17.271,-3.559c0.747,-0.734 2.114,2.032 2.861,1.298c10.582,-10.389 -6.48,-10.251 -7.496,-10.242l-3.9,0.355c-3.769,-2.835 -7.537,-5.67 -11.306,-8.506c-3.988,-7.109 -4.096,-7.006 -4.307,-7.678c-1.568,-4.976 1.396,-3.83 6.703,-3.063Z" style="fill:#22252e;"/><path d="M3953.696,2498.988c-5.1,14.136 1.192,24.928 -12.665,19.762c-8.987,-3.35 -10.557,1.768 -17.697,-4.638c-9.279,-8.325 2.782,-19.026 4.009,-20.115c2.915,-2.586 1.414,-23.595 12.279,-21.195c15.038,3.322 25.588,-12.073 21.856,0.121c-5.394,17.625 -7.583,16.907 -7.783,26.065Z" style="fill:#1d1c21;"/><path d="M4164.242,2014.592c3.188,0.651 6.377,1.303 9.565,1.954c-1.125,3.667 0.321,7.089 -6.901,13.081c-4.295,3.564 -5.627,4.815 -1.191,8.073c11.769,8.643 8.946,23.805 19.322,13.359c6.747,-6.793 5.194,3.069 5.618,5.363c-0.918,5.938 -1.125,5.652 0.259,11.519c-0.943,0.474 -3.918,9.357 -14.98,1.998c-8.323,-5.537 -0.085,-20.741 -23.922,-17.399c-28.715,2.871 -13.124,-15.52 -7.486,-29.704c9.522,3.849 12.329,9.17 16.891,-0.282c0.577,-1.195 -1.547,-2.574 -1.104,-3.825c0.635,-1.793 3.291,-2.347 3.927,-4.139Z" style="fill:#1f242c;"/><path d="M4193.674,1993.965c8.399,1.871 7.956,2.131 16.693,4.097c-0.952,0.655 -11.896,8.189 -11.896,8.189c-0.228,0.329 3.957,-0.258 0.617,4.972c-1.434,2.245 -10.313,21.469 -3.879,27.394c0.725,0.668 0.415,0.598 0.178,5.553c-0.33,6.906 -2.742,5.756 -4.732,12.255c-0.424,-2.295 1.129,-12.156 -5.618,-5.363c-10.376,10.446 -7.552,-4.716 -19.322,-13.359c-4.436,-3.258 -3.105,-4.51 1.191,-8.073c7.222,-5.992 5.775,-9.414 6.901,-13.081c4.435,-4.435 4.635,-3.816 9.007,-8.34c9.899,-13.727 10.117,-13.016 10.86,-14.242Z" style="fill:#14171c;"/><path d="M4179.55,1213.849c4.966,6.488 6.998,5.608 6.891,13.959c-8.092,9.831 -10.943,5.133 -21.812,11.844c-11.572,0.223 -11.83,-0.861 -15.563,1.643c-5.644,3.786 -4.215,-1.788 -8.849,-6.55c-11.608,-11.928 21.615,-42.872 29.056,-24.527c0.348,0.859 4.381,10.803 7.802,8.563c1.539,-1.008 0.936,-3.924 2.475,-4.932Z" style="fill:#93908f;"/><path d="M3849.878,2282.431c1.494,-0.335 1.895,-0.425 19.133,-0.498l5.692,-2.153c0.934,1.705 1.869,3.41 2.803,5.114c-14.32,10.024 -13.082,11.263 -28.348,19.673c-16.245,-7.13 -16.958,15.714 -30.345,18.28c-1.306,0.25 -1.848,-2.692 -3.154,-2.442c-0.008,-0.054 6.341,-3.992 -0.994,-6.435c-10.368,-3.454 -11.032,-1.436 -20.079,-7.695l0.018,-4.172c5.947,-1.551 6.421,0.675 11.647,-3.039c2.996,-2.129 2.842,-0.617 8.146,1.783c4.739,2.144 16.258,-5.843 17.489,-6.696c4.416,-3.677 4.129,-3.486 7.966,-7.465c5.447,-1.085 5.254,-0.704 10.027,-4.256Z" style="fill:#1c1d25;"/><path d="M3999.857,1515.206c1.902,-0.541 22.605,-6.43 23.095,8.816c0.005,0.143 -3.2,-2.446 -3.425,1.866c-0.582,11.135 -5.132,8.644 -5.117,9.507c0.066,3.985 17.973,9.525 20.624,7.821c4.068,-2.614 0.19,-5.226 4.148,-8.056c1.338,-0.957 1.241,0.028 4.689,4.172c3.063,3.682 10.98,-0.243 7.152,8.274c-5.059,11.255 -1.382,20.723 -12.028,14.599c-5.492,-3.159 -7.568,-0.374 -11.363,-6.208c-4.423,-6.798 -6.26,-4.099 -13.1,-8.03l-4.84,-4.019c-14.125,-11.625 -19.76,-13.5 -9.834,-28.742Z" style="fill:#63625e;"/><path d="M3833.572,1664.312c0.164,-0.255 1.161,-4.267 5.279,-8.217c5.712,-5.48 6.226,-1.584 9.521,-0.417c21.386,7.578 20.877,8.137 22.788,8.506c0.803,1.545 8.291,15.95 -6.755,20.697c-9.14,2.884 -8.501,4.371 -8.925,13.758c-2.671,-0.41 -5.342,-0.819 -8.013,-1.229c1.175,-13.723 2.088,-14.481 0.44,-14.925c-1.363,-0.366 -2.838,0.887 -4.201,0.521l-4.03,-1.882c-3.032,-3.246 -6.065,-6.491 -9.097,-9.737l2.994,-7.074Z" style="fill:#161a21;"/><path d="M3446.649,2371.065c7.021,4.758 31.668,13.615 1.456,23.135c-10.204,3.215 -15.672,9.619 -16.305,9.623c-6.642,0.048 -6.499,-1.776 -13.05,0.347c-1.403,0.455 -3.53,1.144 -17.027,-7.079c22.851,-12.425 22.858,-11.703 44.926,-26.026Z" style="fill:#ece6e8;"/><path d="M4152.014,2052.542c23.836,-3.342 15.598,11.862 23.922,17.399c11.062,7.359 14.037,-1.524 14.98,-1.998c9.693,10.553 3.83,11.816 2.974,13.308c-0.337,0.587 -0.008,0.626 -0.102,8.457l-8.722,2.79c-10.501,-10.341 -9.113,-20.368 -15.014,-13.427c-0.125,0.147 -1.556,8.757 -9.576,3.872c-7.155,-4.358 -8.308,-3.763 -10.057,-11.772c1.584,-9.531 1.421,-9.106 1.597,-18.629Z" style="fill:#272930;"/><path d="M2996.358,1219.035c13.163,-16.152 13.977,-15.71 14.058,-18.851c0.031,-1.202 -6.028,-1.129 -0.742,-6.948c2.804,-3.087 3.404,-4.413 5.783,-1.216c3.207,4.311 27.678,7.956 7.244,13.641c-6.514,1.812 -2.125,12.674 -2.096,12.713c0.594,0.793 1.071,-0.307 10.891,5.898c-6.073,10.94 -4.471,21.117 -13.439,12.661c-7.726,-7.284 -6.788,-9.186 -11.806,-8.752c-2.242,0.194 -3.472,3.402 -5.713,3.596c-1.393,-4.247 -2.785,-8.494 -4.178,-12.741Z" style="fill:#1a1f24;"/><path d="M4731.734,2883.612c2.788,0.67 5.577,1.341 8.365,2.011c1.33,2.512 2.66,5.024 3.991,7.536c-4.524,0.623 -9.047,1.246 -13.571,1.869c-5.307,-0.767 -8.271,-1.913 -6.703,3.063c0.212,0.672 0.319,0.569 4.307,7.678c-3.972,13.347 -8.509,7.981 -21.928,5.645c-7.916,-1.378 -7.253,-2.366 -11.615,-9.137c0.667,-1.261 -2.023,-2.717 4.389,-6.601c5.085,-3.08 5.233,-2.787 5.541,-3.196c9.111,-12.117 12.875,-4.061 27.224,-8.868Z" style="fill:#212731;"/><path d="M3829,1646.434c6.723,11.674 11.786,-6.094 23.549,0.504c4.032,2.262 4.148,0.551 16.193,-3.226c8.191,-2.568 25.3,3.161 13.171,9.108c-3.245,1.591 -2.23,2.169 -4.753,9.921l-6.001,1.443c-1.911,-0.369 -1.402,-0.928 -22.788,-8.506c-3.294,-1.167 -3.808,-5.064 -9.521,0.417c-4.118,3.95 -5.115,7.962 -5.279,8.217c-0.854,-0.21 -10.671,-2.625 -10.671,-2.625c-5.402,-3.078 -1.004,-4.242 6.098,-15.254Z" style="fill:#26282e;"/><path d="M3922.921,2018.924c6.99,-0.437 7.086,-0.146 12.684,-4.275c5.704,-4.207 -1.35,-7.312 3.67,-12.555c20.88,-21.805 36.439,35.148 16.56,25.849c-15.77,-7.376 -17.229,-2.035 -32.914,-9.02Z" style="fill:#938e8b;"/><path d="M4247.917,1306.998c-3.203,4.977 -2.702,7.722 -45.858,15.695c-12.836,2.371 -11.809,-19.797 3.997,-18.018c0.94,0.106 23.063,0.114 25.069,0.115c8.681,0.003 8.348,0.533 16.792,2.208Z" style="fill:#7c7a76;"/><path d="M3246.315,2465.821c-12.395,-16.032 -29.42,38.81 -34.767,13.941c-2.378,-11.059 7.034,-9.152 6.681,-20.481c-0.04,-1.282 7.557,-2.11 8.854,-3.033c0.261,-0.186 34.946,-10.325 33.749,4.191c-0.102,1.234 -0.355,4.306 -14.516,5.382Z" style="fill:#e9e7e9;"/><path d="M4119.574,1995.805c9.582,-6.221 9.557,-9.513 13.621,-6.222c4.254,3.445 -0.67,19.705 -1.165,21.342c-1.146,1.622 -17.768,25.166 -24.004,6.336c-3.765,-11.369 -2.358,-13.077 8.414,-18.091c0.334,-0.155 0,-0 3.134,-3.365Z" style="fill:#262835;"/><path d="M2958.08,2487.777c11.768,4.631 5.226,10.508 14.32,19.451c3.433,3.375 1.176,11.821 -3.472,12.088c-3.255,0.187 -6.832,-4.089 -11.261,0.085c-12.57,11.849 -9.549,-7.413 -9.785,-8.981c-2.006,-13.346 1.427,-12.554 10.198,-22.643Z" style="fill:#e5e5e5;"/><path d="M4454.16,1668.08c-8.663,0.173 -15.358,-6.804 -22.476,8.622c-1.077,0.243 -29.427,6.638 -12.003,-6.809c4.896,-3.779 0.581,-8.919 8.177,-12.578c7.464,-3.596 6.565,-9.143 7.024,-9.623c4.734,-4.95 9.216,3.069 9.619,3.791c4.174,7.469 6.632,0.748 7.484,0.793c5.902,0.317 2.473,14.563 2.174,15.804Z" style="fill:#9c9894;"/><path d="M3877.506,2284.895c2.484,-0.139 4.968,-0.278 7.452,-0.417c2.897,-0.544 5.895,1.481 8.792,0.938c1.695,-0.318 2.366,-2.667 3.957,-3.331c1.347,-0.562 3.133,-0.908 4.376,-0.143c1.029,0.634 0.007,2.841 1.036,3.474c-9.631,13.853 -9.116,23.548 -22.972,14.138c-13.155,-8.934 -10.311,7.165 -26.455,12.425c-1.512,-2.47 -3.024,-4.941 -4.536,-7.411c15.267,-8.41 14.029,-9.648 28.348,-19.673Z" style="fill:#1c1c25;"/><path d="M4186.442,1227.808c12.387,-1.285 13.567,2.757 10.533,15.037c-1.344,5.44 -9.729,5.598 -11.045,6.627c-5.784,4.521 -6.009,3.22 -13.419,4.413c-1.445,0.233 -2.667,3.317 -3.731,2.313c-0.036,-0.034 -3.82,-15.223 -4.15,-16.547c10.869,-6.711 13.721,-2.012 21.812,-11.844Z" style="fill:#7f7c79;"/><path d="M3857.48,1701.367c9.118,11.968 1.853,12.582 -6.132,25.502c-3.564,5.767 -4.661,4.116 -11.114,6.642c-0.471,-0.808 3.098,-5.115 -4.223,-7.254c-14.141,-4.132 -17.575,-11.914 -4.174,-17.63c6.766,7.615 10.783,8.516 14.246,-1.149c1.618,0.325 1.124,4.069 5.627,1.129c0.62,-0.405 0.427,-0.536 5.77,-7.241Z" style="fill:#20222b;"/><path d="M4348.301,1491.919c7.28,0.703 7.329,0.396 13.146,4.741c8.997,6.72 2.85,9.092 2.91,12.494c-0.247,0.066 -3.874,-0.919 -7.864,2.084c-10.522,7.919 -9.73,-1.578 -12.476,-5.178c-5.902,-7.734 -13.375,1.193 -15.586,-8.548c9.886,-8.72 10.023,-8.285 10.756,-9.144c5.237,-6.141 8.036,2.82 9.114,3.551Z" style="fill:#1b1f29;"/><path d="M4737.064,2818.094c7.116,14.595 6.798,14.295 11.71,29.388c-1.579,4.702 -2.134,4.054 -2.944,8.768c-0.973,5.657 -3.156,2.683 -8.686,1.955c-1.873,-3.422 0.306,-3.766 -1.726,-7.479c-0.195,-0.356 -0.954,-1.743 -4.041,-3.057c-6.282,-2.673 -8.298,-2.998 -5.647,-9.239c0.201,-0.472 -3.916,-2.902 11.335,-20.337Z" style="fill:#191a20;"/><path d="M4398.48,2721.177c-2.125,-1.418 -4.985,-8.147 -12.826,-6.084c-18.047,4.749 -15.8,-40.79 -5.092,-23.477c5.286,8.546 7.517,6.205 14.039,14.072c3.889,4.691 25.316,7.149 6.84,18.235l-2.962,-2.747Z" style="fill:#353a45;"/><path d="M4208.43,2537.983c15.229,29.301 -13.053,5.995 -18.438,4.649c-14.068,-3.517 -2.753,-16.196 3.761,-15.573c10.212,0.977 36.102,0.433 14.677,10.925Z" style="fill:#797573;"/><path d="M4653.511,2370.809c-1.904,9.708 -1.457,9.874 -2.056,10.484c-1.948,1.984 -5.712,0.371 -8.173,1.664c-0.699,0.367 1.345,1.083 1.461,1.863c0.148,1 1.314,8.856 -5.159,11.539c-9.881,4.095 -8.345,6.374 -9.239,6.504c-1.973,0.287 -2.078,-3.409 -2.961,-5.197c-2.434,-4.931 -0.905,-5.17 3.866,-7.13c9.547,-3.922 3.184,-7.392 2.802,-9.452c-0.308,-1.659 0.784,-24.241 8.815,-18.593c5.598,3.937 4.296,5.408 10.644,8.319Z" style="fill:#7f7c79;"/><path d="M3849.157,2304.568c1.512,2.47 3.024,4.941 4.536,7.411c-8.361,2.534 -8.18,2.751 -14.527,9.11c-26.204,13.098 -27.162,11.947 -28.72,10.076c-4.579,-5.499 4.37,-10.306 5.213,-10.759c1.306,-0.25 1.848,2.692 3.154,2.442c13.387,-2.567 14.1,-25.411 30.345,-18.28Z" style="fill:#2c2d33;"/><path d="M4211.379,2174.223c-15.623,8.949 -10.343,12.473 -9.194,13.028c2.687,1.297 5.64,-2.306 8.622,-2.407c11.367,-0.387 -4.194,5.144 -4.226,16.518c-7.415,0.376 -9.23,3.828 -12.271,-2.849c-2.749,-6.035 1.983,-7.063 -1.761,-12.611c-2.698,-3.997 -0.164,-4.017 0.985,-8.891c2.656,-11.265 6.975,-6.984 17.845,-2.787Z" style="fill:#333439;"/><path d="M3843.706,1683.006c1.363,0.366 2.838,-0.887 4.201,-0.521c1.648,0.443 0.735,1.202 -0.44,14.925c-3.351,4.752 -3.323,4.856 -1.384,10.069c-3.463,9.665 -7.48,8.765 -14.246,1.149c-2.914,-9.002 -4.456,-9.222 -1.986,-11.53c0.992,-0.927 3.806,-3.554 9.938,-13.753l3.917,-0.339Z" style="fill:#2e313b;"/><path d="M4248.236,2078.879c-12.579,1.088 -12.338,0.944 -24.579,4.411c-1.817,-10.602 -6.583,-15.713 7.536,-18.322c13.067,-2.415 25.99,-7.575 16.724,2.139c-7.316,7.67 0.291,10.718 0.319,11.772Z" style="fill:#19191b;"/><path d="M3087.917,2184.554c6.762,5.813 9.674,4.275 9.754,13.461c0.064,7.346 2.312,6.605 2.264,7.207c-0.903,11.349 -3.985,9.828 -11.648,18.454c-7.156,-19.784 -3.997,-25.013 -0.369,-39.122Z" style="fill:#535049;"/><path d="M4639.467,1231.752l4.713,-0.914l4.146,3.844c3.75,4.904 5.704,10.402 6.049,11.374c-2.023,3.455 -4.047,6.91 -6.07,10.366c-1.27,0.283 -36.474,8.132 -11.266,-11.731c5.731,-4.516 -0.889,-6.806 2.427,-12.938Z" style="fill:#070d13;"/><path d="M4664.082,1227.305c-0.993,15.419 2.675,14.501 8.647,29.036c-8.615,5.053 -14.017,5.649 -12.3,-4.257c1.034,-5.971 5.871,-7.807 0.187,-9.677c-2.288,-0.753 -3.951,4.401 -6.239,3.648c-0.345,-0.971 -2.299,-6.469 -6.049,-11.374c6.33,-7.102 6.16,-8.802 15.755,-7.377Z" style="fill:#121a21;"/><path d="M4370.498,1870.75c-3.451,9.234 -0.268,9.357 -0.583,10.103c-8.719,20.622 -28.419,-35.922 -15.735,-30.513c1.923,0.82 1.01,1.619 16.318,20.411Z" style="fill:#625f59;"/><path d="M3060.163,2718.537c2.601,1.966 6.146,2.413 8.747,4.38c2.971,2.246 6.211,15.125 -4.698,15.016c-6.547,-0.065 -5.889,1.203 -10.412,5.817c-3.599,-1.574 -7.198,-3.147 -10.797,-4.721c8.586,-10.76 8.362,-10.377 17.16,-20.492Z" style="fill:#16161b;"/><path d="M4704.222,1185.608c-0.086,-18.507 -26.925,-27.155 -8.23,-26.439c10.337,0.396 8.405,4.185 18.8,17.579c6.216,8.01 1.515,8.447 -4.533,16.818c-2.012,-2.653 -4.024,-5.305 -6.037,-7.958Z" style="fill:#353a4b;"/><path d="M4703.215,1252.282c0.749,2.163 10.062,29.067 -5.901,27.992c-2.425,-0.163 -0.744,-2.292 -3.494,-2.853c-0.74,-0.151 -0.636,0.291 -8.584,3.933c0.267,-2.769 0.535,-5.537 0.802,-8.306c4.489,-6.163 4.502,-5.744 7.982,-12.591c5.053,-4.034 4.248,-4.338 9.195,-8.176Z" style="fill:#2a3242;"/><path d="M4428.132,2793.795c-3.001,6.173 -0.934,7.032 -5.839,12.013c-9.65,9.798 -20.682,-2.626 -12.346,-12.529c13.886,-16.494 15.909,-2.078 18.185,0.516Z" style="fill:#262938;"/><path d="M3044.494,1218.699c9.54,0.952 10.027,4.233 18.137,-1.315c0.863,-0.59 23.187,-15.865 13.071,0.123c-11.138,17.602 -15.152,11.857 -36.228,10.747c1.673,-3.185 3.347,-6.369 5.02,-9.554Z" style="fill:#171c24;"/><path d="M3347.521,1840.518c4.322,16.12 4.938,15.983 4.664,17.397c-0.338,1.749 -2.785,-2.691 -7.899,3.034c-10.891,12.192 -4.683,-5.475 -7.116,-16.805c-1.601,-7.455 -7.415,-8.44 -7.602,-8.728c-0.813,-1.252 3.33,-14.296 17.953,5.101Z" style="fill:#565753;"/><path d="M4454.16,1668.08c0.177,4.636 -0.629,4.4 -5.847,17.604c-2.918,7.384 -5.359,2.1 -16.629,-8.982c7.119,-15.426 13.813,-8.449 22.476,-8.622Z" style="fill:#a0a09e;"/><path d="M3853.516,2265.353c1.084,2.067 -1.936,3.699 3.264,6.226c7.418,3.607 6.55,4.214 12.231,10.355c-17.238,0.072 -17.639,0.162 -19.133,0.498c-11.196,-14.007 -12.917,-12.468 -13.489,-13.909c-0.514,-1.295 -0.974,-5.238 17.127,-3.17Z" style="fill:#21252f;"/><path d="M4392.576,2156.85c11.11,-20.408 9.21,2.479 9.059,3.233c-1.552,7.734 -2.29,7.641 -1.072,9.509c10.244,15.721 -19.974,6.687 -13.422,-3.361c3.092,-4.743 4.035,-4.022 5.436,-9.381Z" style="fill:#5c5d56;"/><path d="M4316.747,1987.453c-2.948,-10.908 -9.39,-20.878 -1.133,-26.519c12.992,-8.876 8.314,7.136 9.417,8.281c1.112,1.154 5.847,6.07 -8.284,18.238Z" style="fill:#2e2d33;"/><path d="M4348.301,1491.919c-1.078,-0.731 -3.876,-9.691 -9.114,-3.551c-0.733,0.859 -0.87,0.424 -10.756,9.144c-4.987,-10.255 -13.005,-15.092 -1.623,-16.651c4.086,-0.56 8.215,-0.77 12.302,-1.326c1.68,-0.229 16.504,-7.272 11.473,2.332c-2.497,4.767 -2.759,4.523 -2.282,10.052Z" style="fill:#242430;"/><path d="M4615.247,1272.555c8.96,-0.683 11.259,-6.999 15.734,1.045c4.756,8.55 5.055,8.323 5.23,9.148c0.279,1.31 -2.282,-0.98 -12.664,10.945c-6.917,-7.591 -7.394,-7.304 -7.46,-8.187c0,0 -0.772,-11.915 -0.839,-12.951Z" style="fill:#0d0f15;"/><path d="M3672.637,2367.396c-6.352,-12.953 2.153,-11.29 12.607,-21.113c27.085,-25.451 4.223,9.024 3.696,9.663c-9.333,11.315 -11.015,8.582 -16.303,11.45Z" style="fill:#ebe7e3;"/><path d="M4697.935,1235.344c11.166,1.98 7.86,6.162 5.28,16.938c-4.947,3.837 -4.142,4.142 -9.195,8.176c-7.777,-7.767 -7.864,-7.605 -8.4,-8.389c-3.096,-4.534 0.792,-5.858 0.867,-6.411c8.069,-2.378 7.68,-3.113 11.448,-10.314Z" style="fill:#172233;"/><path d="M4098.148,1512.273c-4.978,-0.217 -4.866,-0.733 -9.689,0.874c-1.412,0.692 -19.248,9.433 -19.433,-2.948c-0.202,-13.495 8.567,-3.297 15.18,-5.512c10.278,-3.444 12.833,6.504 13.942,7.586Z" style="fill:#585955;"/><path d="M4730.518,2895.029c4.524,-0.623 9.047,-1.246 13.571,-1.869c8.517,3.568 8.263,3.39 17.46,4.796l0.589,7.956c-17.044,-2.438 -17.425,-1.442 -31.621,-10.883Z" style="fill:#2a2e33;"/><path d="M4102.068,1547.005c6.503,12.674 1.652,13.781 0.556,14.031c-7.914,1.806 -10.399,7.385 -13.438,-0.34c-0.239,-0.608 -1.553,-3.947 1.012,-8.099c4.722,-7.646 11.441,-5.391 11.87,-5.593Z" style="fill:#737370;"/><path d="M4317.447,1569.049c-3.357,-11.633 -7.543,-8.022 -7.63,-8.959c-0.201,-2.172 3.566,-2.54 5.51,-3.529c5.427,-2.762 2.794,-4.663 3.238,-4.59c2.083,0.344 2.444,3.705 4.356,4.599c1.295,0.606 2.895,-1.026 4.252,-0.573c1.581,0.528 1.478,7.362 1.468,8.014c-0.212,14.021 -7.054,6.543 -11.194,5.039Z" style="fill:#242a37;"/><path d="M3127.527,2111.123c4.718,0.378 4.736,-0.198 8.483,3.063c-1.095,2.124 -4.434,2.44 -5.528,4.564c-0.343,0.665 10.36,13.555 0.741,12.8c-3.268,-0.257 -11.881,-0.252 -8.741,-5.046c4.553,-6.95 -0.959,-9.243 5.045,-15.381Z" style="fill:#6b6b68;"/><path d="M3853.516,2265.353c4.352,-1.195 16.342,-7.624 21.187,14.428l-5.692,2.153c-5.681,-6.141 -4.813,-6.748 -12.231,-10.355c-5.199,-2.528 -2.18,-4.159 -3.264,-6.226Z" style="fill:#151924;"/><path d="M4563.948,2400.652c-3.076,13.883 -3.497,20.708 -16.066,13.994c-6.217,-3.321 -7.425,-7.14 -0.448,-8.674c1.54,-0.339 3.329,1.606 4.668,0.773c0.082,-0.051 -0.81,-5.962 11.846,-6.093Z" style="fill:#8e8d89;"/><path d="M4606.6,1197.409c6.373,1.122 6.027,1.18 12.683,0.089l4.821,6.829c-16.815,3.697 -12.668,9.993 -14.035,9.863c-2.042,-0.195 -7.704,-9.957 -7.925,-12.115c-0.748,-7.289 3.656,-3.828 4.456,-4.666Z" style="fill:#0f121a;"/><path d="M4391.321,1899.925c-0.089,0.326 -1.869,2.269 -1.726,6.327c0.166,4.724 -1.597,3.947 -3.276,8.098c-11.297,-13.991 -16.534,-16.556 -10.42,-17.602c0,-0 14.189,2.922 15.422,3.176Z" style="fill:#5d5951;"/><path d="M4182.815,2008.206c-4.373,4.524 -4.573,3.905 -9.007,8.34c-3.188,-0.651 -6.377,-1.303 -9.565,-1.954c2.449,-27.801 18.08,-6.705 18.572,-6.386Z" style="fill:#2f2f36;"/><path d="M4739.429,2914.275l3.9,-0.355c1.545,2.981 3.09,5.963 4.634,8.944c-0.924,11.612 -6.026,6.816 -17.271,3.559c4.455,-10.738 4.02,-10.966 4.808,-11.587c1.828,-1.442 2.214,0.793 3.929,-0.56Z" style="fill:#171b26;"/><path d="M3865.178,1623.913c1.207,-0.493 14.165,-5.787 16.108,-2.52c5.941,9.993 -14.441,23.377 -16.108,2.52Z" style="fill:#1c1c22;"/><path d="M3839.851,2286.687c-3.837,3.979 -3.55,3.788 -7.966,7.465c-10.392,-7.618 -10.637,-7.281 -11.224,-8.227c-12.639,-20.363 17.91,-0.088 19.19,0.762Z" style="fill:#25262f;"/><path d="M3530.373,1998.094c3.045,-8.31 5.958,-12.272 10.737,-4.724c2.468,3.898 3.083,2.68 6.65,5.78c-9.09,6.797 -9.442,6.424 -9.808,7.333c-0.949,2.361 2.202,1.88 1.256,4.232c-7.937,-3.972 -8.021,-3.757 -8.572,-4.29c-1.072,-1.036 0.211,-3.352 -0.86,-4.388l0.597,-3.942Z" style="fill:#30343e;"/><path d="M4114.389,2064.248c1.972,0.609 3.254,-2.87 6.952,2.147c7.24,9.822 7.793,9.034 8.336,9.917c1.852,3.008 -10.534,2.245 -10.827,2.308c-9.177,1.947 -4.795,-13.215 -4.461,-14.372Z" style="fill:#1e2128;"/><path d="M4518.258,1554.238c-0.762,-0.17 -4.015,4.151 -8.139,-1.82c-5.658,-8.191 11.142,-24.168 11.282,-4.721c0.009,1.318 2.633,2.359 -3.143,6.541Z" style="fill:#20242f;"/><path d="M3816.115,1768.628c4.253,-3.304 6.06,-4.059 6.645,-4.303c11.734,-4.897 11.766,3.877 12.544,4.476c-7.79,1.706 -5.494,4.97 -12.319,8.531c-7.136,3.723 -6.86,-0.666 -6.87,-8.704Z" style="fill:#2b2f38;"/><path d="M4685.411,1231.262c2.989,0.596 2.681,0.673 12.524,4.082c-3.768,7.201 -3.379,7.936 -11.448,10.314c-0.99,-1.703 2.68,-3.961 1.689,-5.664c-1.033,-1.777 -4.11,-0.718 -5.942,-1.65c-12.611,-6.409 2.556,-7.056 3.177,-7.082Z" style="fill:#202c3c;"/><path d="M4402.212,1570.02c-6.676,-1.735 -12.715,0.156 -8.343,-5.402c2.413,-3.068 21.556,-15.369 16.754,-4.062c-0.348,0.82 -4.347,10.238 -4.353,10.243c-1.023,0.922 -3.035,-1.701 -4.058,-0.779Z" style="fill:#27283b;"/><path d="M4565.246,1502.922c2.828,-0.98 4.825,-3.716 7.653,-4.696c4.963,-1.72 13.796,24.924 -4.182,12.248c-0.788,-0.556 -3.153,0.972 -3.471,-7.552Z" style="fill:#1b1d29;"/><path d="M3527.323,2035.851c0.902,0.41 10.547,4.792 10.312,6.859c-0.33,2.904 -3.041,5.189 -3.371,8.093c-7.675,-0.331 -13.286,-5.137 -12.722,-6.944c0.98,-3.143 4.801,-4.865 5.781,-8.008Z" style="fill:#353743;"/><path d="M3855.048,2246.748c8.469,-1.451 11.048,-6.294 13.557,1.221c2.903,8.694 -26.571,15.399 -13.557,-1.221Z" style="fill:#131720;"/><path d="M4331.965,2821.706c-1.864,-1.408 -18.829,-12.469 -0.995,-12.097c12.734,0.265 8.198,8.322 7.728,9.158c-1.201,2.134 -5.532,0.806 -6.733,2.94Z" style="fill:#222333;"/><path d="M4471.547,1560.765c-0.589,-2.032 -3.386,-2.916 -3.975,-4.948c-0.889,-3.065 0.712,-2.273 6.207,-5.901c5.199,-3.432 7.32,-4.583 9.069,1.72c0.961,3.463 0.436,3.887 0.181,4.093c-5.011,4.048 -6.392,0.924 -11.482,5.036Z" style="fill:#2f323a;"/><path d="M3477.989,2002.668l2.068,-0.664l6.037,11.803c-1.666,0.159 -3.187,1.13 -4.854,1.29c-0.996,0.095 -17.161,1.642 -8.621,-9.057c1.318,-1.652 4.05,-1.72 5.369,-3.372Z" style="fill:#202328;"/><path d="M4318.786,1862.109l-5.555,2.038c2.07,-21.121 8.989,-17.557 9.685,-16.216c0.383,0.738 0.576,13.542 0.24,13.96c-0.912,1.139 -3.459,-0.921 -4.371,0.218Z" style="fill:#f1ece4;"/><path d="M3275.602,1519.638c-0.327,-1.06 -7.104,-23.033 3.59,-13.388c10.228,9.224 -1.059,10.701 -3.59,13.388Z" style="fill:#303543;"/><path d="M3029.215,2863.686c-3.499,1.147 -3.161,1.055 -6.534,2.141c-13.856,4.463 -3.088,-14.481 4.552,-10c6.507,3.817 1.772,7.025 1.982,7.859Z" style="fill:#121729;"/><path d="M4098.148,1512.273c5.253,4.202 5.68,3.957 5.673,4.538c-0.016,1.263 -4.064,16.81 -15.362,-3.664c4.823,-1.607 4.711,-1.091 9.689,-0.874Z" style="fill:#696967;"/><path d="M4388.703,1864.777c0.987,-0.928 -2.037,-2.998 -1.05,-3.926c1.182,-1.111 11.354,-0.595 13.715,3.976c0.827,1.6 0.555,3.622 1.382,5.222c-6.695,1.211 -6.442,0.919 -12.641,-1.51l-1.406,-3.762Z" style="fill:#666560;"/><path d="M3260.461,1510.86c-1.654,-2.351 -5.446,-2.543 -7.1,-4.894c-3.816,-5.421 -4.519,-8.316 1.946,-8.7c10.368,-0.617 9.703,4.167 5.154,13.594Z" style="fill:#1e2432;"/><path d="M4606.6,1197.409c7.592,-11.959 7.067,-12.079 9.191,-13.31c0.958,-0.555 1.991,-0.189 3.492,13.399c-6.656,1.09 -6.31,1.033 -12.683,-0.089Z" style="fill:#20252e;"/><path d="M3847.466,1697.409c2.671,0.41 5.342,0.819 8.013,1.229l2,2.728c-5.343,6.704 -5.15,6.836 -5.77,7.241c-4.503,2.939 -4.009,-0.805 -5.627,-1.129c-1.939,-5.213 -1.967,-5.317 1.384,-10.069Z" style="fill:#13171e;"/><path d="M4097.01,2022.532c-7.348,1.484 -10.272,3.542 -10.812,-3.713c-0.469,-6.305 2.661,-6.959 3.272,-7.086c8.075,-1.687 5.241,2.957 7.54,10.8Z" style="fill:#1c1f2b;"/><path d="M3843.775,1663.392c0.796,0.205 42.436,11.622 4.159,9.392c-8.325,-0.485 -10.121,-7.193 -8.487,-9.242c0.9,-1.129 3.428,0.979 4.328,-0.149Z" style="fill:#2e3139;"/><path d="M3784.999,2164.616c0.445,-0.968 4.845,-10.542 4.504,-12.535c-2.437,-14.237 4.619,-1.02 4.74,-0.656c3.416,10.308 1.667,12.967 -9.244,13.192Z" style="fill:#8b867f;"/><path d="M3171.004,2393.449c-0.816,-0.859 0.615,-2.688 -0.201,-3.547c-3.767,-3.966 -5.661,-0.934 -8.814,-5.191c-7.455,-10.065 11.931,-10.837 10.738,0.797c-0.066,0.647 -0.128,0.588 -1.723,7.941Z" style="fill:#595758;"/><path d="M3471.489,2023.746c1.158,0.571 8.942,4.408 14.512,7.045c-4.278,0.569 -5.871,-2.568 -9.899,4.022c-7.155,11.707 -7.878,-1.851 -4.613,-11.067Z" style="fill:#14181b;"/><path d="M4086.285,1684.935c0.06,-0.051 4.639,-12.003 12.281,-3.78c12.515,13.467 -11.324,4.154 -12.281,3.78Z" style="fill:#8e8983;"/><path d="M4400.57,1517.259c1.401,-6.927 1.049,-7.084 1.513,-7.481c8.011,-6.85 11.532,14.599 4.619,13.623c-2.865,-0.404 -3.268,-5.738 -6.132,-6.143Z" style="fill:#2f323b;"/><path d="M3289.589,2985.41c-1.533,3.346 -0.26,3.702 -2.854,6.229c-3.22,3.137 -2.198,3.45 -2.524,3.58c-6.382,2.533 -9.475,-22.314 5.377,-9.809Z" style="fill:#eae7ea;"/><path d="M4365.319,2209.072c-4.39,-6.827 -6.514,-7.048 -4.032,-9.797c3.169,-3.51 16.113,-1.352 10.6,6.743c-1.359,1.995 -5.209,1.059 -6.568,3.054Z" style="fill:#74756f;"/><path d="M3035.789,2847.87c0.477,-0.141 7.405,-3.036 8.047,-3.304c0.642,-0.268 10.535,-4.402 8,3.421c-2.271,7.006 -3.345,10.422 -8.965,5.577c0,0 -6.515,-5.238 -7.081,-5.693Z" style="fill:#0c1323;"/><path d="M3865.542,2325.116c10.876,-1.713 10.588,1.4 10.509,2.257c-0.91,9.838 -5.183,11.329 -12.144,4.311l1.635,-6.568Z" style="fill:#202124;"/><path d="M3838.828,1626.87c-1.456,0.693 -1.639,3.024 -3.095,3.717c-8.289,3.945 -4.271,-25.755 3.317,-11.747c0.306,0.565 -0.016,0.595 -0.222,8.03Z" style="fill:#252428;"/><path d="M3064.612,1943.626c-3.309,-4.661 -3.148,-7.45 -3.108,-8.146c0.738,-12.8 13.808,-0.506 9.869,4.081c-1.713,1.995 -5.048,2.07 -6.761,4.065Z" style="fill:#5e5e5c;"/><path d="M3876.143,1777.649c7.093,-5.34 8.007,-11.673 13.335,-4.556c0.676,0.902 5.265,15.213 -13.335,4.556Z" style="fill:#3c4250;"/><path d="M4398.48,2721.177l2.962,2.747c6.955,15.077 -2.158,12.744 -3.07,12.301c-0.739,-0.359 -5.433,-2.638 -4.66,-9.156c0.298,-2.509 4.47,-3.383 4.768,-5.892Z" style="fill:#202636;"/><path d="M3865.542,2325.116l-1.635,6.568c-2.606,-0.602 -5.212,-1.204 -7.818,-1.806c-2.424,-4.993 -5.245,-5.973 -0.501,-9.203c0.721,-0.491 2.833,-1.929 9.955,4.441Z" style="fill:#232327;"/><path d="M4605.135,1307.229l5.57,3.153c0.009,0.888 0.169,16.805 -8.03,7.67c-0.593,-0.661 -3.435,-3.827 2.46,-10.823Z" style="fill:#18191b;"/><path d="M4097.243,2051.4c-0.787,-1.587 -4.259,-0.08 -5.047,-1.667c-0.753,-1.518 2.169,-8.777 5.695,-10.068c0.697,-0.255 13.016,2.055 -0.648,11.735Z" style="fill:#1c202e;"/><path d="M4247.024,2137.644c1.696,-15.916 15.332,-2.558 12.504,1.058c-0.618,0.791 -1.384,1.77 -12.504,-1.058Z" style="fill:#33353f;"/><path d="M3172.006,2168.916c-5.905,7.036 -11.772,3.551 -8.553,-5.045c2.748,-7.339 8.216,4.326 8.553,5.045Z" style="fill:#77767a;"/><path d="M4318.786,1862.109c4.287,6.344 4.6,6.191 4.63,6.852c0.041,0.9 -4.872,10.616 -10.185,-4.814l5.555,-2.038Z" style="fill:#e3dad3;"/><path d="M3677.052,1656.254c0.522,-1.288 -1.982,-2.617 -1.46,-3.904c0.536,-1.323 2.733,-1.009 3.825,-1.93c5.422,-4.575 6.728,-0.846 6.551,5.951c-0.165,6.333 -3.185,2.577 -8.916,-0.117Z" style="fill:#363a43;"/><path d="M4731.734,2883.612c-0.46,-0.42 -5.833,-5.327 -1.518,-7.637c8.076,-4.324 7.249,0.804 9.883,9.648c-2.788,-0.67 -5.577,-1.341 -8.365,-2.011Z" style="fill:#292933;"/><path d="M4743.329,2913.92c1.015,-0.008 18.078,-0.147 7.496,10.242c-0.747,0.734 -2.114,-2.032 -2.861,-1.298c-1.545,-2.981 -3.09,-5.963 -4.634,-8.944Z" style="fill:#2a2c38;"/><path d="M3826.91,2255.975c-1.15,-0.644 -2.224,2.708 -3.375,2.064c-6.372,-3.569 -2.978,-16.173 3.243,-9.801c1.994,2.042 2.017,3.41 2.023,3.751c0.043,2.514 -1.931,1.605 -1.891,3.986Z" style="fill:#222327;"/><path d="M4381.946,1798.38c-10.518,-0.4 -20.566,2.78 -12.975,-4.63c6.105,-5.958 6.733,-1.159 12.975,4.63Z" style="fill:#5e5e5c;"/><path d="M4581.222,1206.407l5.167,4.705c-4.137,1.914 -3.776,2.003 -8.582,2.192c-0.26,-3.595 -4.898,0.773 -5.151,-2.719c-0.036,-0.494 -0.127,-1.749 4.659,-4.083c1.171,-0.571 2.737,0.476 3.908,-0.096Z" style="fill:#232227;"/><path d="M3998.496,1489.64c6.322,-14.854 8.16,-0.59 7.932,0.002c-1.862,4.84 -3.276,2.201 -7.932,-0.002Z" style="fill:#696865;"/><path d="M3002.558,1856.384c-6.47,-15.319 2.587,-12.571 3.46,-12.072c2.432,1.388 -2.975,11.193 -3.46,12.072Z" style="fill:#595854;"/><path d="M4075.713,1916.412c-3.56,-15.566 5.822,-7.855 6.329,-7.274c4.786,5.478 0.617,6.394 -6.329,7.274Z" style="fill:#999490;"/><path d="M4147.053,2355.995c0.416,3.541 3.893,1.01 4.315,4.602c0.041,0.35 0.11,0.933 -3.452,2.747c-21.686,11.044 -1.307,-6.957 -0.863,-7.349Z" style="fill:#f7f5f0;"/><path d="M3456.268,2031.256c0.376,0.318 5.405,-2.356 5.182,4.375c-0.016,0.496 -0.21,6.317 -5.037,3.625c-0.559,-0.312 -0.01,-0.572 -0.145,-8Z" style="fill:#14171c;"/><path d="M3093.899,1209.691c1.276,0.36 5.093,-7.255 9.141,2.578c0,0 -4.623,2.407 -5.025,2.617l-4.116,-5.195Z" style="fill:#1a1a22;"/><path d="M3155.214,1465.318c1.293,1.388 2.586,2.776 3.879,4.164c-0.57,1.089 1.967,2.322 1.397,3.411c-1.388,2.652 -3.874,2.102 -4.241,2.021c-3.357,-0.742 -1.579,-3.308 -4.97,-4.057c1.311,-1.846 2.623,-3.693 3.934,-5.539Z" style="fill:#51545c;"/><path d="M2972.865,2260.25c0.748,0.009 11.343,0.135 8.317,4.286c-2.484,3.407 -4.609,2.312 -4.995,2.113c-3.62,-1.865 0.307,-4.529 -3.322,-6.399Z" style="fill:#f1f1f0;"/><path d="M4581.222,1206.407c5.035,-2.504 6.327,-8.895 6.891,-3.428c0.608,5.898 -1.502,7.085 -1.724,8.132l-5.167,-4.705Z" style="fill:#18171c;"/><path d="M4307.157,2831.273c-0.466,-0.526 -12.643,-14.271 -0.907,-8.741c3.597,1.695 3.827,3.918 3.876,4.383c0.317,3.051 -3.289,1.271 -2.969,4.358Z" style="fill:#2c303c;"/><path d="M2997.828,2101.382c1.814,-0.758 0.002,-4.854 1.816,-5.612c2.485,-1.038 6.901,-0.948 7.93,1.54c2.646,6.399 -3.537,1.478 -9.746,4.072Z" style="fill:#f0eef3;"/><path d="M4134.588,2347.737c-0.04,0.479 -1.068,12.654 -3.338,5c-0.834,-2.812 0.06,-4.152 0.258,-4.449c1.074,-1.609 2.021,1.034 3.079,-0.551Z" style="fill:#eee6db;"/><path d="M3185.711,2196.906c1.876,1.918 6.162,-2.327 8.039,-0.409c5.066,5.177 -2.467,5.561 -2.973,5.587c-4.283,0.218 -0.9,-5.389 -5.066,-5.177Z" style="fill:#6c6e6c;"/><path d="M4597.924,1281.252c0.62,-1.25 -0.714,-2.935 -0.094,-4.185c0.153,-0.308 7.427,-13.576 4.287,0.235c-0.102,0.449 0,0 -4.192,3.95Z" style="fill:#0c0c11;"/><path d="M3744.647,1636.338c-0.834,6.461 -0.338,6.908 -0.897,6.952c-5.036,0.397 0.273,-2.114 0.897,-6.952Z" style="fill:#343947;"/><path d="M3885.421,1743.741c7.343,3.453 7.716,3.05 7.914,3.721c1.96,6.629 -1.922,-0.931 -7.914,-3.721Z" style="fill:#2b333f;"/><path d="M3839.676,1681.123l4.03,1.882l-3.917,0.339l-0.113,-2.222Z" style="fill:#1d2029;"/></svg>