<?xml version="1.0" encoding="UTF-8" standalone="no"?><!DOCTYPE svg PUBLIC "-//W3C//DTD SVG 1.1//EN" "http://www.w3.org/Graphics/SVG/1.1/DTD/svg11.dtd"><svg width="100%" height="100%" viewBox="0 0 8000 4500" version="1.1" xmlns="http://www.w3.org/2000/svg" xmlns:xlink="http://www.w3.org/1999/xlink" xml:space="preserve" xmlns:serif="http://www.serif.com/" style="fill-rule:evenodd;clip-rule:evenodd;stroke-linejoin:round;stroke-miterlimit:2;"><path d="M3665.869,1813.224l3.598,3.504c-4.152,14.856 3.922,26.476 5.239,28.371l3.41,4.951c9.946,13.46 10.314,12.861 23.969,22.097c2.746,1.858 -6.165,6.043 15.773,38.326c17.718,26.071 21.214,24.479 27.895,55.552c4.782,22.24 18.181,15.88 49.809,66.523c4.338,6.946 4.224,6.875 5.04,7.911c2.611,4.265 30.129,49.212 37.77,49.802c1.393,0.108 1.225,-3.38 2.618,-3.272c5.003,7.475 8.251,10.834 9.074,11.684c-0.901,2.241 -4.223,2.883 -5.123,5.124c-0.474,1.179 20.043,31.341 24.523,37.376c5.305,11.382 5.3,11.142 14.091,20.221c3.303,4.455 1.226,5.666 37.326,58.414c0.414,0.605 3.954,5.777 5.396,7.413c1.23,1.395 4.383,4.972 13.533,18.903c21.475,34.373 48.591,66.851 52.91,81.827c0.064,0.221 31.385,46.667 34.119,50.722c3.437,5.097 9.753,11.165 10.682,12.058c6.193,8.462 6.803,8.544 7.724,8.668c12.576,1.69 7.434,8.119 16.252,16.95c-0.495,1.8 -3.416,2.208 -3.91,4.008c-0.131,0.475 0.355,0.287 4.791,3.877c1.238,2.829 2.476,5.658 3.713,8.488c0.322,0.437 4.024,5.46 4.024,5.46c1.919,0.157 3.467,-2.243 5.386,-2.086l3.656,4.602c-0.53,3.133 -1.06,6.266 -1.59,9.4c23.595,30.3 33.681,62.845 54.156,79.224c3.256,2.605 -1.291,5.497 27.571,44.228c6.648,8.921 7.266,8.031 13.407,17.624c0.579,1.638 2.539,7.182 12.15,17.998c6.514,14.264 10.64,11.518 16.1,26.517c5.7,15.66 8.5,13.511 19.763,25.944c0.494,0.907 -0.09,1.051 5.511,11.669c0.41,0.777 3.648,6.916 6.391,8.938c1.395,1.028 3.804,-1.03 5.198,-0.002c7.526,10.122 6.951,10.158 14.478,22.569c1.106,4.741 4.97,21.303 30.323,52.757c0.515,0.638 0.715,0.256 9.648,3.461c5.997,6.378 26.121,38.912 28.265,42.378c0.335,2.329 -4.914,3.044 -4.579,5.374c0.254,1.771 19.101,26.021 20.824,28.237c1.455,8.53 6.77,23.553 7.481,25.562c4.232,7.985 13.263,25.97 14.401,28.237c60.418,73.098 124.41,118.645 111.304,130.107c-4.39,3.84 -37.321,-31.741 -40.213,-34.866c-35.381,-38.228 -133.798,-107.437 -135.683,-131.805c-0.477,-6.169 -10.615,0.729 -46.782,-61.597c-7.319,-12.613 -36.855,-53.01 -47.787,-72.445c-2.701,-4.801 -14.173,-23.157 -22.229,-32.442c3.1,-6.641 5.428,-7.299 1.975,-9.713c-4.806,-3.359 -8.346,-14.267 -13.288,-15.903c-1.658,-0.549 -3.559,1.034 -5.217,0.485c-21.083,-27.928 -56.47,-91.142 -57.577,-92.064c-20.529,-17.082 -45.064,-66.714 -49.634,-71.117c-10.433,-10.054 -10.351,-10.079 -14.405,-23.789c-0.471,-1.593 -5.232,1.393 -11.052,-17.586c-1.114,-3.631 -2.477,-2.329 -29.067,-37.541c-9.565,-12.666 -3.331,-15.935 -14.191,-28.019c-3.173,-3.531 -7.043,-6.379 -10.324,-9.81c-0.832,-0.87 -2.117,-1.841 -1.96,-3.035c0.261,-1.981 3.398,-3.199 3.041,-5.165c-0.278,-1.532 -21.908,-19.919 -42.61,-54.371c-11.843,-19.709 -8.676,-21.72 -24.963,-37.587c-4.642,-4.522 -14.421,-30.187 -49.197,-71.444c-12.74,-15.114 -41.636,-65.12 -44.998,-70.939c-9.331,-16.148 -6.374,-18.391 -21.168,-29.526c-4.445,-3.345 -38.426,-68.255 -57.274,-85.153c0.569,-2.971 8.589,-4.642 -2.406,-13.804c-2.475,-2.062 -2.277,-1.856 -4.606,-3.756c-3.318,-5.296 -1.908,-7.116 -8.225,-7.7c-3.67,-0.339 -2.66,-1.672 -14.848,-22.852c-5.373,-9.336 -31.721,-46.402 -48.43,-73.283c-10.971,-15.167 -9.207,-15.939 -17.847,-32.598c-0.489,-0.943 -0.339,-0.592 -6.375,-5.104c-3.509,-2.623 -11.681,-19.272 -12.545,-21.031c18.633,-14.504 21.1,-11.094 37.568,-28.216c2.743,-1.306 5.487,-2.613 8.23,-3.919Z" style="fill:#c1c1c0;"/><path d="M3705.295,1777.667c13.085,21.993 85.349,125.916 94.655,150.567c0.611,1.618 138.055,208.978 145.137,217.131c11.647,13.41 67.796,107.456 90.273,134.379c7.105,8.51 4.169,10.314 76.293,115.686c16.983,24.811 14.513,26.088 32.194,50.713c63.202,88.027 75.914,118.948 95.728,141.79c3.018,3.48 1.791,4.272 32.398,47.6c15.246,21.583 23.414,38.045 25.14,41.523c3.752,7.561 6.751,5.335 58.029,88.112c3.108,5.017 23.685,38.234 44.68,58.697c9.251,9.016 10.906,3.911 13.895,3.982c3.292,6.969 1.259,7.067 -2.238,13.868c-0.938,-0.437 -0.584,-0.108 -11.86,-5.154c-10.11,-7.12 -10.115,-6.522 -20.818,-12.851c-12.46,-5.152 -12.319,-4.438 -25.353,-7.521c5.604,-6.871 12.468,-8.214 4.526,-12.718c-4.135,-2.346 -21.236,-25.735 -22.948,-28.076c-4.999,-6.837 -9.369,-34.623 -24.36,-41.751c-8.972,-4.266 -27.22,-38.739 -27.295,-38.89c-8.516,-17.213 -15.734,-13.181 -19.468,-31.965c-3.194,-16.066 -13.957,-8.912 -19.893,-24.441c-1.909,-4.994 -109.509,-159.503 -111.15,-163.94c-6.652,-17.984 -6.74,-18.141 -14.437,-22.979c-4.666,-2.933 1.094,-7.319 -39.52,-56.432c-2.298,-2.778 -0.254,-4.18 -25.936,-36.854c-6.3,-8.015 -1.992,-14.333 -26.649,-43.642c-13.894,-16.515 -9.094,-23.855 -34.359,-49.044c-0.729,-0.726 -30.608,-47.852 -33.834,-53.753c-3.059,-5.594 0.345,-7.356 -5.526,-11.574c-5.622,-4.039 -28.898,-31.737 -33.227,-45.948c-0.801,-2.63 -25.695,-30.459 -24.914,-33.492c0.324,-1.259 3.173,-1.193 3.008,-2.482c-0.396,-3.082 -4.252,-0.733 -22.487,-31.665c-12.438,-21.099 -19.989,-16.101 -27.748,-39.683c-1.93,-5.865 -6.605,-2.848 -42.334,-64.536c-3.881,-6.7 -3.446,-6.56 -8.761,-11.984c-3.301,-3.368 -3.141,-3.783 -2.994,-4.167c1.516,-3.955 4.698,-0.276 6.217,-4.239c-11.764,-15.041 -37.05,-56.842 -49.52,-71.223c-11.94,-13.77 -5.337,-19.274 -21.065,-28.353c-5.06,-2.92 -17.034,-28.911 -21.157,-26.998c-2.693,1.25 -3.348,5.296 -6.041,6.545l-2.719,-4.713l-1.437,-2.902c4.391,-5.022 13.869,-4.494 4.18,-25.069c1.738,-2.529 5.607,-3.019 7.346,-5.548c4.937,-7.181 -11.667,0.542 -12.582,0.967c-8.147,6.582 -7.821,6.9 -8.546,7.445c-3.276,-2.487 -6.552,-4.975 -9.828,-7.462c2.917,-0.458 5.834,-0.915 8.751,-1.373c12.981,-12.544 13.2,-14.569 13.381,-16.243c0.092,-0.849 0.383,-0.692 5.173,-9.341Z" style="fill:#d9dada;"/><path d="M3582.578,1782.958c0.464,1.196 0.799,0.764 1.278,1.998c3.104,7.993 8.323,5.766 9.166,6.35c1.311,3.619 9.959,27.502 22.164,42.709c0.202,0.967 1.405,6.738 4.885,11.344c0.863,1.759 9.036,18.408 12.545,21.031c6.036,4.512 5.887,4.162 6.375,5.104c8.639,16.66 6.876,17.431 17.847,32.598c16.709,26.881 43.058,63.947 48.43,73.283c12.188,21.18 11.178,22.513 14.848,22.852c6.317,0.584 4.907,2.404 8.225,7.7c-1.762,9.979 1.621,9.113 7.012,17.56c18.848,16.897 52.829,81.807 57.274,85.153c14.794,11.135 11.837,13.378 21.168,29.526c3.362,5.819 32.259,55.825 44.998,70.939c34.776,41.257 44.555,66.922 49.197,71.444c16.288,15.867 13.12,17.877 24.963,37.587c20.702,34.452 42.332,52.839 42.61,54.371c0.356,1.966 -2.78,3.184 -3.041,5.165c-0.157,1.194 1.127,2.165 1.96,3.035c3.281,3.431 7.151,6.279 10.324,9.81c10.86,12.084 4.626,15.352 14.191,28.019c26.59,35.213 27.954,33.91 29.067,37.541c5.82,18.978 10.58,15.992 11.052,17.586c4.054,13.71 3.972,13.735 14.405,23.789c4.57,4.403 29.105,54.035 49.634,71.117c1.107,0.921 36.494,64.136 57.577,92.064c14.887,23.386 15.276,23.078 16.531,25.131c8.056,9.285 19.528,27.641 22.229,32.442c10.933,19.435 40.468,59.832 47.787,72.445c36.167,62.326 46.305,55.428 46.782,61.597c1.885,24.367 100.303,93.577 135.683,131.805c2.892,3.125 35.823,38.706 40.213,34.866c13.106,-11.462 -50.885,-57.009 -111.304,-130.107c-1.138,-2.266 -10.168,-20.252 -14.401,-28.237c1.753,0.52 3.341,-2.554 5.094,-2.034c3.003,0.891 26.975,37.919 53.114,56.884c1.306,0.947 35.526,34.873 37.559,37.919c0.392,0.588 0.336,0.562 4.53,7.585c7.417,7.53 9.087,2.965 14.394,-5.806c0.283,0.703 3.541,8.786 3.541,8.786c14.491,50.734 22.689,53.614 11.128,61.962c-18.284,13.202 -78.983,-64.278 -132.899,-107.268c-63.277,-50.455 -63.622,-62.915 -105.45,-124.245c-56.293,-82.538 -664.032,-997.268 -670.964,-1008.208l7.541,-5.31c0.055,-0.034 2.39,-6.804 10.735,0.117Z" style="fill:#666;"/><path d="M3479.372,1412.011c4.477,9.187 250.943,380.992 267.552,406.981c198.357,310.369 205.878,304.972 405.631,614.441c128.389,198.908 133.359,195.128 261.163,394.414c-2.989,-0.072 -4.644,5.034 -13.895,-3.982c-20.995,-20.463 -41.572,-53.68 -44.68,-58.697c-51.278,-82.777 -54.278,-80.551 -58.029,-88.112c-1.726,-3.479 -9.894,-19.94 -25.14,-41.523c-30.607,-43.328 -29.379,-44.12 -32.398,-47.6c-19.815,-22.842 -32.526,-53.763 -95.728,-141.79c-17.681,-24.626 -15.211,-25.902 -32.194,-50.713c-72.124,-105.373 -69.188,-107.176 -76.293,-115.686c-22.478,-26.922 -78.626,-120.969 -90.273,-134.379c-7.082,-8.154 -144.526,-215.513 -145.137,-217.131c-9.306,-24.652 -81.57,-128.574 -94.655,-150.567c-25.339,-25.804 -35.81,-63.209 -46.901,-70.811c-7.685,-5.267 -3.865,-7.475 -8.688,-15.902c-14.979,-26.172 -25.611,-35.039 -28.502,-37.451c-1.485,-5.477 -0.066,-5.813 -4.377,-12.863c-20.783,-33.994 -23.892,-31.529 -43.884,-65.573l-2.738,-4.767c-0.484,-0.937 -6.044,-11.717 -6.044,-11.717c-4.399,-6.495 -51.027,-75.338 -55.364,-80.924c-16.995,-23.987 -13.999,-26.072 -29.838,-40.863c-3.021,-4.427 -6.042,-8.854 -9.064,-13.281c5.929,-4.922 5.201,-5.026 9.476,-11.504Z" style="fill:#a0a1a0;"/><path d="M3491.191,1290.735c-1.253,0.369 -2.354,-1.901 -3.607,-1.532c-2.051,0.604 -3.157,2.921 -4.968,4.058c-17.985,11.292 -5.878,20.339 -3.738,23.189c-20.049,27.607 -26.216,40.751 -83.386,79.452c-75.027,50.788 -103.158,50.215 -120.798,55.405c-14.16,-13.291 -17.4,-7.309 -18.127,-5.966c-2.117,3.91 4.307,4.299 5.115,8.363c5.311,26.706 14.937,22.647 29.402,21.308c9.611,-0.889 7.156,-4.93 9.022,-6.215c4.879,1.795 20.195,9.627 17.694,-6.308c-1.776,-11.315 0.069,-11.753 10.223,-16.867c-0.573,15.204 -0.826,22.275 13.482,17.434c2.995,-1.013 7.068,-1.297 7.691,-1.34c16.189,-1.128 15.375,-3.547 25.123,-7.96c-0.459,1.929 5.34,1.471 4.881,3.4c-1.069,4.494 -5.032,7.84 -8.324,11.081c-1.412,1.391 -4.351,0.779 -5.418,2.449c-0.624,0.976 1.313,1.914 2.067,2.794c8.002,9.333 0.715,9.505 -2.796,14.442c-7.856,-11.476 -7.733,-11.456 -8.485,-12.394c-10.949,-13.664 -68.107,31.177 -97.409,1.852c-59.452,-59.499 163.385,-212.603 232.355,-186.644Z" style="fill:#8c8f90;"/><path d="M3412.272,1440.739c1.01,2.057 1.262,1.59 13.281,25.378c1.459,3.731 1.273,3.549 3.869,6.437c10.131,10.926 8.307,14.369 23.238,16.14c5.552,3.719 4.479,4.408 4.853,10.799c-0.697,1.92 -3.807,2.233 -4.504,4.153c-1.432,3.946 5.565,1.252 26.599,45.227c8.815,18.429 20.657,25.414 23.098,26.854c7.606,4.486 20.201,67.602 50.225,66.262l4.357,3.46c-5.251,7.948 -10.704,11.074 7.654,29.315c9.045,33.903 22.297,31.488 25.449,30.914c11.191,-2.039 -0.775,8.179 6.55,21.867c24.601,45.97 34.051,34.581 35.686,34.339c1.21,0.646 2.884,-1.068 4.094,-0.422c5.918,3.16 3.167,7.018 2.794,7.542c-1.973,2.768 -6.504,1.873 -3.075,13.787c-0.532,5.867 -3.915,7.566 4.072,13.241c1.024,1.273 7.857,9.766 12.204,16.384c-3.767,2.285 -3.079,3.047 -7.127,4.323c-2.668,0.842 -2.001,2.081 -30.404,17.275c-12.205,-15.207 -20.853,-39.09 -22.164,-42.709c7.216,-8.029 9.998,-9.747 2.533,-17.618c-0.3,-0.915 -0.336,-0.849 -5.721,-11.292l-3.247,-4.296c-10.397,-26.177 -19.704,-22.086 -19.44,-33.711c0.064,-2.803 -2.316,-7.856 -5.038,-8.68c-9.772,-2.956 -5.312,-10.672 -5.513,-11.748c-0.599,-3.2 -20.909,-10.18 -22.372,-16.954c-2.233,-10.336 -4.697,-11.244 -14.891,-7.713c-12.818,-20.978 -17.555,-13.704 -21.572,-12.063c-5.965,-12.046 -6.071,-11.7 -15.432,-21.669c1.441,-2.027 4.592,-2.361 6.033,-4.388c1.334,-1.876 1.909,-2.686 -13.502,-25.411c-54.389,-80.201 -52.248,-81.077 -57.289,-87.779c-6.762,-14.18 -5.17,-14.688 -6.172,-15.579c-3.523,-3.136 -9.227,-0.973 -14.626,-9.836c-17.84,-29.287 -24.928,-37.107 3.257,-56.366c4.081,-1.822 8.161,-3.644 12.242,-5.465Z" style="fill:#c5c5c5;"/><path d="M3701.575,1841.906c2.693,-1.25 3.348,-5.296 6.041,-6.545c4.123,-1.913 16.097,24.078 21.157,26.998c15.728,9.078 9.125,14.583 21.065,28.353c12.47,14.381 37.756,56.182 49.52,71.223c-1.519,3.963 -4.701,0.285 -6.217,4.239c-0.147,0.383 -0.306,0.799 2.994,4.167c5.315,5.424 4.88,5.284 8.761,11.984c35.729,61.687 40.405,58.671 42.334,64.536c7.759,23.582 15.309,18.584 27.748,39.683c18.235,30.933 22.091,28.584 22.487,31.665c0.166,1.289 -2.684,1.223 -3.008,2.482c-0.781,3.032 24.113,30.862 24.914,33.492c4.33,14.211 27.605,41.908 33.227,45.948c5.871,4.218 2.467,5.98 5.526,11.574c3.226,5.901 33.105,53.026 33.834,53.753c25.265,25.188 20.466,32.528 34.359,49.044c24.656,29.309 20.349,35.627 26.649,43.642c25.682,32.674 23.638,34.076 25.936,36.854c40.613,49.113 34.853,53.499 39.52,56.432c7.697,4.838 7.785,4.996 14.437,22.979c1.641,4.437 109.241,158.946 111.15,163.94c5.936,15.529 16.699,8.375 19.893,24.441c3.735,18.784 10.952,14.752 19.468,31.965c0.075,0.151 18.323,34.624 27.295,38.89c14.991,7.128 19.361,34.915 24.36,41.751c1.712,2.342 18.813,25.731 22.948,28.076c7.942,4.505 1.078,5.847 -4.526,12.718c-13.324,-4.843 -13.284,-6.233 -60.425,-76.699c-1.348,-1.738 -0.979,-1.722 -14.539,-23.335c-32.155,-41.726 -53.99,-79.591 -57.151,-84.288c-178.485,-265.568 -178.167,-265.396 -187.859,-279.094l-7.913,-12.197c-11.593,-19.135 -16.446,-26.322 -17.956,-28.559c-68.319,-102.702 -67.595,-102.878 -82.055,-121.732c-4.063,-6.56 -18.649,-30.113 -54.213,-79.779c-15.602,-33.605 -39.156,-48.53 -87.388,-136.376c5.359,-22.127 -8.024,-17.907 -25.83,-45.718c-12.282,-19.184 -11.828,-19.104 -24.25,-38.109c-5.709,-9.172 -5.579,-8.928 -12.912,-16.537c-1.143,-11.228 -1.945,-11.344 -11.275,-17.299c-2.702,-4.853 -5.405,-9.706 -8.107,-14.559Z" style="fill:#f3f4f4;"/><path d="M3491.191,1290.735c1.189,0.829 11.119,7.753 12.977,12.65c19.121,50.402 -26.497,77.493 -29.435,91.545c-1.606,0.798 -15.511,7.711 -14.522,17.077c0.159,1.504 2.033,2.673 1.795,4.167c-0.402,2.528 -2.905,0.759 -2.973,3.234c-0.109,3.978 2.81,2.718 2.709,6.392l-4.229,2.243c-2.848,0.562 -5.696,1.125 -8.544,1.687c7.294,-16.513 3.765,-16.918 3.675,-16.977c-3.308,-2.18 -14.677,6.852 -15.777,7.726c-2.483,2.431 -7.109,2.766 -1.939,9.531c8.608,11.263 6.489,12.204 13.457,24.227c11.172,17.058 7.088,21.587 25.829,28.792l3.387,3.931c0.147,2.859 0.294,5.717 0.441,8.576c0.246,1.226 0.493,2.451 0.739,3.677c25.737,33.478 18.314,38.628 47.889,68.624c15.15,15.366 5.653,21.434 26.483,44.427c13.114,14.475 6.261,18.921 25.296,41.41c2.461,2.908 3.641,10.886 4.926,12.099c9.9,9.34 10.1,8.821 16.466,20.899c4.452,8.446 5.021,7.611 11.078,10.414c3.42,13.905 -0.073,16.641 12.376,24.075c5.774,3.448 4.576,4.377 12.021,16.718c-1.515,-0.278 -0.796,-1.249 -2.141,-1.495c-0.983,-0.18 -0.919,-0.102 -12.412,-1.381c0.884,15.098 3.123,14.148 11.865,26.88c-1.635,0.241 -11.084,11.631 -35.686,-34.339c-7.325,-13.687 4.641,-23.906 -6.55,-21.867c-3.151,0.574 -16.404,2.989 -25.449,-30.914c5.208,-9.787 5.682,-11.375 -7.654,-29.315l-4.357,-3.46c-0.657,-1.622 1.173,-3.602 0.516,-5.224c-1.91,-4.717 -5.236,-2.241 -34.53,-53.425c-20.769,-36.288 -32.34,-37.985 -32.136,-41.827c0.109,-2.044 4.155,-2.475 4.155,-4.522c0,-1.005 -0.68,-0.6 -9.421,-8.316c-17.815,-23.28 -16.89,-23.755 -24.002,-29.181c-0.374,-6.392 0.699,-7.081 -4.853,-10.799c-1.238,-2.153 2.026,-5.256 0.788,-7.409c-0.942,-1.638 -3.865,-0.171 -5.589,-0.943c-4.247,-1.901 -0.595,-12.657 -18.437,-7.789c-2.596,-2.887 -2.41,-2.705 -3.869,-6.437c15.43,-17.19 -0.783,-18.962 -4.311,-41.822c-0.974,-6.31 -4.796,-3.172 -5.412,-3.579c-9.149,-4.792 -8.89,-4.697 -17.912,-10.055c12.915,-6.853 13.706,-6.14 26.608,0.332c9.63,4.83 46.568,-32.748 50.034,-36.273c3.199,-3.254 3.27,-2.686 6.689,-6.015c9.282,-9.039 3.284,-12.117 10.259,-23.109c8.319,-13.112 0.985,-31.932 -0.018,-34.503c-2.337,0.61 -2.265,4.988 -4.602,5.598c-1.513,0.395 -1.443,-3.371 -2.988,-3.617c-0.478,-0.076 -0.372,0.25 -5.024,3.379c-2.14,-2.85 -14.247,-11.897 3.738,-23.189c1.811,-1.137 2.917,-3.454 4.968,-4.058c1.253,-0.369 2.354,1.901 3.607,1.532Z" style="fill:#818282;"/><path d="M4033.474,2352.772c9.692,13.698 9.374,13.525 187.859,279.094c-7.865,11.245 -6.827,12.62 0.735,24.788l-1.353,4.979c-11.263,-12.433 -14.063,-10.284 -19.763,-25.944c-5.46,-14.999 -9.586,-12.253 -16.1,-26.517c0.887,-13.467 1.008,-16.789 -12.15,-17.998c-6.141,-9.593 -6.759,-8.703 -13.407,-17.624c-28.862,-38.731 -24.315,-41.623 -27.571,-44.228c-20.475,-16.379 -30.561,-48.924 -54.156,-79.224c2.143,-4.859 4.059,-4.783 1.59,-9.4l-3.656,-4.602c-3.137,-1.125 -6.273,-2.249 -9.41,-3.374c-1.238,-2.829 -2.476,-5.658 -3.713,-8.488c-0.293,-2.628 -0.587,-5.256 -0.88,-7.884c-8.818,-8.831 -3.676,-15.26 -16.252,-16.95c-0.921,-0.124 -1.53,-0.206 -7.724,-8.668c0.638,-1.895 3.733,-2.213 4.372,-4.108c0.022,-0.067 -11.811,-19.106 -12.842,-20.765c-4.214,-6.779 -1.084,-7.016 4.422,-13.087Z" style="fill:#7f7f7f;"/><path d="M3491.491,1311.09c1.002,2.572 8.336,21.392 0.018,34.503c-6.975,10.993 -0.977,14.07 -10.259,23.109c-3.419,3.329 -3.49,2.761 -6.689,6.015c-3.466,3.526 -40.405,41.103 -50.034,36.273c-12.902,-6.471 -13.693,-7.184 -26.608,-0.332l-16.09,8.806c-13.262,5.099 -13.38,4.182 -24.791,13.301c-14.236,8.82 -12.521,13.896 -29.015,12.854c-10.154,5.113 -11.999,5.552 -10.223,16.867c2.501,15.935 -12.815,8.103 -17.694,6.308c-1.585,-2.559 -3.703,-1.07 -4.423,-7.142c-0.036,-0.303 -0.394,-3.322 -0.788,-3.727c-3.304,-3.401 -39.39,16.411 -20.201,-6.621c17.639,-5.19 45.771,-4.617 120.798,-55.405c57.17,-38.7 63.337,-51.844 83.386,-79.452c4.651,-3.129 4.545,-3.455 5.024,-3.379c1.544,0.246 1.475,4.012 2.988,3.617c2.337,-0.61 2.265,-4.988 4.602,-5.598Z" style="fill:#dbddda;"/><path d="M3400.03,1446.204c-28.185,19.259 -21.098,27.079 -3.257,56.366c5.399,8.863 11.102,6.7 14.626,9.836c1.001,0.891 -0.59,1.399 6.172,15.579c-0.612,1.01 -10.741,4.21 -2.224,13.819c3.242,3.658 33.417,53.941 41.947,66.245c23.676,34.153 22.958,34.562 25.035,37.512c9.36,9.969 9.466,9.623 15.432,21.669c28.334,47.248 30.219,47.512 39.502,48.345c6.576,6.642 6.873,5.837 12.553,12.993c-1.252,1.995 -4.472,2.149 -5.724,4.144c-1.569,2.501 -0.022,2.563 9.358,21.069c7.651,15.093 17.457,11.187 18.394,29.058l-7.541,5.31c-15.798,-24.129 -167.66,-256.082 -199.572,-300.228c3.511,-4.937 10.798,-5.11 2.796,-14.442c-0.754,-0.879 -2.691,-1.818 -2.067,-2.794c1.067,-1.67 4.006,-1.058 5.418,-2.449c3.292,-3.241 7.255,-6.586 8.324,-11.081c0.459,-1.929 -5.34,-1.471 -4.881,-3.4c1.413,-0.901 13.034,-8.316 17.398,-11.664c2.432,-1.865 2.503,-1.83 2.735,-1.715c3.734,1.847 1.515,3.818 5.578,5.827Z" style="fill:#7e7e7e;"/><path d="M3495.179,1478.381c0.662,0.507 8.27,6.341 8.27,6.341c2.698,-1.2 2.65,-5.861 5.347,-7.062c4.337,5.586 50.965,74.429 55.364,80.924c0,0 5.561,10.779 6.044,11.717c-18.093,8.143 -6.239,14.824 -4.333,13.366c2.948,-2.255 4.124,-6.344 7.072,-8.599c19.992,34.044 23.101,31.579 43.884,65.573c4.31,7.05 2.892,7.387 4.377,12.863c-3.128,1.682 -6.256,3.364 -9.384,5.046c-2.611,1.155 -5.222,2.309 -7.833,3.464c-3.955,-4.644 -12.241,-3.382 -10.691,-20.849c-1.226,-2.293 -2.451,-4.587 -3.677,-6.88c-10.831,-12.364 -12.121,-10.623 -23.13,-23.039c-2.038,-2.583 -4.077,-5.167 -6.115,-7.75c-7.7,-12.691 -5.783,-13.323 -13.293,-25.799c-15.215,-25.273 -15.062,-25.294 -16.478,-27.016c-2.107,-2.56 -21.057,-25.588 -23.791,-33.94c-6.851,-20.93 -22.851,-19.503 -11.632,-38.36Z" style="fill:#dadddc;"/><path d="M3621.204,1653.503c2.891,2.411 13.524,11.279 28.502,37.451c4.823,8.426 1.003,10.635 8.688,15.902c11.091,7.601 21.562,45.007 46.901,70.811c-4.79,8.649 -5.082,8.491 -5.173,9.341c-0.181,1.674 -0.399,3.699 -13.381,16.243c-2.917,0.458 -5.834,0.915 -8.751,1.373c-19.924,-10.929 -19.277,-12.95 -21.189,-29.755c-0.135,-1.183 -3.114,-7.991 -3.413,-8.675l3.529,-4.423c12.399,-7.533 11.836,-7.846 12.953,-8.369c10.807,-5.06 -3.688,-7.034 -3.763,-7.072c-4.313,-1.497 -8.627,-2.995 -12.94,-4.492c-3.352,-4.049 -3.682,-3.128 -6.873,-6.761c-4.431,-5.045 7.508,-5.588 2.997,-10.579c-0.836,-0.925 -0.984,-0.603 -13.285,-8.147c3.442,-8.158 8.482,-10.292 1.244,-13.42c-0.446,-0.193 -0.383,-0.235 -5.173,-3.17c-14.555,-3.1 -14.394,-6.346 -15.164,-6.898c0.184,-7.054 0.176,-6.656 -1.064,-14.011c9.947,-8.339 5.108,-10.766 -4.028,-20.301c3.128,-1.682 6.256,-3.364 9.384,-5.046Z" style="fill:#dcdfde;"/><path d="M3495.179,1478.381c-11.218,18.857 4.781,17.43 11.632,38.36c2.734,8.352 21.684,31.38 23.791,33.94c1.417,1.721 1.263,1.742 16.478,27.016c7.51,12.475 5.594,13.108 13.293,25.799c2.038,2.583 4.077,5.167 6.115,7.75c11.01,12.416 12.299,10.674 23.13,23.039c1.226,2.293 2.451,4.587 3.677,6.88c-1.55,17.467 6.735,16.205 10.691,20.849c1.167,1.905 0.003,4.694 1.17,6.599c0.618,1.01 0.792,0.758 10.692,10.238c1.241,7.355 1.249,6.957 1.064,14.011l-5.993,4.225c-6.057,-2.803 -6.626,-1.969 -11.078,-10.414c-6.366,-12.078 -6.566,-11.559 -16.466,-20.899c-1.285,-1.213 -2.465,-9.191 -4.926,-12.099c-19.034,-22.489 -12.182,-26.935 -25.296,-41.41c-20.83,-22.993 -11.333,-29.061 -26.483,-44.427c-29.575,-29.996 -22.153,-35.146 -47.889,-68.624l-0.739,-3.677c-0.147,-2.859 -0.294,-5.717 -0.441,-8.576c8.751,-4.695 8.845,-3.954 17.579,-8.58Z" style="fill:#eeefef;"/><path d="M3925.55,2190.284c14.461,18.855 13.737,19.03 82.055,121.732c-18.303,7.851 -5.444,13.513 6.83,29.157c3.307,4.215 3.74,4.192 4.213,4.167c4.633,-0.249 2.282,-4.516 6.912,-4.765l7.913,12.197c-5.506,6.071 -8.636,6.308 -4.422,13.087c1.031,1.659 12.865,20.698 12.842,20.765c-0.638,1.895 -3.733,2.213 -4.372,4.108c-0.929,-0.893 -7.245,-6.961 -10.682,-12.058c-2.734,-4.055 -34.055,-50.501 -34.119,-50.722c-4.319,-14.975 -31.436,-47.453 -52.91,-81.827c1.707,-3.816 3.805,-1.488 5.381,-5.012c0.109,-0.245 0.111,-0.248 -1.906,-2.757c-5.172,-6.433 -0.393,-8.844 -6.504,-13.999c-3.845,-3.244 -2.951,-3.699 -5.747,-7.848c-13.624,-20.217 -15.814,-18.707 -16.293,-20.763c-0.434,-1.861 3.979,1.606 5.685,0.744c2.394,-1.21 2.728,-4.996 5.122,-6.206Z" style="fill:#888887;"/><path d="M4378.802,2823.71c10.703,6.329 10.707,5.731 20.818,12.851c11.277,5.047 10.922,4.718 11.86,5.154c5.532,4.15 12.355,5.284 14.088,24.525c0.921,10.222 5.144,8.193 9.526,17.382c0.871,1.826 20.776,61.904 23.851,73.501c-5.307,8.772 -6.977,13.336 -14.394,5.806c0.261,-1.089 6.328,-3.002 2.824,-11.788c-13.286,-33.315 -20.247,-34.184 -31.709,-47.271c-16.149,-21.701 -32.587,-29.626 -37.861,-33.228l-2.893,-4.793c1.233,-2.819 2.465,-5.639 3.698,-8.458c36.113,31.66 36.241,31.265 45.678,40.684c5.426,-11.085 0.798,-11.143 -8.494,-19.171c-3.158,-2.728 -31.415,-27.139 -36.074,-37.684c-2.362,-5.345 -3.974,-3.73 -6.644,-8.837c-0.385,-0.737 0.409,-0.62 5.726,-8.675Z" style="fill:#626467;"/><path d="M3686.272,1843.277c6.462,6.223 3.693,7.795 9.185,14.564c1.748,2.155 7.578,4.574 8.137,4.337c2.562,-1.086 3.526,-4.627 6.088,-5.713c9.331,5.955 10.133,6.071 11.275,17.299c-1.448,2.406 -5.397,2.504 -6.845,4.91c-2.191,3.642 0.327,3.241 14.337,18.469c-1.224,2.047 -2.402,0.105 -3.553,2.031c-0.346,0.579 1.397,0.311 1.858,0.804c2.045,2.186 29.226,43.927 42.28,70.27c0.823,2.11 0.032,10.375 25.12,43.269c3.184,4.175 7.398,14.392 13.373,23.544c-2.308,1.133 -4.615,2.266 -6.923,3.398c-0.816,-1.036 -0.702,-0.965 -5.04,-7.911c-31.628,-50.643 -45.027,-44.283 -49.809,-66.523c-6.681,-31.073 -10.177,-29.48 -27.895,-55.552c-21.939,-32.283 -13.027,-36.468 -15.773,-38.326c-13.655,-9.236 -14.023,-8.638 -23.969,-22.097c2.718,-2.258 5.437,-4.515 8.155,-6.773Z" style="fill:#949494;"/><path d="M3850.065,2098.673c0.604,0.37 7.55,4.628 7.55,4.628c0.651,0.89 -2.154,4.553 4.251,10.378c2.212,2.012 3.265,1.66 3.559,1.561c4.004,-1.342 2.176,-3.483 5.911,-4.735c35.564,49.667 50.15,73.219 54.213,79.779c-2.394,1.21 -2.728,4.996 -5.122,6.206c-1.706,0.862 -6.119,-2.605 -5.685,-0.744c0.479,2.056 2.669,0.546 16.293,20.763c2.795,4.148 1.902,4.604 5.747,7.848c6.11,5.155 1.332,7.566 6.504,13.999c2.017,2.509 2.016,2.513 1.906,2.757c-1.576,3.524 -3.674,1.195 -5.381,5.012c-9.15,-13.931 -12.303,-17.508 -13.533,-18.903c-1.442,-1.636 -4.982,-6.808 -5.396,-7.413c-36.101,-52.748 -34.023,-53.959 -37.326,-58.414c1.835,-2.873 9.715,-3.249 1.27,-10.363c-0.726,-0.611 -10.402,-13.45 -10.974,-13.695c-1.785,-0.768 -2.602,4.605 -4.387,3.837c-4.481,-6.035 -24.997,-36.198 -24.523,-37.376c0.901,-2.241 4.223,-2.883 5.123,-5.124Z" style="fill:#888986;"/><path d="M4293.024,2739.49c47.141,70.465 47.101,71.856 60.425,76.699c13.034,3.083 12.893,2.369 25.353,7.521c-5.317,8.055 -6.111,7.938 -5.726,8.675c2.67,5.106 4.283,3.491 6.644,8.837c4.659,10.545 32.916,34.956 36.074,37.684c9.293,8.028 13.921,8.086 8.494,19.171c-9.437,-9.419 -9.565,-9.024 -45.678,-40.684c-1.317,-2.2 -5.001,-0.227 -4.677,-7.814c0.173,-4.062 -1.03,-3.287 -8.218,-11.905c-0.774,-0.667 -6.28,-5.409 -8.939,-9.119c-4.978,-6.945 -7.068,0.32 -7.601,0.344c-20.764,-7.462 -28.034,-24.725 -28.647,-25.495c-2.144,-3.466 -22.268,-36 -28.265,-42.378c-0.653,-1.367 -0.635,-1.229 -6.42,-11.038c-4.098,-6.949 0.519,-6.302 7.18,-10.497Z" style="fill:#7f8081;"/><path d="M4336.773,2837.013c23.887,6.351 19.447,12.91 38.14,28.837l2.893,4.793c-3.681,11.808 1.379,10.826 9.175,20.125c10.64,12.691 13.145,20.679 28.686,13.103c11.462,13.087 18.423,13.956 31.709,47.271c3.504,8.785 -2.563,10.698 -2.824,11.788c-4.195,-7.023 -4.138,-6.997 -4.53,-7.585c-2.033,-3.046 -36.254,-36.972 -37.559,-37.919c-26.139,-18.965 -50.112,-55.993 -53.114,-56.884c-1.753,-0.52 -3.341,2.554 -5.094,2.034c-0.711,-2.009 -6.026,-17.033 -7.481,-25.562Z" style="fill:#cacbcd;"/><path d="M3769.034,1970.247c7.973,-0.339 7.776,-0.305 14.915,3.881c48.232,87.846 71.786,102.771 87.388,136.376c-3.735,1.252 -1.908,3.393 -5.911,4.735c-0.295,0.099 -1.347,0.451 -3.559,-1.561c-6.404,-5.825 -3.6,-9.488 -4.251,-10.378c0,0 -6.946,-4.257 -7.55,-4.628c-0.823,-0.851 -4.071,-4.209 -9.074,-11.684c-0.022,-3.409 2.799,-1.963 2.778,-5.162c-0.002,-0.339 -0.008,-1.244 -2.832,-3.153c-3.537,-2.391 -8.658,-5.853 -33.411,-41.614c-5.975,-9.152 -10.189,-19.369 -13.373,-23.544c-25.087,-32.893 -24.297,-41.159 -25.12,-43.269Z" style="fill:#6e6f6e;"/><path d="M3457.515,1499.493c7.111,5.426 6.186,5.901 24.002,29.181c8.741,7.715 9.421,7.31 9.421,8.316c0,2.047 -4.047,2.478 -4.155,4.522c-0.204,3.843 11.368,5.539 32.136,41.827c29.294,51.184 32.621,48.708 34.53,53.425c0.657,1.622 -1.173,3.602 -0.516,5.224c-30.024,1.341 -42.619,-61.775 -50.225,-66.262c-2.441,-1.44 -14.284,-8.425 -23.098,-26.854c-21.034,-43.976 -28.031,-41.282 -26.599,-45.227c0.697,-1.92 3.807,-2.233 4.504,-4.153Z" style="fill:#989998;"/><path d="M3620.763,1735.004c11.492,1.278 11.429,1.2 12.412,1.381c1.345,0.247 0.626,1.218 2.141,1.495c11.15,19.318 12.508,18.274 14.237,19.435c2.47,4.292 1.204,4.564 3.834,8.878c0.299,0.683 3.279,7.492 3.413,8.675c1.912,16.805 1.265,18.827 21.189,29.755c3.276,2.487 6.552,4.975 9.828,7.462l-0.401,3.858c0.176,1.187 0.351,2.374 0.527,3.561c1.36,2.716 2.721,5.432 4.081,8.148c-10.09,7.582 -11.618,5.947 -17.319,17.446c-1.317,-1.895 -9.391,-13.515 -5.239,-28.371c-1.199,-1.168 -2.398,-2.336 -3.598,-3.504c-17.933,-22.131 -18.557,-22.663 -20.802,-21.788c-2.01,0.783 -2.545,3.813 -4.554,4.596c-7.987,-5.675 -4.604,-7.374 -4.072,-13.241c-3.429,-11.914 1.102,-11.019 3.075,-13.787c0.374,-0.524 3.124,-4.382 -2.794,-7.542c-1.21,-0.646 -2.884,1.068 -4.094,0.422c-8.742,-12.732 -10.981,-11.782 -11.865,-26.88Z" style="fill:#878786;"/><path d="M3519.332,1679.294c10.194,-3.53 12.659,-2.623 14.891,7.713c1.463,6.774 21.774,13.753 22.372,16.954c0.201,1.076 -4.259,8.792 5.513,11.748c2.723,0.824 5.102,5.877 5.038,8.68c-0.263,11.625 9.043,7.534 19.44,33.711c-7.264,1.266 -6.736,1.845 -12.305,7.153c-3.115,-3.285 -4.092,-1.95 -5.762,-6.078c-1.076,-2.66 -4.39,-0.192 -18.706,-30.606c-5.68,-7.157 -5.976,-6.351 -12.553,-12.993c-1.72,-4.141 -16.472,-33.391 -17.93,-36.282Z" style="fill:#bcbdbb;"/><path d="M3391.086,1428.073c6.35,1.391 5.902,1.508 12.243,1.649c5.1,5.164 5.231,4.56 8.943,11.017c-4.081,1.822 -8.161,3.644 -12.242,5.465c-4.062,-2.009 -1.844,-3.98 -5.578,-5.827c-0.231,-0.115 -0.303,-0.15 -2.735,1.715c-4.364,3.348 -15.985,10.762 -17.398,11.664c-9.748,4.413 -8.934,6.832 -25.123,7.96c-0.623,0.043 -4.696,0.327 -7.691,1.34c-14.309,4.841 -14.055,-2.231 -13.482,-17.434c16.494,1.041 14.779,-4.034 29.015,-12.854c23.299,8.985 26.097,1.519 34.048,-4.694Z" style="fill:#c8c9c5;"/><path d="M4221.333,2631.866c3.161,4.697 24.997,42.562 57.151,84.288c-0.458,1.272 1.998,2.481 1.539,3.753c-3.854,10.705 -17.424,-3.06 -17.817,-4.049c-2.832,-7.115 -3.585,-6.341 -9.914,-11.052c-7.527,-12.411 -6.953,-12.448 -14.478,-22.569c-0.793,-1.614 -0.817,-1.516 -15.747,-25.584c-7.561,-12.167 -8.6,-13.543 -0.735,-24.788Z" style="fill:#6a6c6b;"/><path d="M3417.57,1527.985c5.041,6.701 2.9,7.578 57.289,87.779c15.411,22.725 14.836,23.534 13.502,25.411c-1.441,2.027 -4.592,2.361 -6.033,4.388c-2.077,-2.95 -1.359,-3.359 -25.035,-37.512c-8.53,-12.304 -38.705,-62.587 -41.947,-66.245c-8.517,-9.609 1.613,-12.81 2.224,-13.819Z" style="fill:#9e9e9e;"/><path d="M3733.869,1890.301c12.422,19.005 11.968,18.926 24.25,38.109c17.806,27.812 31.189,23.591 25.83,45.718c-7.139,-4.186 -6.942,-4.22 -14.915,-3.881c-13.053,-26.343 -40.235,-68.084 -42.28,-70.27c-0.461,-0.493 -2.205,-0.225 -1.858,-0.804c1.151,-1.926 2.329,0.017 3.553,-2.031l5.42,-6.842Z" style="fill:#6f7171;"/><path d="M3616.913,1692.862c0.769,0.553 0.609,3.798 15.164,6.898c-1.177,4.264 -3.359,4.674 3.928,16.59c12.301,7.544 12.449,7.222 13.285,8.147c4.511,4.991 -7.428,5.534 -2.997,10.579c3.191,3.633 3.522,2.712 6.873,6.761c1.622,2.648 3.244,5.296 4.867,7.944c-2.827,2.511 -5.654,5.023 -8.48,7.534c-1.729,-1.161 -3.087,-0.118 -14.237,-19.435c-7.445,-12.341 -6.246,-13.27 -12.021,-16.718c-12.449,-7.434 -8.955,-10.17 -12.376,-24.075l5.993,-4.225Z" style="fill:#e9ebea;"/><path d="M4320.529,2803.403c0.612,0.77 7.882,18.034 28.647,25.495c8.194,4.977 7.627,5.203 16.54,8.775c7.188,8.618 8.391,7.843 8.218,11.905c-0.323,7.587 3.361,5.614 4.677,7.814c-1.233,2.819 -2.465,5.639 -3.698,8.458c-18.693,-15.927 -14.253,-22.487 -38.14,-28.837c-1.722,-2.216 -20.569,-26.466 -20.824,-28.237c-0.335,-2.329 4.914,-3.044 4.579,-5.374Z" style="fill:#77797a;"/><path d="M4252.292,2704.807c6.329,4.711 7.082,3.938 9.914,11.052c0.394,0.989 13.963,14.754 17.817,4.049c0.458,-1.272 -1.998,-2.481 -1.539,-3.753c13.56,21.613 13.191,21.597 14.539,23.335c-6.661,4.195 -11.278,3.548 -7.18,10.497c5.785,9.809 5.767,9.672 6.42,11.038c-8.933,-3.205 -9.133,-2.823 -9.648,-3.461c-25.354,-31.454 -29.217,-48.016 -30.323,-52.757Z" style="fill:#8e8f8f;"/><path d="M3461.742,1425.8l8.153,-2.285c3.021,4.427 6.042,8.854 9.064,13.281c-7.974,9.817 -14.136,14.268 -2.177,18.209c9.3,3.065 10.78,15.333 10.973,16.935c-1.812,0.444 -3.515,-2.163 -5.327,-1.72c-0.723,0.177 0.042,0.765 -4.004,8.395c-7.819,-17.922 -14.777,-13.937 -19.896,-32.759c5.06,-11.934 5.617,-12.068 5.03,-13.018c-1.353,-2.188 -4.693,-2.609 -6.046,-4.797l4.229,-2.243Z" style="fill:#dce2e2;"/><path d="M3549.815,1728.569c14.316,30.414 17.629,27.946 18.706,30.606c1.67,4.128 2.647,2.792 5.762,6.078c0.968,0.497 12.098,6.216 12.109,6.206c2.366,-2.201 1.077,-6.862 3.443,-9.063c5.385,10.442 5.421,10.377 5.721,11.292c-1.095,0.655 -6.135,3.668 -12.977,9.269c-8.345,-6.921 -10.68,-0.15 -10.735,-0.117c-0.937,-17.871 -10.743,-13.965 -18.394,-29.058c-9.381,-18.506 -10.927,-18.568 -9.358,-21.069c1.252,-1.995 4.472,-2.149 5.724,-4.144Z" style="fill:#a6a6a5;"/><path d="M3274.694,1451.307c-19.189,23.032 16.897,3.22 20.201,6.621c0.394,0.405 0.752,3.425 0.788,3.727c0.72,6.072 2.838,4.583 4.423,7.142c-1.866,1.285 0.589,5.326 -9.022,6.215c-14.465,1.339 -24.091,5.398 -29.402,-21.308c-0.808,-4.063 -7.233,-4.453 -5.115,-8.363c0.727,-1.342 3.967,-7.325 18.127,5.966Z" style="fill:#a0a09f;"/><path d="M3478.959,1436.797c15.839,14.792 12.843,16.876 29.838,40.863c-2.698,1.2 -2.65,5.861 -5.347,7.062c0,0 -7.609,-5.834 -8.27,-6.341c-2.475,-2.147 -4.949,-4.293 -7.424,-6.44c-0.193,-1.603 -1.673,-13.871 -10.973,-16.935c-11.959,-3.941 -5.797,-8.392 2.177,-18.209Z" style="fill:#d2d6d5;"/><path d="M3497.76,1667.231c4.017,-1.641 8.754,-8.915 21.572,12.063c1.458,2.891 16.21,32.141 17.93,36.282c-9.283,-0.834 -11.169,-1.097 -39.502,-48.345Z" style="fill:#9f9f9f;"/><path d="M3415.831,1420.716c0.615,0.407 4.438,-2.731 5.412,3.579c3.528,22.86 19.741,24.632 4.311,41.822c-12.019,-23.788 -12.271,-23.321 -13.281,-25.378c-3.712,-6.457 -3.843,-5.852 -8.943,-11.017c10.544,-7.36 10.529,-7.152 12.502,-9.006Z" style="fill:#9b9d9e;"/><path d="M3807.527,2037.06c24.753,35.761 29.874,39.223 33.411,41.614c2.824,1.909 2.83,2.814 2.832,3.153c0.021,3.199 -2.8,1.753 -2.778,5.162c-1.393,-0.108 -1.225,3.38 -2.618,3.272c-7.642,-0.59 -35.16,-45.538 -37.77,-49.802c2.308,-1.133 4.615,-2.266 6.923,-3.398Z" style="fill:#9d9d9d;"/><path d="M4377.805,2870.644c5.273,3.602 21.711,11.527 37.861,33.228c-15.541,7.576 -18.046,-0.412 -28.686,-13.103c-7.796,-9.299 -12.856,-8.317 -9.175,-20.125Z" style="fill:#a6a8a8;"/><path d="M3436.866,1420.479c1.041,0.634 7.238,4.406 12.102,9.251c2.848,-0.562 5.696,-1.125 8.544,-1.687c1.353,2.188 4.693,2.609 6.046,4.797c0.587,0.95 0.03,1.084 -5.03,13.018c-7.915,6.726 -7.539,6.581 -10.144,8.379c-6.968,-12.023 -4.849,-12.964 -13.457,-24.227c-5.17,-6.765 -0.545,-7.1 1.939,-9.531Z" style="fill:#f4f5f8;"/><path d="M3458.529,1445.858c5.119,18.822 12.077,14.837 19.896,32.759l-4.211,4.412c-18.741,-7.205 -14.656,-11.734 -25.829,-28.792c2.605,-1.798 2.229,-1.653 10.144,-8.379Z" style="fill:#eef3f4;"/><path d="M3474.732,1394.931c2.751,8.625 3.027,8.181 4.639,17.081c-4.275,6.478 -3.548,6.582 -9.476,11.504l-8.153,2.285c0.101,-3.675 -2.818,-2.415 -2.709,-6.392c0.068,-2.474 2.57,-0.705 2.973,-3.234c0.238,-1.494 -1.636,-2.663 -1.795,-4.167c-0.989,-9.366 12.916,-16.278 14.522,-17.077Z" style="fill:#434446;"/><path d="M3652.717,1812.416c1.641,1.576 3.281,3.151 4.922,4.727c-16.468,17.122 -18.935,13.712 -37.568,28.216c-3.481,-4.605 -4.684,-10.377 -4.885,-11.344c28.403,-15.194 27.736,-16.434 30.404,-17.275c4.048,-1.277 3.36,-2.038 7.127,-4.323Z" style="fill:#a6a6a6;"/><path d="M4007.605,2312.017c1.51,2.237 6.362,9.424 17.956,28.559c-4.63,0.249 -2.279,4.516 -6.912,4.765c-0.473,0.025 -0.906,0.049 -4.213,-4.167c-12.274,-15.645 -25.134,-21.307 -6.83,-29.157Z" style="fill:#71716f;"/><path d="M3397.919,1410.66c9.021,5.358 8.762,5.264 17.912,10.055c-1.973,1.855 -1.957,1.647 -12.502,9.006c-6.341,-0.14 -5.892,-0.258 -12.243,-1.649c-3.086,-2.869 -6.172,-5.738 -9.257,-8.607l16.09,-8.806Z" style="fill:#939392;"/><path d="M3696.364,1804.641c1.745,1.527 3.491,3.054 5.236,4.581c9.689,20.575 0.21,20.047 -4.18,25.069l-5.394,-6.638c-1.36,-2.716 -2.721,-5.432 -4.081,-8.148l-0.527,-3.561l0.401,-3.858c0.725,-0.545 0.399,-0.862 8.546,-7.445Z" style="fill:#f1f1f1;"/><path d="M3381.829,1419.467c3.086,2.869 6.172,5.738 9.257,8.607c-7.951,6.213 -10.749,13.679 -34.048,4.694c11.411,-9.119 11.529,-8.202 24.791,-13.301Z" style="fill:#9d9d9a;"/><path d="M3698.856,1837.193l2.719,4.713c2.702,4.853 5.405,9.706 8.107,14.559c-2.562,1.086 -3.526,4.627 -6.088,5.713c-0.559,0.237 -6.389,-2.183 -8.137,-4.337c-5.492,-6.769 -2.723,-8.341 -9.185,-14.564c6.383,-3.726 6.003,-3.63 12.585,-6.084Z" style="fill:#828282;"/><path d="M3557.29,1645.449c13.336,17.939 12.863,19.527 7.654,29.315c-18.359,-18.24 -12.905,-21.366 -7.654,-29.315Z" style="fill:#9b9b9b;"/><path d="M3640.513,1796.032c2.01,-0.783 2.545,-3.813 4.554,-4.596c2.245,-0.875 2.869,-0.344 20.802,21.788c-2.743,1.306 -5.487,2.613 -8.23,3.919c-1.641,-1.576 -3.281,-3.151 -4.922,-4.727c-4.347,-6.618 -11.179,-15.111 -12.204,-16.384Z" style="fill:#999;"/><path d="M3720.957,1873.764c7.333,7.609 7.203,7.365 12.912,16.537l-5.42,6.842c-14.01,-15.228 -16.528,-14.827 -14.337,-18.469c1.448,-2.406 5.397,-2.504 6.845,-4.91Z" style="fill:#7a7a7a;"/><path d="M3692.025,1827.653l5.394,6.638l1.437,2.902c-6.582,2.454 -6.202,2.358 -12.585,6.084c-2.718,2.258 -5.437,4.515 -8.155,6.773l-3.41,-4.951c5.701,-11.499 7.229,-9.863 17.319,-17.446Z" style="fill:#7f7f7f;"/><path d="M3644.118,1861.231c20.369,-20.302 26.37,-7.947 27.348,-5.933c0.559,1.15 0.248,2.069 -14.647,6.392c-7.004,4.601 -6.905,5.293 -7.543,4.955c-2.202,-1.168 -2.956,-4.245 -5.158,-5.413Z" style="fill:#a6a6a6;"/><path d="M3611.82,1658.55c9.136,9.535 13.975,11.962 4.028,20.301c-9.9,-9.48 -10.073,-9.228 -10.692,-10.238c-1.167,-1.905 -0.003,-4.694 -1.17,-6.599c2.611,-1.155 5.222,-2.309 7.833,-3.464Z" style="fill:#c6c8c7;"/><path d="M3429.423,1472.554c17.842,-4.869 14.19,5.888 18.437,7.789c1.725,0.772 4.648,-0.695 5.589,0.943c1.238,2.153 -2.026,5.256 -0.788,7.409c-14.932,-1.772 -13.107,-5.215 -23.238,-16.14Z" style="fill:#979998;"/><path d="M3883.556,2161.395c-8.791,-9.08 -8.785,-8.839 -14.091,-20.221c1.785,0.768 2.602,-4.605 4.387,-3.837c0.572,0.246 10.248,13.084 10.974,13.695c8.445,7.114 0.565,7.49 -1.27,10.363Z" style="fill:#9a9a98;"/><path d="M3666.107,1746.329c0.075,0.038 14.57,2.012 3.763,7.072c-1.117,0.523 -0.554,0.837 -12.953,8.369c-2.454,-1.485 -4.909,-2.97 -7.363,-4.455c2.827,-2.511 5.654,-5.023 8.48,-7.534c3.077,-2.175 2.946,-1.656 8.073,-3.452Z" style="fill:#c5c5c5;"/><path d="M3595.555,1773.688c7.465,7.87 4.683,9.589 -2.533,17.618c-0.843,-0.584 -6.062,1.642 -9.166,-6.35c-0.479,-1.234 -0.814,-0.802 -1.278,-1.998c6.842,-5.602 11.882,-8.615 12.977,-9.269Z" style="fill:#969694;"/><path d="M4160.732,2662.634c1.658,0.549 3.559,-1.034 5.217,-0.485c4.943,1.636 8.482,12.543 13.288,15.903c3.453,2.414 1.125,3.072 -1.975,9.713c-1.255,-2.053 -1.644,-1.745 -16.531,-25.131Z" style="fill:#929292;"/><path d="M3436.866,1420.479c1.1,-0.874 12.469,-9.906 15.777,-7.726c0.09,0.059 3.619,0.464 -3.675,16.977c-4.864,-4.845 -11.061,-8.617 -12.102,-9.251Z" style="fill:#c9c7cc;"/><path d="M3487.755,1471.941c2.475,2.147 4.949,4.293 7.424,6.44c-8.733,4.626 -8.828,3.884 -17.579,8.58l-3.387,-3.931l4.211,-4.412c4.046,-7.631 3.281,-8.219 4.004,-8.395c1.812,-0.444 3.515,2.163 5.327,1.72Z" style="fill:#c4c8c7;"/><path d="M4222.068,2656.654c14.93,24.068 14.954,23.969 15.747,25.584c-1.395,-1.028 -3.804,1.03 -5.198,0.002c-2.743,-2.022 -5.98,-8.16 -6.391,-8.938c-5.6,-10.618 -5.017,-10.762 -5.511,-11.669l1.353,-4.979Z" style="fill:#989898;"/><path d="M3532.698,1653.713c-0.16,3.536 5.088,-0.594 4.92,3.12c-0.032,0.707 -0.063,1.402 -5.379,7.028c-4.751,5.028 -5.298,1.848 -7.957,0.351c-1.795,-1.011 -5.797,-0.042 -5.811,-2.102c-0.028,-4.108 2.127,-2.533 14.226,-8.396Z" style="fill:#c8c8c8;"/><path d="M3586.587,1758.1l3.247,4.296c-2.366,2.201 -1.077,6.862 -3.443,9.063c-0.011,0.01 -11.14,-5.709 -12.109,-6.206c5.568,-5.308 5.041,-5.887 12.305,-7.153Z" style="fill:#a7a7a5;"/><path d="M3711.914,1949.448c-2.366,-4.592 -7.381,-7.692 1.027,-14.399c1.856,-1.481 6.802,-0.465 7.174,0.388c2.901,6.654 -1.031,5.784 -8.201,14.011Z" style="fill:#c1c1c2;"/><path d="M3570.205,1570.3l2.738,4.767c-2.948,2.255 -4.124,6.344 -7.072,8.599c-1.906,1.458 -13.759,-5.223 4.333,-13.366Z" style="fill:#d2d4d3;"/><path d="M4184.852,2609.172c-9.611,-10.816 -11.571,-16.36 -12.15,-17.998c13.158,1.209 13.037,4.531 12.15,17.998Z" style="fill:#9a9a9a;"/><path d="M3728.341,2007.928c2.33,1.899 2.131,1.693 4.606,3.756c10.995,9.162 2.975,10.833 2.406,13.804c-5.39,-8.447 -8.774,-7.581 -7.012,-17.56Z" style="fill:#979795;"/><path d="M3632.076,1699.76c4.79,2.935 4.727,2.977 5.173,3.17c7.238,3.128 2.198,5.262 -1.244,13.42c-7.287,-11.916 -5.105,-12.326 -3.928,-16.59Z" style="fill:#e2e6e5;"/><path d="M4399.598,2853.554c0.632,-0.32 7.894,-3.994 7.894,-3.994c0.708,0.325 0.378,0.615 5.102,8.299c-1.639,1.29 -3.278,2.58 -4.917,3.869c-4.736,-3.928 -4.572,-3.546 -8.08,-8.174Z" style="fill:#bebfc3;"/><path d="M4312.981,2848.008c-7.134,3.838 -8.473,13.723 -10.531,5.666c-3.054,-11.953 9.663,-6.067 10.531,-5.666Z" style="fill:#c7c7c7;"/><path d="M4349.175,2828.898c0.533,-0.024 2.623,-7.29 7.601,-0.344c2.659,3.71 8.165,8.453 8.939,9.119c-8.914,-3.572 -8.346,-3.798 -16.54,-8.775Z" style="fill:#8b8d8d;"/><path d="M3612.243,1779.172c-1.265,-2.383 -5.349,-2.282 -6.614,-4.664c-1.894,-3.567 7.659,-8.335 10.258,-0.035c0.142,0.454 0,0 -3.644,4.699Z" style="fill:#b9b9b7;"/><path d="M3653.167,1741.837c4.313,1.497 8.627,2.995 12.94,4.492c-5.128,1.796 -4.996,1.277 -8.073,3.452c-1.622,-2.648 -3.244,-5.296 -4.867,-7.944Z" style="fill:#e1e1e1;"/><path d="M3696.364,1804.641c0.915,-0.426 17.519,-8.148 12.582,-0.967c-1.738,2.529 -5.607,3.019 -7.346,5.548c-1.745,-1.527 -3.491,-3.054 -5.236,-4.581Z" style="fill:#e2e5e4;"/><path d="M4079.157,2440.698c2.469,4.617 0.553,4.54 -1.59,9.4c0.53,-3.133 1.06,-6.266 1.59,-9.4Z" style="fill:#9b9b99;"/><path d="M3644.118,1861.231c2.202,1.168 2.956,4.245 5.158,5.413c0.638,0.338 0.539,-0.354 7.543,-4.955l-0.89,4.428c-1.579,0.612 -1.439,3.474 -3.018,4.086c-7.356,2.851 -5.309,-2.043 -8.792,-8.972Z" style="fill:#b2b2b2;"/><path d="M4066.092,2432.722c3.137,1.125 6.273,2.249 9.41,3.374c-1.919,-0.157 -3.467,2.243 -5.386,2.086c0,0 -3.702,-5.023 -4.024,-5.46Z" style="fill:#9e9e9c;"/><path d="M4061.498,2416.35c0.293,2.628 0.587,5.256 0.88,7.884c-4.436,-3.589 -4.921,-3.401 -4.791,-3.877c0.495,-1.8 3.416,-2.208 3.91,-4.008Z" style="fill:#a0a0a0;"/><path d="M4412.595,2857.858c-0.145,1.765 3.235,2.556 3.09,4.321c-0.437,5.33 -2.78,-0.157 -8.007,-0.451c1.639,-1.29 3.278,-2.58 4.917,-3.869Z" style="fill:#95969a;"/><path d="M3649.553,1757.315c2.454,1.485 4.909,2.97 7.363,4.455l-3.529,4.423c-2.631,-4.314 -1.364,-4.587 -3.834,-8.878Z" style="fill:#b6b6b6;"/></svg>