<?xml version="1.0" encoding="UTF-8" standalone="no"?><!DOCTYPE svg PUBLIC "-//W3C//DTD SVG 1.1//EN" "http://www.w3.org/Graphics/SVG/1.1/DTD/svg11.dtd"><svg width="100%" height="100%" viewBox="0 0 8000 4500" version="1.1" xmlns="http://www.w3.org/2000/svg" xmlns:xlink="http://www.w3.org/1999/xlink" xml:space="preserve" xmlns:serif="http://www.serif.com/" style="fill-rule:evenodd;clip-rule:evenodd;stroke-linejoin:round;stroke-miterlimit:2;"><path d="M3837.044,1161.341c-9.99,41.218 4.535,40.278 4.647,83.263c3.551,3.717 53.524,56.031 64.828,11.346c8.462,-33.453 7.396,-33.642 29.513,-60.708c5.321,0.983 5.875,13.587 44.046,-2.632c40.095,50.436 16.533,69.844 76.159,97.622c4.222,6.461 8.444,12.923 12.666,19.384c-9.257,4.034 -18.514,8.068 -27.771,12.102c-10.268,-3.188 -20.535,-6.377 -30.803,-9.565c-30.746,-0.261 -37.368,7.966 -24.186,33.538c2.214,1.724 0.599,1.412 26.681,22.667l-24.881,13.398c24.235,31.312 24.204,30.394 51.357,58.753c17.591,20.141 15.055,23.055 41.537,30.385c4.008,7.541 48.108,90.522 51.371,93.644c7.424,7.103 9.566,-1.52 128.181,27.835c23.891,11.533 23.689,11.557 25.802,12.455c5.027,2.137 4.532,-0.382 10.26,2.053l17.968,8.085c-14.495,14.149 -28.99,28.299 -43.485,42.448c-72.031,-62.194 -78.913,-53.167 -176.573,-55.115c-0.803,-7.785 -19.92,-193.076 -99.664,-23.029c-10.822,23.077 6.992,15.601 32.702,23.342c42.93,12.927 -14.14,15.247 -36.127,53.273c-21.711,37.549 -22.199,48.991 19.683,63.992c13.091,4.689 16.075,40.52 41.144,46.181c24.969,5.638 25.355,4.618 42.025,24.549c-6.024,19.437 -5.394,18.518 -11.751,37.915c-10.434,31.839 10.185,28.474 17.645,61.245l-10.878,8.749c-147.44,40.084 -98.564,114.496 -78.332,120.525c29.721,8.857 47.15,-14.792 53.105,18.835c-48.451,26.834 -42.563,41.392 -7.68,82.244c11.226,13.147 42.307,-10.281 59.691,-21.158c25.548,-15.984 3.999,-52.418 1.715,-60.234c6.108,-1.507 6.252,-12.161 12.359,-13.668c8.601,-2.122 17.431,3.622 26.299,4.13c24.13,1.381 40.669,-60.382 47.95,-77.802c8.33,-7.129 8.784,-4.884 16.062,-13.745c0.872,-1.062 0,0 13.284,-11.121c29.998,-34.911 62.867,-61.767 39.081,-72.039c-5.282,-2.281 -39.312,12.77 -51.245,23.029c-17.005,14.619 -13.198,16.469 -20.885,37.283c-1.855,9.996 -3.71,19.993 -5.565,29.989c-28.422,-1.664 -27.485,4.837 -56.152,-0.368l2.734,-19.055c4.967,-3.525 9.934,-7.05 14.9,-10.575c17.355,-31.271 17.139,-31.125 18.743,-33.772c31.086,-51.302 88.254,-36.419 60.722,-66.65c-20.282,-22.27 -20.155,-21.315 -41.091,-43.454c4.086,-2.282 10.114,1.893 14.2,-0.39c19.149,-10.696 16.494,-29.145 16.621,-29.369c11.816,31.901 29.481,67.224 85.53,71.079c3.736,6.86 15.777,2.342 16.702,44.438c-15.454,19.135 -16.395,18.598 -16.69,20.665c-0.558,3.913 20.817,37.754 36.171,-10.367l19.931,7.341c15.382,11.352 45.151,26.305 49.221,28.35c2.087,1.023 26.081,12.787 26.081,12.787c2.494,-0.833 1.198,-1.984 16.487,-27.297c42.791,102.835 41.477,112.284 72.86,112.251c2.064,7.248 -7.335,9.963 7.375,25.897c3.808,4.125 9.599,6.284 13.407,10.408c3.065,1.104 2.255,1.584 36.321,18.033c-3.045,1.837 -2.477,1.932 -36.111,25.666c-127.28,-104.167 -118.163,-178.12 -214.249,-164.553c-13.605,1.505 -107.861,11.929 -127.027,109.444c-2.864,14.573 51.737,21.105 38.816,64.019c-6.532,21.695 -24.639,10.741 -29.253,36.32c-6.618,36.695 -55.487,25.529 -63.484,21.577c-30.107,-14.88 -31.582,-8.283 -61.001,6.743c-10.551,9.454 -21.102,18.907 -31.653,28.361c-48.223,26.133 -42.579,31.723 -62.666,79.937c1.53,24.993 -6.091,28.023 13.462,44.605c14.616,6.376 13.782,6.25 25.559,15.934c-1.043,5.559 -10.019,7.7 -11.061,13.259c-0.839,4.473 6.005,7.71 6.277,12.246c0,0 -5.998,16.426 -6.519,17.854c-32.713,37.548 -22.5,42.389 -46.45,85.404c-32.029,-10.023 -32.397,-18.475 -62.695,-4.691c-0.632,-3.116 6.998,-4.218 6.366,-7.333c-12.893,-63.585 -92.828,-98.802 -18.842,-141.369c19.428,-10.681 20.508,-9.744 20.983,-11.535c1.12,-4.228 -4.741,-8.39 -3.622,-12.617c-29.493,-47.98 -26.444,-49.449 -68.696,-87.669c-10.084,-20.522 -11.484,-19.002 -29.284,-33.685c-25.223,-16.005 -29.142,-22.929 -50.327,-3.454c-31.576,2.318 -30.928,3.459 -62.56,-2.133l-9.997,-21.5c-2.983,-6.891 -5.967,-13.781 -8.95,-20.672c30.713,-20.852 31.695,-19.33 69.591,-17.756c3.795,-4.162 7.591,-8.324 11.386,-12.485c-2.442,-3.172 4.869,-8.404 2.427,-11.575c-14.642,-19.015 -60.603,34.912 -68.264,-26.72c5.118,-31.018 3.278,-31.424 -14.868,-56.83c-3.724,-5.214 -31.682,-44.358 -59.519,-54.75c-115.95,-43.288 -164.415,56.455 -191.904,92.738l-22.573,-18.596c12.952,-26.943 53.415,-123.14 60.722,-131.349c27.22,-30.58 31.445,-25.693 33.754,-28.322c15.311,-17.43 -2.422,-14.832 -22.375,-26.599c-41.012,-24.186 -54.033,63.89 -145.226,92.79c-0.026,-9.411 -0.051,-18.822 -0.077,-28.233c21.741,-32.529 23.817,-34.348 26.575,-36.765c35.083,-30.744 88.293,-22.419 46.14,-120.387c-14.693,-34.149 -51.382,9.898 -75.157,2.069c-56.749,-18.687 -20.158,-106.272 0.537,-54.249c2.613,6.57 46.79,43.01 62.616,-64.41c2.586,-17.554 55.287,-131.569 -33.628,-60.223c-108.38,86.965 -110.272,89.135 -118.298,98.342c-44.261,-26.502 -17.543,-44.214 87.078,-117.022c91.128,-63.417 46.776,-132.003 63.755,-155.882c4.978,-7.001 18.754,-4.478 23.732,-11.479c-8.437,82.492 -5.938,113.334 -5.142,123.166c4.158,51.325 69.988,-13.754 86.695,-25.732c6.05,8.403 12.101,16.806 18.151,25.21c-4.199,3.033 -139.67,93.09 -0.557,99.836c20.172,0.978 2.462,23.873 1.19,25.517c-17.636,22.8 -19.228,20.956 -30.266,47.755c-7.76,-44.461 -57.024,-98.322 -62.849,-23.706c-0.155,1.98 0.071,1.838 0.959,24.807c-2.201,113.839 112.421,164.909 81.412,98.171c-1.989,-4.281 -3.072,-2.859 -34.553,-48.373c42.585,-26.19 54.542,-8.697 86.15,-47.165c16.754,-20.39 17.957,-18.373 54.768,-49.035c24.826,-6.141 23.171,-6.828 46.069,-18.933c98.219,-24.363 101.265,-18.882 104.689,-19.209c22.16,-2.113 23.067,-7.947 40.062,-51.356c22.054,-32.632 45.213,-40.703 10.609,-60.47c-50.562,-28.883 -109.207,-17.03 -118.569,-15.138c-1.098,-3.207 0.779,-2.81 -5.974,-41.787c5.888,0.572 72.209,7.019 73.76,5.385c3.522,-3.711 -35.428,-88.386 -44.141,-93.77c-22.872,-14.135 -21.391,-23.528 1.848,-35.858c7.031,-3.73 68.322,-102.039 69.217,-105.54c6.325,-24.726 16.218,-11.076 31.02,-9.631Z" style="fill:#a19f8a;"/><path d="M4403.839,1293.307c44.007,4.551 81.505,0.984 82.337,50.736c1.966,117.591 -13.336,131.319 82.513,203.619c99.172,74.807 104.081,86.973 74.739,147.462c-60.78,125.299 -38.753,131.135 2.13,221.879c28.61,63.504 28.656,72.715 -21.036,108.545c-2.959,-8.809 -5.918,-17.617 -8.877,-26.426c-31.819,-70.873 -79.907,-3.991 -83.694,1.276c-31.383,0.033 -30.068,-9.417 -72.86,-112.251c-24.124,-31.39 -29.352,-26.325 -52.228,-58.345c43.252,-24.086 49.963,-24.414 60.307,-12.757c45.492,51.269 46.27,49.729 105.742,86.776c35.465,23.431 40.112,19.709 39.371,16.505c-9.817,-42.459 -26.564,-28.038 -29.912,-29.677c-35.386,-68.545 -53.183,-52.821 -74.815,-75.132c-39.02,-40.247 1.507,-90.178 13.175,-111.697c4.677,2.642 41.789,23.607 65.969,15.536c51.539,-17.203 26.639,-96.444 4.894,-61.217c-13.807,22.368 -15.986,25.416 -42.539,18.821c-37.331,-60.356 -8.82,-140.731 -131.203,-222.328c-10.286,-23.841 -9.649,-24.263 1.455,-47.879c4.451,-3.1 45.871,-31.943 31.725,-58.314c-7.463,-13.912 -9.122,-14.133 -10.577,-14.326c-14.24,-1.89 -9.791,11.622 -24.039,9.731c-13.49,-23.466 -2.113,-25.469 -12.575,-50.539Z" style="fill:#007c80;"/><path d="M3541.071,2119.282c88.473,12.964 130.5,-4.41 118.671,80.881c-5.76,41.537 101.097,18.601 147.23,-19.305c22.18,-16.655 22.957,-15.865 23.954,-17.988c2.646,-5.632 -5.668,-4.583 -3.02,-10.219c17.799,14.683 19.2,13.163 29.284,33.685c-34.256,27.632 -36.267,25.348 -46.13,41.172c-42.796,68.659 -45.897,90.631 31.49,123.167c-5.149,12.589 -5.003,11.517 -5.149,12.589c-0.693,5.076 4.81,2.495 4.181,7.102c-41.998,19.241 2.108,88.584 -53.571,103.901c-3.404,0.936 1.098,-6.871 0.177,-10.133c-2.003,-7.097 -3.237,-6.583 -51.181,-63.325c-20.717,-24.518 45.945,-160.789 13.728,-157.824c-98.196,9.036 -68.939,47.831 -106.571,120.208c-64.245,-47.329 -71.225,-28.129 -151.485,-39.343c-71.833,-10.036 -62.136,-29.808 -70.78,-98.568c18.87,-20.231 15.795,-24.405 31.517,-26.143c4.38,-0.484 9.285,2.904 13.19,0.952c2.873,-1.436 -0.147,-7.471 2.726,-8.907c8.277,2.738 16.555,5.476 24.832,8.214c4.468,-22.214 -3.828,-24.249 18.337,-64.769c26.483,-14.581 26.322,-14.753 28.57,-15.348Z" style="fill:#7182a2;"/><path d="M4329.062,1965.358c52.106,1.644 109.134,84.592 101.565,135.596c-8.285,55.824 18.373,57.649 -2.53,110.789c-16.204,41.196 0.046,48.986 -34.525,78.321c-18.592,15.776 -10.365,18.475 -3.379,40.711c-25.082,1.688 -24.506,5.101 -49.502,-2.111c0.983,-2.342 12.289,-29.276 12.289,-29.276c11.907,-22.162 -66.352,-84.519 -67.469,-25.027c-0.249,13.275 -0.54,11.98 -1.089,24.185c-3.645,4.43 -7.291,8.859 -10.936,13.289c-5.94,-3.73 -11.71,15.161 -17.65,11.431c-6.356,-3.991 1.461,-14.485 1.236,-21.738c-0.846,-27.2 -19.798,-37.103 -23.081,-38.819c-88.511,-46.252 -61.682,27.723 -45.207,122.344l-8.205,21.395c-40.044,25.031 -63.581,33.827 -50.415,85.397c-19.603,0.529 -18.272,0.318 -38.565,-2.365c4.088,-39.367 3.673,-38.471 -3.672,-78.039c0.827,-4.958 6.189,-37.08 3.111,-62.686c50.852,-34.784 65.054,-44.213 27.489,-111.944c-23.231,-31.21 -17.098,-36.176 -53.431,-54.502c10.551,-9.454 21.102,-18.907 31.653,-28.361c45.701,67.794 180.396,85.462 173.033,57.669c-15.342,-57.909 -9.703,-76.159 55.232,-75.645c88.908,0.703 98.445,-45.472 32.237,-103.33c-36.163,-31.602 -28.214,-64.226 -28.185,-67.287Z" style="fill:#9fb9c2;"/><path d="M4101.136,1128.913c48.115,113.341 59.127,107.984 62.869,117.949c11.939,31.792 21.026,24.207 47.096,46.371c-4.312,5.966 -8.623,11.932 -12.935,17.898c-45.828,27.493 -36.284,34.668 -53.837,82.417c-5.761,15.671 6.183,12.062 76.009,11.353c4.312,-5.903 23.418,-32.054 77.676,-50.994l4.625,-4.143c50.801,-16.435 50.277,-0.319 86.717,37.38c9.984,6.537 19.968,13.074 29.951,19.611c-11.104,23.616 -11.741,24.037 -1.455,47.879c-2.117,6.117 -12.621,7.148 -14.739,13.265c0,0 -0.256,21.045 -0.278,22.875c-4.213,4.299 -23.5,23.984 -65.893,38.228l-8.816,3.688c-9.976,-0.165 -19.952,-0.329 -29.927,-0.494c-7.634,-4.097 -71,-38.101 -84.437,-66.476c-25.476,-53.8 -73.724,-21.794 -132.926,5.175c-26.482,-7.33 -23.946,-10.244 -41.537,-30.385c11.624,-5.172 106.206,-47.25 95.575,-122.765c-2.838,-20.162 -10.781,-14.058 -30.64,-23.468l-8.375,-12.119c-26.336,-64.798 -7.229,-65.85 -5.639,-99.931c0.138,-2.946 -15.49,-39.032 -0.561,-52.278c2.813,-2.496 8.663,1.461 11.476,-1.035Z" style="fill:#b7c4c3;"/><path d="M3444.921,2017.514c27.489,-36.283 75.954,-136.026 191.904,-92.738c27.837,10.393 55.795,49.536 59.519,54.75c18.146,25.406 19.986,25.812 14.868,56.83c-29.124,11.934 -60.437,19.279 -15.14,68.536c2.983,6.891 5.967,13.781 8.95,20.672c-0.892,6.832 -16.41,5.594 -17.302,12.426c0,0 25.115,8.348 27.299,9.074c31.632,5.592 30.984,4.452 62.56,2.133c2.917,20.507 -4.961,25.635 12.796,31.931c5.186,1.839 11.41,-2.11 16.596,-0.271c-46.133,37.906 -152.99,60.842 -147.23,19.305c11.828,-85.291 -30.198,-67.918 -118.671,-80.881c-1.076,-3.388 -8.802,-1.514 -9.879,-4.902c-4.167,-13.113 2.437,-12.618 0.184,-25.902c-7.296,-43.023 66.475,-59.598 72.204,-99.973c12.982,-91.478 -63.347,3.325 -107.314,77.396c-14.962,5.033 -29.924,10.067 -44.887,15.1c-10.37,-21.237 -10.035,-20.174 -21.904,-41.187l15.446,-22.3Z" style="fill:#007c80;"/><path d="M3857.189,2186.336c42.252,38.22 39.203,39.689 68.696,87.669c-12.616,19.717 -11.319,19.835 -17.361,24.153c-73.986,42.567 5.949,77.783 18.842,141.369c0.632,3.116 -6.998,4.218 -6.366,7.333c-136.244,54.244 -160.623,90.929 -215.541,10.945c-8.164,-11.89 -7.277,-10.846 -61.295,-94.612c37.632,-72.377 8.375,-111.172 106.571,-120.208c32.217,-2.965 -34.445,133.306 -13.728,157.824c47.944,56.742 49.178,56.228 51.181,63.325c0.921,3.262 -3.581,11.07 -0.177,10.133c55.678,-15.318 11.572,-84.66 53.571,-103.901c1.331,-0.635 16.643,-7.934 16.643,-7.934c2.039,-24.683 -13.065,-9.8 -15.675,-11.757c-77.387,-32.536 -74.286,-54.509 -31.49,-123.167c9.863,-15.824 11.874,-13.54 46.13,-41.172Z" style="fill:#191c5f;"/><path d="M3828.847,1603.154c16.269,-55.235 15.05,-55.318 17.571,-59.653c51.693,-88.919 94.971,37.646 88.29,48.328c-7.144,11.422 -68.786,10.852 -15.367,40.556c20.026,11.136 52.758,60.646 -1.451,92.948c-6.61,13.527 -6.779,12.553 -12.948,26.499c-18.43,41.663 -55.49,8.023 -62.865,38.635c-2.849,11.824 26.191,18.84 -12.509,99.275c-21.407,17.838 -20.633,17.353 -37.959,37.756c-43.985,-33.888 -19.968,-54.359 -68.592,-81.496c-25.749,-14.371 -43.618,-10.6 -29.881,-27.718c37.337,-46.525 43.85,-38.746 98.824,-64.889c0.985,-8.751 10.25,-15.381 11.235,-24.132c0.067,-0.593 -10.932,-10.944 -2.558,-27.221c1.492,-2.9 1.537,-2.607 20.752,-35.199c14.072,-32.075 20.47,-32.188 7.458,-63.686Z" style="fill:#211019;"/><path d="M4338.695,1915.849c-15.137,23.032 -18.746,23.545 -9.633,49.508c-0.029,3.061 -7.978,35.685 28.185,67.287c66.208,57.857 56.672,104.032 -32.237,103.33c-64.935,-0.513 -70.574,17.736 -55.232,75.645c7.363,27.793 -127.332,10.125 -173.033,-57.669c29.419,-15.026 30.894,-21.623 61.001,-6.743c7.998,3.953 56.866,15.119 63.484,-21.577c4.613,-25.578 22.721,-14.625 29.253,-36.32c12.921,-42.914 -41.68,-49.445 -38.816,-64.019c19.166,-97.515 113.423,-107.939 127.027,-109.444Z" style="fill:#007c80;"/><path d="M3778.829,1109.386c33.554,11.825 30.27,18.727 65.205,24.798c-2.33,9.052 -4.659,18.105 -6.989,27.157c-14.802,-1.445 -24.695,-15.095 -31.02,9.631c-0.896,3.501 -62.186,101.81 -69.217,105.54c-23.238,12.33 -24.72,21.723 -1.848,35.858c8.713,5.384 47.663,90.059 44.141,93.77c-1.551,1.634 -67.872,-4.813 -73.76,-5.385c-25.538,-49.415 -37.808,-36.22 -93.32,-50.445c-43.184,-11.066 -34.489,17.098 -79.675,35.799c-34.563,-30.328 -10.172,-38.193 -15.75,-82.03c20.718,-9.373 19.793,-9.015 42.261,-16.091c76.566,-17.073 91.063,-3.03 126.897,-69.448c0.604,-1.119 27.732,-43.305 30.151,-47.067c32.117,-31.232 25.753,-36.171 62.924,-62.087Z" style="fill:#1d2d73;"/><path d="M3257.931,1641.581c8.026,-9.207 9.918,-11.378 118.298,-98.342c88.915,-71.346 36.215,42.669 33.628,60.223c-15.826,107.42 -60.003,70.98 -62.616,64.41c-20.695,-52.023 -57.286,35.562 -0.537,54.249c23.775,7.829 60.464,-36.218 75.157,-2.069c42.153,97.968 -11.057,89.643 -46.14,120.387c-2.758,2.417 -4.834,4.236 -26.575,36.765c-12.254,-3.966 -24.508,-7.933 -36.762,-11.899c12.793,-47.179 18.61,-49.624 -8.846,-90.541c-40.665,-60.601 -33.05,-63.056 -45.608,-133.183Z" style="fill:#007c80;"/><path d="M4338.695,1915.849c96.086,-13.567 86.969,60.387 214.249,164.553c-107.522,74.404 -53.033,130.205 -82.175,219.636c-6.476,19.874 -20.393,22.91 -80.577,30.736c-6.986,-22.236 -15.213,-24.935 3.379,-40.711c34.571,-29.335 18.321,-37.126 34.525,-78.321c20.903,-53.14 -5.755,-54.965 2.53,-110.789c7.57,-51.005 -49.459,-133.952 -101.565,-135.596c-9.114,-25.964 -5.505,-26.476 9.633,-49.508Z" style="fill:#1f2c6c;"/><path d="M4140.731,1101.682c78.239,54.992 74.801,152.875 159.208,165.705c8.485,1.29 6.387,6.558 103.901,25.919c10.463,25.07 -0.915,27.073 12.575,50.539c-2.685,27.193 -5.686,25.925 -27.06,43.298c-36.44,-37.699 -35.916,-53.815 -86.717,-37.38c-31.407,-53.647 -42.665,-41.24 -91.537,-56.53c-26.07,-22.164 -35.157,-14.579 -47.096,-46.371c-3.742,-9.965 -14.753,-4.609 -62.869,-117.949c20.006,-14.944 19.328,-14.031 39.594,-27.23Z" style="fill:#1c225e;"/><path d="M4094.36,1602.3c-1.772,27.877 -1.277,27.317 11.558,51.93c33.948,61.024 28.543,64.809 20.83,72.135c-32.088,30.477 -9.566,37.036 -9.552,39.181c-7.691,8.354 -15.382,16.707 -23.073,25.061c-16.67,-19.931 -17.056,-18.911 -42.025,-24.549c-25.069,-5.661 -28.053,-41.492 -41.144,-46.181c-41.882,-15.001 -41.394,-26.443 -19.683,-63.992c21.987,-38.027 79.057,-40.347 36.127,-53.273c-25.71,-7.742 -43.524,-0.265 -32.702,-23.342c79.744,-170.047 98.861,15.244 99.664,23.029Z" style="fill:#340d15;"/><path d="M4417.852,1454.633c122.383,81.597 93.872,161.972 131.203,222.328c-9.441,8.953 -18.883,17.907 -28.324,26.86c-11.667,21.518 -52.195,71.45 -13.175,111.697c21.632,22.312 39.429,6.587 74.815,75.132l-9.459,13.172c-59.472,-37.048 -60.25,-35.507 -105.742,-86.776c-10.344,-11.658 -17.054,-11.329 -60.307,12.757c-0.339,-5.963 -12.379,-7.222 -12.718,-13.185c0,0 11.394,-23.871 12.384,-25.947l4.059,-9.846c7.14,-0.727 8.73,7.819 19.251,-1.959c4.488,-4.171 5.474,-1.607 9.904,-5.724c14.586,-15.467 14.785,-14.269 21.508,-34.123c3.597,-16.544 6.333,-14.837 9.684,-30.669c37.383,-45.639 24.95,-137.065 -0.212,-113.536c-21.001,19.639 -31.723,16.125 -41.733,20.023c-8.697,-3.313 -17.394,-6.626 -26.091,-9.939c-6.44,-19.49 -7.763,-19.461 -6.955,-21.049c2.47,-4.858 3.086,-2.858 33.367,-5.526c7.612,-0.671 84.706,-23.805 -26.476,-87.551c0.022,-1.83 0.278,-22.875 0.278,-22.875c2.117,-6.117 12.621,-7.148 14.739,-13.265Z" style="fill:#7aacbd;"/><path d="M3302.724,1895.586c23.278,8.325 22.142,9.204 46.499,9.851c91.193,-28.9 104.214,-116.975 145.226,-92.79c19.954,11.767 37.686,9.169 22.375,26.599c-2.31,2.629 -6.535,-2.258 -33.754,28.322c-7.307,8.209 -47.77,104.406 -60.722,131.349c-4.337,2.878 -3.46,10.283 -7.797,13.16c-12.807,8.499 -14.141,-27.233 -16.866,-30.225c-30.102,-33.043 -73.048,0.882 -77.854,4.678c-11.369,18.745 -9.346,18.646 -10.465,39.746c-3.848,7.979 -7.697,15.957 -11.545,23.936c-28.784,-22.846 -29.409,-20.852 -52.302,-48.722c5.544,-7.93 10.48,-14.991 57.205,-105.905Z" style="fill:#262763;"/><path d="M4314.418,1614.966c26.067,18.657 25.414,18.349 47.928,41.634c7.828,21.544 6.528,23.913 28.807,31.291c18.769,-3.019 18.778,-3.244 36.379,5.565c20.334,12.31 19.927,10.344 43.404,14.895c-3.351,15.832 -6.086,14.124 -9.684,30.669c-10.562,-2.947 -47.482,-35.142 -54.722,51.652c-0.991,2.076 -12.384,25.947 -12.384,25.947c0.339,5.963 12.379,7.222 12.718,13.185c-8.708,9.319 -17.417,18.639 -26.125,27.958c-5.113,4.691 -4.23,4.393 -13.437,16.547l-19.931,-7.341c-8.138,-8.57 -7.778,-8.278 -19.481,-10.298c-0.925,-42.096 -12.966,-37.578 -16.702,-44.438c21.19,-82.988 10.778,-85.293 -40.256,-154.816c14.495,-14.149 28.99,-28.299 43.485,-42.448Z" style="fill:#d3bf9e;"/><path d="M4094.36,1602.3c97.66,1.948 104.541,-7.08 176.573,55.115c51.034,69.524 61.446,71.828 40.256,154.816c-56.049,-3.856 -73.714,-39.178 -85.53,-71.079c-2.364,-34.361 5.108,-43.639 -29.766,-51.736c-13.922,-3.233 -19.781,-17.1 -53.115,-33.791c-31.657,-15.851 -31.745,-2.082 -36.86,-1.394c-12.835,-24.614 -13.331,-24.053 -11.558,-51.93Z" style="fill:#171115;"/><path d="M4284.422,2298.547c0.55,-12.205 0.84,-10.91 1.089,-24.185c1.117,-59.492 79.376,2.865 67.469,25.027c-0,0 -11.306,26.934 -12.289,29.276c-55.715,19.367 -66.155,3.994 -100.678,49.221c-25.464,33.36 -54.628,92.604 -109.85,113.961c-13.166,-51.57 10.372,-60.366 50.415,-85.397c2.735,-7.132 5.47,-14.264 8.205,-21.395c-16.474,-94.621 -43.304,-168.595 45.207,-122.344c3.283,1.716 22.235,11.619 23.081,38.819c0.225,7.254 -7.591,17.747 -1.236,21.738c5.94,3.73 11.71,-15.161 17.65,-11.431c3.645,-4.43 7.291,-8.859 10.936,-13.289Z" style="fill:#191962;"/><path d="M3828.847,1603.154c13.013,31.499 6.614,31.611 -7.458,63.686l-5.638,-11.524c-8.029,-0.687 -16.058,-1.374 -24.086,-2.061c-24.265,14.649 -21.881,15.993 -42.985,33.571c-4.945,4.118 -28.928,6.794 -32.218,8.908c-35.836,23.026 26.331,75.221 -81.297,114.761c-11.585,-7.95 -32.037,-5.53 -19.44,-80.746l11.826,-23.344c65.223,-115.27 156.262,-104.487 201.297,-103.249Z" style="fill:#361624;"/><path d="M3711.315,1442.542c9.362,-1.892 68.008,-13.745 118.569,15.138c34.604,19.767 11.445,27.838 -10.609,60.47c-16.996,43.409 -17.903,49.243 -40.062,51.356c-3.424,0.326 -6.47,-5.154 -104.689,19.209c-3.393,-2.553 -39.331,-29.588 -41.725,-32.73c-12.499,-16.401 -0.073,-17.257 5.026,-22.052c6.329,-2.246 21.665,-7.687 62.771,-53.82c2.115,-2.374 0.794,-2.783 10.72,-37.572Z" style="fill:#007c80;"/><path d="M4080.837,1470.894c59.201,-26.969 107.45,-58.975 132.926,-5.175c13.437,28.375 76.803,62.38 84.437,66.476l3.956,8.601c-15.582,30.051 -21.827,24.61 -41.767,51.576c-118.614,-29.355 -120.756,-20.732 -128.181,-27.835c-3.263,-3.122 -47.363,-86.102 -51.371,-93.644Z" style="fill:#007c80;"/><path d="M4089.14,1898.518c18.81,29.933 17.309,31.335 49.688,45.899c28.667,5.205 27.731,-1.296 56.152,0.368l9.268,6.604c-7.281,17.42 -23.82,79.184 -47.95,77.802c-8.868,-0.508 -17.698,-6.252 -26.299,-4.13c-6.108,1.507 -6.252,12.161 -12.359,13.668c-26.021,2.091 -49.455,-0.398 -53.727,-0.852c-5.955,-33.627 -23.384,-9.978 -53.105,-18.835c-20.232,-6.029 -69.108,-80.441 78.332,-120.525Z" style="fill:#420f18;"/><path d="M3791.665,1653.255c8.029,0.687 16.058,1.374 24.086,2.061l5.638,11.524c-19.215,32.592 -19.26,32.299 -20.752,35.199c-8.374,16.277 2.625,26.628 2.558,27.221c-0.985,8.751 -10.25,15.381 -11.235,24.132c-54.974,26.143 -61.487,18.364 -98.824,64.889c-13.737,17.118 4.132,13.347 29.881,27.718c48.624,27.138 24.607,47.608 68.592,81.496l15.872,13.409c-85.73,47.867 -72.694,-113.766 -165.915,-84.911c-7.878,-22.201 -8,-21.714 -6.402,-45.502c107.628,-39.539 45.461,-91.735 81.297,-114.761c3.289,-2.114 27.273,-4.789 32.218,-8.908c21.104,-17.578 18.72,-18.922 42.985,-33.571Z" style="fill:#89bac3;"/><path d="M3532.2,1479.842c17.172,23.252 14.939,23.899 37.815,40.821c23.316,8.075 24.392,37.988 58.439,86.986c-36.811,30.661 -38.014,28.645 -54.768,49.035c-31.608,38.469 -43.565,20.975 -86.15,47.165c-35.003,-34.107 -8.961,-37.17 -6.714,-42.159c7.249,-2.913 14.498,-5.826 21.746,-8.739c11.038,-26.799 12.63,-24.956 30.266,-47.755c1.272,-1.644 18.981,-24.539 -1.19,-25.517c-139.113,-6.746 -3.643,-96.803 0.557,-99.836Z" style="fill:#262a69;"/><path d="M3532.346,1386.109c45.186,-18.701 36.49,-46.865 79.675,-35.799c55.512,14.225 67.782,1.03 93.32,50.445c6.754,38.977 4.876,38.58 5.974,41.787c-9.926,34.789 -8.605,35.198 -10.72,37.572c-41.106,46.133 -56.442,51.574 -62.771,53.82c-4.681,-9.892 -9.362,-19.784 -14.042,-29.676c2.419,-0.317 53.454,1.459 13.461,-28.249c-1.488,-1.105 -0.435,-1.613 -5.868,-21.776c1.244,-22.065 0.387,-23.456 -20.315,-32.573c-3.65,3.806 -7.299,7.613 -10.949,11.419c-26.136,-11.089 -24.588,-15.972 -53.235,-12.409c-10.74,7.656 -21.479,15.313 -32.219,22.969c-4.308,-18.407 -4.642,-17.246 -13.363,-35.075c10.351,-7.485 20.701,-14.97 31.052,-22.455Z" style="fill:#e8e0d4;"/><path d="M4117.197,1765.547c5.927,-2.31 7.544,-10.748 13.472,-13.058c4.963,-1.934 1.776,11.567 64.169,18.422c20.935,22.14 20.808,21.184 41.091,43.454c27.532,30.231 -29.637,15.348 -60.722,66.65c-1.604,2.647 -1.388,2.502 -18.743,33.772l-10.447,4.99c-24.387,-15.253 -23.073,-14.621 -45.998,-30.009c-7.46,-32.771 -28.079,-29.406 -17.645,-61.245c6.357,-19.398 5.727,-18.479 11.751,-37.915c7.691,-8.354 15.382,-16.707 23.073,-25.061Z" style="fill:#23131e;"/><path d="M4140.731,1101.682c-20.266,13.199 -19.589,12.286 -39.594,27.23c-2.813,2.496 -8.663,-1.461 -11.476,1.035c-14.928,13.245 0.699,49.331 0.561,52.278c-1.591,34.082 -20.697,35.133 5.639,99.931c-13.208,2.692 -26.416,5.384 -39.624,8.075c-59.625,-27.778 -36.064,-47.186 -76.159,-97.622c-7.347,-45.548 24.034,-31.318 58.169,-62.004c23.477,-21.105 48.38,-37.871 102.483,-28.924Z" style="fill:#2a4473;"/><path d="M4402.836,1490.773c111.182,63.746 34.088,86.881 26.476,87.551c-30.281,2.668 -30.897,0.668 -33.367,5.526c-0.808,1.589 0.515,1.559 6.955,21.049c4.905,35.274 24.7,56.784 -12.689,51.615c-14.105,-1.95 -13.46,0.041 -27.865,0.085c-22.514,-23.285 -21.861,-22.977 -47.928,-41.634l-17.968,-8.085c31.126,-35.198 42.522,-31.57 40.493,-77.88c42.393,-14.244 61.68,-33.929 65.893,-38.228Z" style="fill:#1c2f6e;"/><path d="M3798.033,1284.981c6.271,-1.856 12.541,-3.712 18.812,-5.568c46.325,8.586 88.554,79.91 95.817,83.822c6.184,3.33 14.301,3.048 19.936,7.171c26.746,19.564 -43.573,67.8 -49.423,71.813c-9.661,-6.162 -125.428,-59.979 -85.142,-157.236Z" style="fill:#0f104c;"/><path d="M4104.235,1294.276c19.859,9.41 27.802,3.305 30.64,23.468c10.63,75.515 -83.951,117.593 -95.575,122.765c-27.153,-28.359 -27.122,-27.441 -51.357,-58.753l24.881,-13.398c16.755,-22.681 16.47,-21.822 28.308,-46.639c9.257,-4.034 18.514,-8.068 27.771,-12.102c11.777,-5.113 23.555,-10.227 35.332,-15.34Z" style="fill:#112563;"/><path d="M3492.491,1307.887c-0.017,25.39 -7.445,22.7 -15.154,47.782c-6.888,22.41 20.601,49.578 23.958,52.895c8.722,17.829 9.056,16.667 13.363,35.075l-0.608,10.994c-16.707,11.978 -82.537,77.057 -86.695,25.732c-0.796,-9.832 -3.295,-40.674 5.142,-123.166c5.64,-17.771 4.745,-16.947 14.08,-33.825c15.305,-5.162 30.61,-10.324 45.915,-15.486Z" style="fill:#007c80;"/><path d="M3844.033,1134.184c7.469,0.559 50.047,3.746 89.67,25.762c19.606,10.894 8.85,15.465 2.329,35.296c-22.118,27.066 -21.051,27.255 -29.513,60.708c-11.304,44.686 -61.277,-7.629 -64.828,-11.346c-0.112,-42.986 -14.636,-42.046 -4.647,-83.263c2.33,-9.052 4.659,-18.105 6.989,-27.157Z" style="fill:#14184f;"/><path d="M3546.876,1420.669c0.371,54.89 31.032,21.21 53.235,12.409c1.825,29.995 10.397,27.298 15.338,48.084c2.778,7.698 5.555,15.396 8.333,23.095c4.681,9.892 9.362,19.784 14.042,29.676c-5.099,4.795 -17.525,5.651 -5.026,22.052c2.394,3.141 38.332,30.177 41.725,32.73c-22.898,12.105 -21.243,12.792 -46.069,18.933c-34.047,-48.998 -35.123,-78.911 -58.439,-86.986c-22.876,-16.922 -20.642,-17.569 -37.815,-40.821c-6.05,-8.403 -12.101,-16.806 -18.151,-25.21l0.608,-10.994c10.74,-7.656 21.479,-15.313 32.219,-22.969Z" style="fill:#ced2cf;"/><path d="M4105.919,1654.23c5.115,-0.688 5.202,-14.457 36.86,1.394c33.334,16.691 39.193,30.558 53.115,33.791c34.873,8.097 27.402,17.376 29.766,51.736c-0.127,0.224 2.527,18.673 -16.621,29.369c-4.086,2.282 -10.114,-1.893 -14.2,0.39c-62.393,-6.855 -59.206,-20.356 -64.169,-18.422c-5.927,2.31 -7.544,10.748 -13.472,13.058c-0.015,-2.146 -22.537,-8.704 9.552,-39.181c7.714,-7.326 13.119,-11.111 -20.83,-72.135Z" style="fill:#80bcc9;"/><path d="M4030.145,2366.147l10.343,-2.031c25.523,22.61 22.25,24.527 47.438,47.327c7.344,39.568 7.76,38.671 3.672,78.039c-68.536,-17.505 -65.782,-20.968 -107.902,-37.931c23.949,-43.015 13.736,-47.856 46.45,-85.404Z" style="fill:#1a256e;"/><path d="M4198.166,1311.131c51.588,18.518 56.153,12.176 72.415,33.18c10.811,13.964 16.164,15.837 18.041,16.493c7.035,2.461 2.531,-9.297 9.391,-6.897c-54.258,18.94 -73.363,45.091 -77.676,50.994c-69.825,0.709 -81.77,4.318 -76.009,-11.353c17.553,-47.748 8.009,-54.924 53.837,-82.417Z" style="fill:#111150;"/><path d="M4118.525,2236.814c37.565,67.731 23.363,77.159 -27.489,111.944c-2.476,1.148 -16.338,7.573 -34.407,-0.618c-6.614,-13.811 -5.682,-13.112 -15.181,-25.352c-11.777,-9.684 -10.943,-9.558 -25.559,-15.934c-19.553,-16.582 -11.932,-19.612 -13.462,-44.605c4.909,1.678 23.751,8.12 62.391,18.002c1.058,33.248 10.287,42.609 41.186,26.026c1.577,-0.846 -26.112,-22.138 -28.476,-23.957c2.427,-4.204 14.492,-25.102 40.997,-45.505Z" style="fill:#2f2c71;"/><path d="M3988.052,1442.097c37.786,40.753 21.86,47.136 -6.072,94.303c-20.27,34.227 -48.837,-27.356 -68.706,-56.99c20.016,-49.87 29.511,-70.206 74.779,-37.313Z" style="fill:#2a1d23;"/><path d="M3496.266,2065.901c43.967,-74.072 120.296,-168.874 107.314,-77.396c-5.73,40.375 -79.5,56.95 -72.204,99.973c2.253,13.284 -4.351,12.789 -0.184,25.902c1.076,3.388 8.802,1.514 9.879,4.902c-2.248,0.595 -2.088,0.767 -28.57,15.348c-8.34,-23.991 -6.968,-23.632 -15.123,-47.583c-0.37,-7.048 -0.741,-14.097 -1.111,-21.145Z" style="fill:#61a8c5;"/><path d="M4065.093,2182.312c36.333,18.326 30.2,23.292 53.431,54.502c-26.505,20.404 -38.57,41.301 -40.997,45.505l-12.71,-2.069c-38.64,-9.882 -57.482,-16.324 -62.391,-18.002c20.088,-48.213 14.443,-53.803 62.666,-79.937Z" style="fill:#100c5c;"/><path d="M3943.361,2072.748c15.027,-17.469 17.065,-30.003 34.296,-13.664c17.937,17.009 14.513,18.201 26.209,39.437c-1.553,2.134 -19.41,26.679 -19.41,26.679c-0.56,19.996 1.449,18.985 0.73,38.262c-1.086,29.159 14.267,21.039 19.209,28.328c-34.135,42.676 -56.411,74.107 -72.433,22.494c-4.344,-13.993 -2.722,-13.625 -9.609,-26.873c26.048,2.547 40.23,4.302 35.838,-36.121c-0.345,-10.24 -0.689,-20.481 -1.034,-30.721c9.677,-29.821 11.57,-29.691 10.435,-32.157c-6.326,-13.746 -17.822,-1.737 -24.232,-15.665Z" style="fill:#4c403e;"/><path d="M4063.914,2037.877c4.272,0.454 27.706,2.943 53.727,0.852c2.284,7.816 23.833,44.25 -1.715,60.234c-17.385,10.877 -48.466,34.305 -59.691,21.158c-34.883,-40.853 -40.771,-55.411 7.68,-82.244Z" style="fill:#110b0e;"/><path d="M3413.231,2046.774c26.964,72.632 28.732,71.394 29.735,77.961c5.664,37.086 9.276,49.988 -29.86,50.81c-5.025,-67.131 -62.42,-91.386 -67.592,-95.686c5.045,-6.722 10.09,-13.444 15.135,-20.166c27.354,-3.915 26.231,-4.486 52.583,-12.919Z" style="fill:#29287a;"/><path d="M4428.991,1614.839c10.01,-3.898 20.731,-0.384 41.733,-20.023c25.162,-23.53 37.595,67.896 0.212,113.536c-23.477,-4.551 -23.07,-2.585 -43.404,-14.895c2.658,-28 1.608,-72.328 1.459,-78.617Z" style="fill:#22276a;"/><path d="M3319.831,1986.531c4.806,-3.796 47.752,-37.721 77.854,-4.678c2.725,2.991 4.059,38.723 16.866,30.225c4.337,-2.878 3.46,-10.283 7.797,-13.16l22.573,18.596l-15.446,22.3c-5.415,2.32 -10.83,4.64 -16.245,6.96c-26.352,8.432 -25.229,9.004 -52.583,12.919l-11.008,-5.331c24.002,-29.831 38.898,-48.156 -0.462,-51.748c-25.268,-2.306 -19.881,-10.895 -29.346,-16.082Z" style="fill:#dfcca5;"/><path d="M3312.385,1865.305c-7.306,24.236 -6.697,23.484 -9.661,30.281c-46.725,90.914 -51.662,97.975 -57.205,105.905c-45.291,-33.584 -6.859,-62.123 19.736,-116.127c2.037,-4.135 28.063,-56.983 49.886,-31.596c2.622,3.05 -5.378,8.486 -2.756,11.536Z" style="fill:#71bbcf;"/><path d="M3429.475,2039.814c11.869,21.013 11.535,19.95 21.904,41.187l13.653,9.944c3.124,92.371 4.131,92.216 4.298,100.24c-2.873,1.436 0.147,7.471 -2.726,8.907c-3.905,1.952 -8.81,-1.436 -13.19,-0.952c-15.721,1.738 -12.647,5.911 -31.517,26.143c-17.174,-40.65 -7.713,-41.512 -8.794,-49.737c39.136,-0.822 35.525,-13.724 29.86,-50.81c-1.003,-6.567 -2.771,-5.329 -29.735,-77.961c5.415,-2.32 10.83,-4.64 16.245,-6.96Z" style="fill:#7b7ba2;"/><path d="M3440.677,1654.051c20.724,2.437 18.834,5.89 40.144,7.639c-2.247,4.989 -28.289,8.052 6.714,42.159c31.481,45.514 32.564,44.092 34.553,48.373c31.009,66.738 -83.612,15.668 -81.412,-98.171Z" style="fill:#292a63;"/><path d="M3943.361,2072.748c6.41,13.928 17.906,1.919 24.232,15.665c1.135,2.466 -0.758,2.337 -10.435,32.157c-4.948,4.156 -53.834,17.779 1.034,30.721c4.392,40.423 -9.79,38.668 -35.838,36.121c-42.078,-42.428 -19.96,-49.825 14.238,-98.196l6.769,-16.468Z" style="fill:#151116;"/><path d="M3960.989,1796.019c23.112,10.981 61.209,25.697 34.033,76.573c-73.795,21.647 -64.57,-17.248 -57.6,-43.77c7.856,-10.934 15.711,-21.868 23.567,-32.802Z" style="fill:#1b1316;"/><path d="M4549.055,1676.961c26.554,6.595 28.732,3.547 42.539,-18.821c21.744,-35.228 46.644,44.014 -4.894,61.217c-24.18,8.071 -61.292,-12.894 -65.969,-15.536c9.441,-8.953 18.883,-17.907 28.324,-26.86Z" style="fill:#5f95b0;"/><path d="M3829.568,1889.741c3.556,2.481 -2.147,10.052 1.409,12.534c3.774,2.633 9.225,-2.109 13.894,-1.856c15.75,0.856 14.284,2.377 51.801,13.804c8.51,18.155 8.537,16.899 13.088,36.57c-54.288,-5.772 -55.976,-38.761 -102.279,-9.887l-15.872,-13.409c17.326,-20.403 16.552,-19.919 37.959,-37.756Z" style="fill:#5d504f;"/><path d="M3558.857,1287.988c-22.468,7.076 -21.543,6.718 -42.261,16.091c-8.035,1.269 -16.07,2.539 -24.105,3.808c-15.305,5.162 -30.61,10.324 -45.915,15.486c-17.858,-27.134 -18.056,-26.798 -19.286,-29.305c-4.884,-9.949 75.021,-24.269 91.683,-22.695c25.386,2.398 23.87,-6.422 25.712,-5.447c7.906,4.188 6.267,17.873 14.172,22.061Z" style="fill:#7dc6dc;"/><path d="M3465.033,2090.945c10.782,-1.299 21.563,-2.599 32.345,-3.898c8.155,23.951 6.783,23.593 15.123,47.583c-22.165,40.52 -13.869,42.555 -18.337,64.769c-8.277,-2.738 -16.555,-5.476 -24.832,-8.214c-0.167,-8.024 -1.174,-7.869 -4.298,-100.24Z" style="fill:#1f2971;"/><path d="M3492.491,1307.887c8.035,-1.269 16.07,-2.539 24.105,-3.808c5.578,43.836 -18.813,51.702 15.75,82.03c-10.351,7.485 -20.701,14.97 -31.052,22.455c-3.356,-3.317 -30.846,-30.485 -23.958,-52.895c7.71,-25.082 15.138,-22.392 15.154,-47.782Z" style="fill:#87adc4;"/><path d="M3711.212,2036.357c7.661,61.632 53.623,7.704 68.264,26.72c2.442,3.172 -4.869,8.404 -2.427,11.575l-11.386,12.485c-37.895,-1.574 -38.878,-3.096 -69.591,17.756c-45.297,-49.257 -13.983,-56.602 15.14,-68.536Z" style="fill:#a6986e;"/><path d="M4200.546,1914.796c7.687,-20.815 3.88,-22.664 20.885,-37.283c11.933,-10.259 45.963,-25.31 51.245,-23.029c23.787,10.272 -9.083,37.129 -39.081,72.039c-6.992,-0.09 -3.8,5.68 -10.357,5.596c-2.325,-0.03 -1.681,-1.283 -22.693,-17.323Z" style="fill:#240d11;"/><path d="M3440.677,1654.051c-0.888,-22.969 -1.113,-22.826 -0.959,-24.807c5.825,-74.616 55.089,-20.754 62.849,23.706c-7.249,2.913 -14.498,5.826 -21.746,8.739c-21.31,-1.749 -19.42,-5.202 -40.144,-7.639Z" style="fill:#1b2260;"/><path d="M4003.865,2098.522c1.92,3.111 23.995,38.882 23.995,38.882c12.817,22.236 -0.939,21.462 -23.466,54.388c-4.943,-7.289 -20.296,0.831 -19.209,-28.328c0.718,-19.277 -1.291,-18.266 -0.73,-38.262c0,0 17.857,-24.545 19.41,-26.679Z" style="fill:#140c0e;"/><path d="M4328.126,1532.689l8.816,-3.688c2.03,46.309 -9.367,42.682 -40.493,77.88c-5.727,-2.435 -5.233,0.084 -10.26,-2.053c-2.113,-0.898 -1.911,-0.923 -25.802,-12.455c19.94,-26.966 26.185,-21.525 41.767,-51.576c8.657,-2.702 17.314,-5.405 25.971,-8.107Z" style="fill:#7399b6;"/><path d="M4531.952,2000.399c3.787,-5.267 51.875,-72.149 83.694,-1.276c-15.614,1.883 -14.315,6.932 -29.927,3.608c-24.035,-5.118 -17.897,7.847 -32.985,33.972c-3.808,-4.125 -9.599,-6.284 -13.407,-10.408c-14.71,-15.934 -5.311,-18.649 -7.375,-25.897Z" style="fill:#c1a062;"/><path d="M4402.9,1604.9c8.697,3.313 17.394,6.626 26.091,9.939c0.149,6.289 1.2,50.617 -1.459,78.617c-17.602,-8.808 -17.611,-8.583 -36.379,-5.565c-22.279,-7.378 -20.979,-9.747 -28.807,-31.291c14.405,-0.044 13.76,-2.035 27.865,-0.085c37.389,5.169 17.594,-16.341 12.689,-51.615Z" style="fill:#5a638b;"/><path d="M4406.864,1829.803c22.876,32.02 28.104,26.955 52.228,58.345c-15.289,25.313 -13.993,26.463 -16.487,27.297c0,0 -23.995,-11.764 -26.081,-12.787c21.095,-24.798 -26.027,-40.31 -35.785,-44.897c8.708,-9.319 17.417,-18.639 26.125,-27.958Z" style="fill:#a28c78;"/><path d="M3319.831,1986.531c9.465,5.187 4.078,13.776 29.346,16.082c39.36,3.592 24.464,21.918 0.462,51.748c-22.203,-11.46 -20.785,-11.689 -40.274,-28.085c1.119,-21.1 -0.904,-21.001 10.465,-39.746Z" style="fill:#bfcebb;"/><path d="M3778.829,1109.386c-37.171,25.916 -30.807,30.856 -62.924,62.087c0.03,-7.693 -19.467,-6.06 -19.437,-13.753c0.049,-12.585 29.296,-44.921 32.443,-48.401c33.697,-37.256 43.703,0.058 49.918,0.066Z" style="fill:#8ac2d1;"/><path d="M4211.101,1293.233c48.872,15.29 60.13,2.883 91.537,56.53l-4.625,4.143c-6.86,-2.4 -2.355,9.358 -9.391,6.897c-1.877,-0.657 -7.23,-2.529 -18.041,-16.493c-16.261,-21.004 -20.826,-14.661 -72.415,-33.18c4.312,-5.966 8.623,-11.932 12.935,-17.898Z" style="fill:#565881;"/><path d="M4416.415,1343.846c14.248,1.891 9.799,-11.621 24.039,-9.731c1.456,0.193 3.115,0.413 10.577,14.326c14.146,26.371 -27.274,55.215 -31.725,58.314c-9.984,-6.537 -19.968,-13.074 -29.951,-19.611c21.374,-17.373 24.375,-16.104 27.06,-43.298Z" style="fill:#5b8fa8;"/><path d="M4615.646,1999.123c2.959,8.809 5.918,17.617 8.877,26.426c-17.85,15.649 -16.614,15.129 -35.468,29.188c-34.066,-16.449 -33.256,-16.929 -36.321,-18.033c15.088,-26.126 8.95,-39.09 32.985,-33.972c15.611,3.324 14.312,-1.726 29.927,-3.608Z" style="fill:#a8b4a2;"/><path d="M3627.55,1706.403l-11.826,23.344c-33.142,-19.313 -45.837,-24.645 -21.803,-53.614c2.036,-2.454 144.443,-163.467 34.987,-20.41c-1.999,2.612 -23.324,30.485 -20.961,35.134c3.707,7.292 15.895,8.252 19.602,15.545Z" style="fill:#807175;"/><path d="M3961.046,1294.091c-14.346,-17.859 -20.219,-14.833 -20.54,-37.877c-0.837,-60.049 29.602,-25.588 31.289,-23.038c21.919,33.118 -6.883,57.625 -10.75,60.915Z" style="fill:#312325;"/><path d="M3961.073,2332.127c19.36,16.16 23.134,18.066 11.787,40.809c-1.047,2.099 -17.078,34.229 -26.37,14.565c-23.485,-49.698 -1.943,-49.302 14.583,-55.374Z" style="fill:#241b18;"/><path d="M3777.579,2149.198c21.185,-19.475 25.104,-12.551 50.327,3.454c-2.648,5.635 5.667,4.587 3.02,10.219c-0.997,2.123 -1.774,1.332 -23.954,17.988c-5.186,-1.839 -11.41,2.11 -16.596,0.271c-17.757,-6.296 -9.879,-11.424 -12.796,-31.931Z" style="fill:#1e1a5d;"/><path d="M4056.629,2348.14c18.069,8.191 31.931,1.765 34.407,0.618c3.078,25.605 -2.283,57.728 -3.111,62.686c-25.188,-22.799 -21.915,-24.717 -47.438,-47.327c5.381,-5.326 10.761,-10.651 16.142,-15.977Z" style="fill:#647099;"/><path d="M4354.946,2195.286c2.313,-35.835 4.731,-51.935 38.165,-36.727c3.915,1.781 48.242,48.696 -38.165,36.727Z" style="fill:#2e3a6a;"/><path d="M4461.252,1739.02c-6.723,19.854 -6.922,18.656 -21.508,34.123c-9.718,2.561 -19.436,5.122 -29.155,7.683l-4.059,9.846c7.24,-86.793 44.159,-54.599 54.722,-51.652Z" style="fill:#354170;"/><path d="M3947.717,1753.663c0.666,3.479 4.595,23.987 13.271,42.356c-7.856,10.934 -15.711,21.868 -23.567,32.802c-3.232,-6.625 7.13,-4.993 3.954,-11.504c-5.272,-10.807 -11.811,-3.802 -16.55,-14.317c-7.349,-16.308 0.532,-33.795 1.742,-36.479c7.269,-16.127 13.35,-8.117 21.15,-12.859Z" style="fill:#867f93;"/><path d="M3309.366,2026.277c19.489,16.396 18.07,16.624 40.274,28.085l11.008,5.331c-5.045,6.722 -10.09,13.444 -15.135,20.166c-25.936,-13.191 -25.272,-12.235 -47.691,-29.646c3.848,-7.979 7.697,-15.957 11.545,-23.936Z" style="fill:#867f9a;"/><path d="M3611.06,1421.659c20.702,9.117 21.559,10.508 20.315,32.573c-4.758,11.813 2.842,16.269 -15.926,26.93c-4.941,-20.786 -13.513,-18.09 -15.338,-48.084c3.65,-3.806 7.299,-7.613 10.949,-11.419Z" style="fill:#605e84;"/><path d="M3570.785,2175.275l-1.577,11.405c-20.687,9.393 -20.221,14.69 -31.954,9.372c-24.152,-10.948 23.071,-84.362 33.531,-20.777Z" style="fill:#3c406a;"/><path d="M4100.018,1889.768c22.924,15.387 21.611,14.755 45.998,30.009l-4.453,5.585l-2.734,19.055c-32.379,-14.565 -30.879,-15.966 -49.688,-45.899l10.878,-8.749Z" style="fill:#644c50;"/><path d="M4327.265,1690.186c-1.66,-2.361 -87.53,-124.516 -2.232,-35.473c51.829,54.104 16.501,61.76 12.007,59.495c-1.911,-0.963 -0.724,-1.779 -9.776,-24.022Z" style="fill:#625565;"/><path d="M4010.329,1312.153c10.268,3.188 20.535,6.377 30.803,9.565c-11.838,24.817 -11.553,23.958 -28.308,46.639c-26.082,-21.254 -24.467,-20.942 -26.681,-22.667c5.747,-5.745 8.202,1.856 13.574,-3.514c1.835,-1.834 0.786,-2.224 10.613,-30.024Z" style="fill:#a8937a;"/><path d="M4380.739,1857.761c9.758,4.586 56.88,20.099 35.785,44.897c-4.07,-2.044 -33.839,-16.998 -49.221,-28.35c9.207,-12.154 8.324,-11.856 13.437,-16.547Z" style="fill:#41354e;"/><path d="M4374.337,1780.971c1.171,68.682 -30.041,46.26 -32.947,43.023c-2.907,-3.237 -37.766,-42.056 32.947,-43.023Z" style="fill:#1d183d;"/><path d="M3546.876,1420.669c28.646,-3.563 27.099,1.32 53.235,12.409c-22.203,8.801 -52.864,42.481 -53.235,-12.409Z" style="fill:#605b5b;"/><path d="M3596.151,2187.918c14.453,-67.247 38.125,-15.737 38.242,-12.651c1.154,30.49 -14.698,34.573 -38.242,12.651Z" style="fill:#1d0e15;"/><path d="M3570.638,1851.818c51.658,1.06 51.362,21.146 51.297,25.561c-0.065,4.415 -15.271,31.938 -51.297,-25.561Z" style="fill:#3e3560;"/><path d="M3312.385,1865.305c12.254,3.966 24.508,7.933 36.762,11.899c0.026,9.411 0.051,18.822 0.077,28.233c-24.357,-0.647 -23.221,-1.526 -46.499,-9.851c2.964,-6.797 2.354,-6.045 9.661,-30.281Z" style="fill:#777286;"/><path d="M3593.299,1811.836c-20.067,3.942 -24.39,8.456 -32.784,-10.011c-12.399,-27.279 17.483,-38.302 30.922,-7.634c0.574,1.309 0,0 1.862,17.645Z" style="fill:#41436f;"/><path d="M4325.043,2199.448c-29.131,-0.218 -45.251,3.068 -34.715,-23.216c1.211,-3.021 40.272,-47.766 34.715,23.216Z" style="fill:#1f1415;"/><path d="M3554.889,1857.302c0.377,29.648 -10.644,24.377 -38.355,38.738l-11.439,-6.102c18.931,-23.924 18.827,-25.04 49.794,-32.636Z" style="fill:#3f3352;"/><path d="M3569.422,2225.489c-12.888,57.223 -46.358,11.724 -35.853,1.019c8.325,-8.484 13.409,-8.628 14.798,-8.668c11.799,-0.335 8.273,8.012 21.056,7.649Z" style="fill:#22131c;"/><path d="M4354.866,2237.843c2.416,-2.729 -4.038,-14.83 22.101,-10.989c2.176,0.32 21.154,3.109 21.785,16.037c0.164,3.368 -7.828,51.188 -43.885,-5.049Z" style="fill:#431922;"/><path d="M3944.59,1306.903c1.963,17.997 2.081,17.061 0.356,34.971c-3.802,-0.786 -36.82,-7.611 -32.681,-34.342c0.378,-2.44 1.242,-8.018 32.325,-0.629Z" style="fill:#372023;"/><path d="M4139.256,1246.662c0.795,4.507 8.655,5.826 9.45,10.332c2.508,14.22 -26.466,20.523 -37.556,-10.258c-18.645,-51.752 26.637,-1.698 28.105,-0.074Z" style="fill:#40373f;"/><path d="M4058.755,1794.05c1.953,59.48 -27.573,36.122 -29.093,32.993c-0.714,-1.468 -5.042,-10.375 1.849,-20.154c14.262,-20.239 22.514,-10.61 27.244,-12.839Z" style="fill:#3a3a6c;"/><path d="M4377.613,1716.313c5.266,4.106 15.076,-2.548 20.342,1.558c5.824,4.541 0.767,4.778 -21.769,33.72c-43.327,2.023 -0.804,-33.419 1.426,-35.278Z" style="fill:#4e486b;"/><path d="M4321.633,1420.104l6.58,9.104c-1.404,7.109 -2.807,14.218 -4.211,21.327l-11.858,6.217c-1.165,-1.026 -14.559,-12.822 -14.559,-12.822c-4.81,-20.338 4.54,-16.888 24.048,-23.825Z" style="fill:#383c65;"/><path d="M4327.891,1856.669c11.703,2.02 11.343,1.729 19.481,10.298c-15.354,48.122 -36.729,14.28 -36.171,10.367c0.295,-2.068 1.236,-1.531 16.69,-20.665Z" style="fill:#282854;"/><path d="M4317.383,1403.623c-5.215,-17.764 -15.046,-20.815 0.435,-31.618c15.131,-10.559 55.027,27.771 -0.435,31.618Z" style="fill:#291518;"/><path d="M3631.375,1454.233c5.433,20.163 4.38,20.671 5.868,21.776c39.993,29.708 -11.042,27.932 -13.461,28.249c-2.778,-7.698 -5.555,-15.396 -8.333,-23.095c18.768,-10.661 11.168,-15.117 15.926,-26.93Z" style="fill:#6e5051;"/><path d="M4336.201,1480.794c10.983,-15.013 6.617,-25.266 25.574,-19.452c9.408,2.885 21.023,63.639 -25.574,19.452Z" style="fill:#30171e;"/><path d="M4010.329,1312.153c-9.827,27.8 -8.778,28.19 -10.613,30.024c-5.372,5.37 -7.827,-2.231 -13.574,3.514c-13.182,-25.572 -6.56,-33.799 24.186,-33.538Z" style="fill:#2f1e1e;"/><path d="M4095.861,1282.157l8.375,12.119c-11.777,5.113 -23.555,10.227 -35.332,15.34c-4.222,-6.461 -8.444,-12.923 -12.666,-19.384c13.208,-2.692 26.416,-5.384 39.624,-8.075Z" style="fill:#636a8b;"/><path d="M3634.772,1393.173c16.441,-10.784 21.026,-18.091 31.434,-1.965c13.923,21.572 -5.026,17.999 -6.238,22.339l-12.833,-3.144c-4.121,-5.743 -8.242,-11.486 -12.363,-17.229Z" style="fill:#452a32;"/><path d="M3981.959,1766.203c7.615,-5.794 -5.638,-9.713 1.364,-15.041c1.087,-0.827 6.552,-4.985 17.358,0.796c0.505,0.27 25.934,65.274 -18.723,14.246Z" style="fill:#48476a;"/><path d="M4582.371,1890.65c3.348,1.639 20.095,-12.782 29.912,29.677c0.741,3.204 -3.906,6.927 -39.371,-16.505l9.459,-13.172Z" style="fill:#3d3865;"/><path d="M4064.818,2280.25l12.71,2.069c2.365,1.819 30.053,23.111 28.476,23.957c-30.899,16.583 -40.127,7.222 -41.186,-26.026Z" style="fill:#5d568d;"/><path d="M3897.592,1891.232c-24.817,-10.636 -48.5,-8.751 -27.37,-25.588c24.686,-19.672 36.029,-3.959 27.37,25.588Z" style="fill:#3a3860;"/><path d="M4132.325,2395.381c-13.036,-55.034 20.442,-34.247 22.293,-31.752c10.336,13.931 -19.512,30.233 -22.293,31.752Z" style="fill:#40343b;"/><path d="M3787.302,2366.199c10.766,48.531 -20.123,21.96 -20.95,19.849c-7.415,-18.939 -0.002,-22.344 20.95,-19.849Z" style="fill:#211e27;"/><path d="M4041.449,2322.787c9.498,12.24 8.566,11.542 15.181,25.352c-5.381,5.326 -10.761,10.651 -16.142,15.977l-10.343,2.031c0.522,-1.428 6.519,-17.854 6.519,-17.854c-0.272,-4.536 -7.116,-7.774 -6.277,-12.246c1.043,-5.559 10.019,-7.7 11.061,-13.259Z" style="fill:#9e9186;"/><path d="M3904.44,1816.555c-9.239,42.406 -38.943,-11.017 -21.452,-13.704c11.037,-1.696 12.517,-0.75 13.408,-0.181c7.484,4.781 0.085,8.801 8.044,13.885Z" style="fill:#302b55;"/><path d="M3558.854,1714.211c38.397,40.415 -11.152,23.045 -11.634,22.437c-10.278,-12.962 -11.221,-17.603 -11.577,-19.352c-3.041,-14.962 7.704,-1.024 23.21,-3.085Z" style="fill:#6f6f95;"/><path d="M4156.233,2086.435c-0.063,-2.352 -2.983,-112.135 15.827,-25.241c3.844,17.756 1.78,18.957 -15.827,25.241Z" style="fill:#7e886b;"/><path d="M4234.683,1443.792c62.695,-18.437 28.183,22.726 25.695,24.117c-19.637,10.979 -14.944,-4.841 -25.695,-24.117Z" style="fill:#66413e;"/><path d="M3496.266,2065.901c0.37,7.048 0.741,14.097 1.111,21.145c-10.782,1.299 -21.563,2.599 -32.345,3.898l-13.653,-9.944c14.962,-5.033 29.924,-10.067 44.887,-15.1Z" style="fill:#445080;"/><path d="M3785.779,1261.042c10.373,-53.636 29.275,-40.556 30.858,-37.083c12.01,26.356 -6.053,21.255 -30.858,37.083Z" style="fill:#4e4e5d;"/><path d="M4037.857,1890.81c-24.669,-42.976 38.078,-23.311 27.197,-13.397c-7.377,6.722 -19.82,6.675 -27.197,13.397Z" style="fill:#545576;"/><path d="M3947.253,1904.812c4.396,5.165 4.186,4.477 26.577,24.761c-33.092,-3.991 -43.578,5.109 -44.696,-15.897c-0.393,-7.384 5.518,-10.275 6.44,-10.727c6.616,-3.237 5.671,4.802 11.678,1.863Z" style="fill:#544d6b;"/><path d="M4200.546,1914.796c21.012,16.039 20.368,17.293 22.693,17.323c6.557,0.084 3.364,-5.686 10.357,-5.596c-13.284,11.121 -12.412,10.06 -13.284,11.121c-7.278,8.861 -7.731,6.616 -16.062,13.745l-9.268,-6.604c1.855,-9.996 3.71,-19.993 5.565,-29.989Z" style="fill:#785d54;"/><path d="M3629.999,2054.177c-19.719,15.812 -19.047,17.265 -21.257,17.045c-11.551,-1.146 -13.556,-56.234 21.257,-17.045Z" style="fill:#383f81;"/><path d="M3971.888,1468.15c-6.327,14.777 5.389,30.794 -9.555,22.316c-18.53,-10.511 -18.359,-43.247 9.555,-22.316Z" style="fill:#6c5d5c;"/><path d="M3957.158,2120.57c0.345,10.24 0.689,20.481 1.034,30.721c-54.868,-12.943 -5.982,-26.565 -1.034,-30.721Z" style="fill:#3d3738;"/><path d="M3534.309,1543.699c-3.105,2.03 3.438,12.977 -16.146,10.555c-15.743,-1.947 -16.313,-9.097 -16.434,-10.606c-1.784,-22.34 11.183,-7.796 32.58,0.051Z" style="fill:#6e6f95;"/><path d="M4000.982,1901.765c-10.543,17.327 -9.529,17.485 -27.152,27.808l2.419,-14.923c4.366,-4.948 -3.177,-5.856 0.809,-10.373c1.24,-1.405 1.772,-0.186 23.924,-2.512Z" style="fill:#4c4870;"/><path d="M4205.986,2089.228c-0.499,-2.229 -10.131,-45.266 14.513,-24.903c5.669,4.684 2.051,10.892 1.57,11.718c-5.745,9.858 -10.721,3.985 -16.083,13.185Z" style="fill:#8c8f6f;"/><path d="M3842.55,2350.676c2.61,1.958 17.715,-12.926 15.675,11.757c0,0 -15.312,7.299 -16.643,7.934c0.629,-4.608 -4.874,-2.026 -4.181,-7.102c0.146,-1.072 0,0 5.149,-12.589Z" style="fill:#67668c;"/><path d="M3705.022,2125.565l9.997,21.5c-2.184,-0.726 -27.299,-9.074 -27.299,-9.074c0.892,-6.832 16.41,-5.594 17.302,-12.426Z" style="fill:#74718c;"/><path d="M3947.253,1904.812c9.665,3.279 19.331,6.558 28.996,9.838l-2.419,14.923c-22.391,-20.284 -22.181,-19.596 -26.577,-24.761Z" style="fill:#938fa0;"/><path d="M4298.199,1532.195c9.976,0.165 19.952,0.329 29.927,0.494c-8.657,2.702 -17.314,5.405 -25.971,8.107l-3.956,-8.601Z" style="fill:#a0b0be;"/><path d="M4410.59,1780.826c9.718,-2.561 19.436,-5.122 29.155,-7.683c-4.43,4.117 -5.415,1.553 -9.904,5.724c-10.521,9.778 -12.111,1.232 -19.251,1.959Z" style="fill:#57698d;"/><path d="M3925.885,2274.005c-1.12,4.228 4.741,8.39 3.622,12.617c-0.474,1.791 -1.554,0.854 -20.983,11.535c6.042,-4.317 4.745,-4.435 17.361,-24.153Z" style="fill:#646472;"/><path d="M4146.016,1919.777l10.447,-4.99c-4.967,3.525 -9.934,7.05 -14.9,10.575l4.453,-5.585Z" style="fill:#3e3d47;"/></svg>